<?xml version="1.0" encoding="utf-8"?>
<!-- Generator: Adobe Illustrator 21.1.0, SVG Export Plug-In . SVG Version: 6.00 Build 0)  -->
<svg version="1.1" id="Слой_1" xmlns="http://www.w3.org/2000/svg" xmlns:xlink="http://www.w3.org/1999/xlink" x="0px" y="0px"
	 viewBox="0 0 1024 1024" style="enable-background:new 0 0 1024 1024;" xml:space="preserve">
<g>
	<path style="fill:#fff;" d="M157.1,553.3c0.4-3.2,0.9-6.5,1.3-9.7c2.6-20.4,4.3-41,7.9-61.2c2.6-14.4,11.5-25.5,25.3-31.5
		c6.2-2.7,12.7-4.8,19.2-6.8c5.3-1.6,7-0.3,6.7,5.1c-0.6,10.5-1.6,20.9-2.4,31.3c-1.6,20.4-3.8,40.7-1.9,61.2
		c1.6,17.7,1.9,35.6,3.6,53.3c2.7,28.9,8.4,57.3,16,85.4c14.8,54.5,37.7,105.6,65.4,154.6c0.8,1.5,1.9,2.8,3.1,4.7
		c0.8-1.6,1.5-2.4,1.8-3.3c22-64.8,53.2-125.5,85.5-185.6c10.2-18.9,20.7-37.8,31.5-56.3c11.8-20.2,34.9-31,57.6-27.1
		c11,1.9,19.7,7.7,24.5,17.8c5.7,12,10.2,24.5,16,36.5c26.2,53.9,52.6,107.8,79.2,161.6c17,34.3,34.6,68.4,51.9,102.5
		c0.6,1.2,1.4,2.4,3,5.1c83.5-140.6,150.5-287,193.4-445.4c0.8,1.9,1.2,2.6,1.4,3.3c5.5,19.8,17.6,29.2,38.2,30.3
		c12.4,0.7,24.7,1.7,37.1,3.1c22.8,2.6,36.7,22.4,32.4,45.2c-3.7,19.6-12.3,37.4-19.3,55.9c-17.6,46.6-36.3,92.8-57.8,137.8
		c-29.5,62.1-63.5,121.5-101.4,178.8c-18.6,28.2-36.3,57-54.6,85.4c-3.4,5.3-7.4,10.2-11.2,15.2c-13.4,17.7-32,23.1-53.1,20.9
		c-16.5-1.7-32.1-7.2-43.7-19.5c-7.7-8.2-14.4-17.8-19.5-27.8c-44.4-88.5-88.3-177.2-132.3-265.8c-2.3-4.7-4.5-9.4-7.2-15.3
		c-1.9,2.7-3.3,4.3-4.4,6.1c-19.8,35.3-35.8,72.4-52.4,109.2c-14.7,32.8-26.6,66.5-34.9,101.4c-1.3,5.6-2.2,11.3-3.5,16.9
		c-4.5,18.3-13.3,23.5-31.5,18.6c-12.2-3.3-21.7-11.2-30.8-19.4c-22.3-20.2-39.5-44.5-54.6-70.2c-27.4-46.8-50.4-95.6-65.8-147.7
		c-8.4-28.5-13.8-57.7-16.5-87.3c-0.9-10.3-1.5-20.6-2.3-30.8c-0.1-1.7-0.7-3.3-1.1-5C157.1,574.3,157.1,563.8,157.1,553.3z"/>
	<path style="fill:#fff;" d="M1001.9,340.6c-0.7-1.6-1.5-3.4-2.2-5.4c-6.6-17.9-20.5-25.4-38.6-26.1c-12.1-0.5-24.2-0.3-36.2,0
		c-31.9,0.8-40.2-21.1-37.4-45c2-16.8,6.1-33.3,9.3-49.9c0.4-2.1,0.6-4.1,0.9-6.7c0.4,0.7,0.8,1.2,1,1.7
		c7.1,18.7,22.4,25.2,42.2,23.2c12.8-1.3,25.7-2.9,38.5-2.5c19.5,0.6,34.5,16.8,36.3,36.3c1.4,15-2.1,29.1-5.9,43.2
		C1006.9,319.9,1004.5,330.3,1001.9,340.6z"/>
	<path style="fill:#fff;" d="M969.4,476c-0.3-1-0.9-2.6-1.5-4.2c-6.2-19-18.9-28.8-39-30.3c-14.3-1-28.6-1.3-42.8-3.3
		c-16.9-2.4-26.1-14.1-26.7-31.1c-0.6-15.3,3.8-29.7,8-44.1c2.5-8.5,4.8-17.1,7.3-25.7c0.3,0.7,0.7,1.7,1.1,2.6
		c6.9,18.3,19.2,24.3,39.7,24.3c11,0,22-1.1,33-0.8c23.5,0.8,39.4,18,39.7,41.5c0.1,13.4-3.7,25.8-8,38.2
		C976.4,454.1,972.9,465.2,969.4,476z"/>
</g>
<g>
	<path style="fill:#fff;" d="M299.1,17.6c4.8,17.7,13.7,28.7,21.1,40.2c6.3,9.9,8.6,17.3-1.7,26.4c-8.1,7.1-14.3,16.5-21.1,25.1
		c-2,2.6-6.2,5.2-3.3,9.2c3.1,4.2,6.7,0.6,9.5-1c9-5.1,18-10.2,26.4-16.2c10.2-7.4,18.3-8.2,28.4,1.3c9.9,9.4,19.3,20.2,36.2,26.8
		c-3.9-16.6-12.8-28-20.6-39.2c-8.4-11.9-6.6-20.2,3.1-29.6c7.4-7.2,13.5-15.6,20.5-23.2c2.7-2.9,5.2-6.1,2.1-9.3
		c-2.1-2.2-5.5-0.4-8.1,1.2c-10.4,6.3-21.2,11.9-31.1,18.9c-8.4,5.9-14.5,5.4-22.4-1.3C326.8,37.3,316.7,25.8,299.1,17.6z"/>
	<path style="fill:#fff;" d="M474.8,129.7c5.4,3,9.2-0.5,12.4-4.1c11-12.1,21.8-12.7,33.5-0.7c3,3.1,7.3,7.9,12.5,3.7
		c4.7-3.9,2.3-9.4-0.1-13.3c-9-14.8-3.6-24.1,10.4-31.4c3.7-1.9,9.7-3.6,7.3-10.6c-2-5.9-6.9-4.8-10.6-4
		c-17.2,3.3-27.3-2.4-29.3-20.6c-0.4-4.2-2-8.6-7.4-9.1c-5.9-0.5-6.9,4-7.3,8.3c-2,19.1-12.6,25.5-30.8,21.7
		c-3.4-0.7-7.9,0.2-9.2,4.2c-1.4,4,1.3,7.2,4.8,8.7c18.3,7.7,22.1,19.9,12.2,37C471.3,122.8,471.5,126.6,474.8,129.7z"/>
	<path style="fill:#fff;" d="M445.5,256.5c13.3-9.2,23.6-13.2,37.7,4.5c-3.9-18.3-10.1-31,9.1-37.2c-14-3.1-26.7-3.4-27.6-23.6
		c-7.6,14.6-12.9,25.8-33.2,21.7C444.8,233.1,457.8,239.6,445.5,256.5z"/>
</g>
<path style="fill:#fff;" d="M421,138.4L36,403.6c-10,6.9-11,22.7-2.3,35.3c8.7,12.6,23.8,17.3,33.8,10.5l385.1-265.2
	c10-6.9,11-22.7,2.3-35.3C446.1,136.2,431,131.6,421,138.4z M434.8,178.9l-16.7,11.5c-4.8,3.3-12.1,1.1-16.3-5.1
	c-4.2-6.1-3.7-13.7,1.1-17.1l16.7-11.5c4.8-3.3,12.1-1.1,16.3,5.1C440.1,168,439.6,175.6,434.8,178.9z"/>
</svg>
