<?xml version="1.0" encoding="utf-8"?>
<!-- Generator: Adobe Illustrator 21.1.0, SVG Export Plug-In . SVG Version: 6.00 Build 0)  -->
<svg version="1.1" id="Слой_1" xmlns="http://www.w3.org/2000/svg" xmlns:xlink="http://www.w3.org/1999/xlink" x="0px" y="0px"
	 viewBox="0 0 51.1 43.5" enable-background="new 0 0 51.1 43.5" xml:space="preserve">
<g>
	<path fill="#0089CA" d="M22.1,28.2c0.3,0.9,0.7,1.8,1,2.7c0.2,0.6,0.5,1.3,0.7,1.9c0.1,0.3,0.2,0.4,0.5,0.4c6,0,12,0,18,0
		c0.8,0,1.5,0.2,1.9,0.9s0.5,1.4,0.1,2c-0.4,0.7-0.9,1.1-1.7,1.1c-6.7,0-13.3,0-20,0c-1,0-1.7-0.5-2-1.5c-2.5-6.8-5-13.7-7.6-20.5
		c-1.3-3.5-2.5-6.9-3.8-10.4C9.1,4.6,9,4.6,8.7,4.6c-2,0-4.1,0-6.1,0C1.7,4.6,1,4.2,0.7,3.4C0.3,2.6,0.4,1.9,1,1.2
		c0.4-0.5,0.9-0.7,1.5-0.7c2.7,0,5.4,0,8.1,0c0.9,0,1.5,0.5,1.8,1.4c0.4,1.1,0.8,2.2,1.2,3.2c0.1,0.3,0.3,0.4,0.6,0.4
		c11.4,0,22.8,0,34.2,0c0.8,0,1.5,0.2,1.9,0.9c0.3,0.5,0.4,1,0.3,1.6c-0.9,3.7-1.9,7.4-2.8,11.1c-0.6,2.5-1.3,4.9-1.9,7.4
		c-0.3,1.1-1,1.7-2.2,1.7c-7,0-14,0-21,0C22.4,28.2,22.3,28.2,22.1,28.2z M29.1,14.6c-0.1-0.1-0.2-0.1-0.2-0.2
		c-0.9-0.6-2-0.5-2.7,0.2c-0.7,0.8-0.7,2,0,2.8c1.2,1.2,2.4,2.4,3.6,3.6c0.8,0.7,2,0.7,2.8,0c1.2-1.2,2.4-2.3,3.5-3.5
		c0.8-0.8,0.8-1.9,0.1-2.7s-1.8-0.9-2.7-0.3c-0.1,0-0.1,0.1-0.3,0.2c0-0.2,0-0.3,0-0.4c0-1,0-2,0-3c-0.2-1.7-2-2.5-3.2-1.7
		c-0.6,0.4-0.9,1-0.9,1.7C29.1,12.4,29.1,13.4,29.1,14.6z"/>
	<path fill="#0089CA" d="M27.7,40.4c0,1.4-1.2,2.6-2.6,2.6s-2.6-1.2-2.6-2.6c0-1.4,1.2-2.6,2.6-2.6C26.5,37.8,27.7,39,27.7,40.4z"/>
	<path fill="#0089CA" d="M38.7,37.8c1.5,0,2.6,1.2,2.6,2.6c0,1.4-1.2,2.6-2.6,2.6c-1.4,0-2.6-1.2-2.6-2.7
		C36.1,39,37.3,37.8,38.7,37.8z"/>
</g>
</svg>
