<?xml version="1.0" encoding="utf-8"?>
<!-- Generator: Adobe Illustrator 21.1.0, SVG Export Plug-In . SVG Version: 6.00 Build 0)  -->
<svg version="1.1" id="Слой_1" xmlns="http://www.w3.org/2000/svg" xmlns:xlink="http://www.w3.org/1999/xlink" x="0px" y="0px"
	 viewBox="0 0 43 53.8" enable-background="new 0 0 43 53.8" xml:space="preserve">
<g>
	<g>
		<path fill="#797A7A" d="M21.5,27.7c-4,0-8.1,0-12.1,0c-2,0-3.8-0.7-5.4-1.9c-1.5-1.1-2.5-2.6-3.1-4.3c-0.3-1.1-0.5-2.1-0.4-3.2
			c0.1-1.8,0.7-3.3,1.8-4.7C3,12.7,3.9,12,4.9,11.3C5,11.3,5,11.2,5,11.1c0-1.4,0.5-2.6,1.3-3.7c0.9-1.1,2-1.8,3.3-2.1
			c0.5-0.1,1-0.2,1.5-0.2c0.1,0,0.2,0,0.3,0c0.2,0.1,0.3,0,0.4-0.1c0.9-1,2-1.9,3.2-2.6c1.3-0.8,2.6-1.3,4.1-1.6
			c1.1-0.2,2.2-0.3,3.4-0.2C23.7,0.7,25,1,26.2,1.5c1.3,0.5,2.6,1.2,3.7,2.1c1.5,1.3,2.8,2.8,3.6,4.6c0.2,0.5,0.4,0.9,0.6,1.4
			c0,0.1,0.1,0.1,0.2,0.1c1.9,0.2,3.7,0.9,5.1,2.1c1.6,1.3,2.6,3,3,5c0.2,0.9,0.2,1.8,0.1,2.6c-0.2,1.8-0.8,3.4-2,4.8
			c-1.1,1.4-2.5,2.3-4.2,2.9c-0.9,0.3-1.8,0.4-2.7,0.4C29.6,27.7,25.5,27.7,21.5,27.7z M21.5,24.7c4,0,8,0,12,0c0.3,0,0.7,0,1-0.1
			c1.5-0.2,2.7-0.9,3.6-2.1c1.3-1.6,1.7-3.4,1.2-5.4c-0.6-2.3-2.1-3.8-4.5-4.4c-0.4-0.1-0.9-0.1-1.3-0.2c-0.5,0-1,0.1-1.5,0.1
			c-0.1,0-0.1,0-0.1-0.1c0-0.2-0.1-0.4-0.1-0.6c-0.4-1.8-1.2-3.4-2.3-4.8c-0.8-1-1.8-1.8-3-2.4c-1.3-0.7-2.7-1.1-4.2-1.2
			c-0.9-0.1-1.8,0-2.7,0.1c-1.3,0.2-2.5,0.7-3.6,1.3c-0.9,0.5-1.6,1.1-2.3,1.9c-0.4,0.4-0.7,0.9-1.1,1.3c-0.1,0.1-0.2,0.2-0.3,0.1
			c-0.2-0.1-0.3-0.1-0.5-0.1C11.3,8,10.9,7.9,10.4,8c-1,0.3-1.8,0.9-2.2,2C8,10.4,7.9,10.8,8,11.3c0.1,0.4,0.1,0.8,0.2,1.3
			c0,0.1,0,0.1-0.1,0.2c-0.2,0.1-0.5,0.2-0.7,0.3c-1,0.4-1.9,1-2.6,1.9c-1.1,1.4-1.5,2.9-1.2,4.6c0.1,1,0.6,2,1.2,2.8
			c1.2,1.5,2.8,2.3,4.7,2.3C13.4,24.7,17.5,24.7,21.5,24.7z"/>
		<path fill="#797A7A" d="M27.6,20.2c0,0.6-0.3,1.1-0.9,1.3c-0.6,0.3-1.1,0.2-1.6-0.2c-0.5-0.4-1.2-0.7-1.8-0.9
			c-0.8-0.2-1.7-0.3-2.5-0.2c-1,0.1-1.9,0.4-2.7,1.1c-0.3,0.3-0.7,0.4-1.1,0.4c-0.6,0-1.2-0.4-1.3-1c-0.2-0.6,0-1.3,0.4-1.6
			c1-0.8,2.2-1.3,3.5-1.7c0.8-0.2,1.6-0.3,2.5-0.2c1.1,0.1,2.2,0.3,3.2,0.8c0.7,0.3,1.3,0.6,1.9,1.1C27.4,19.4,27.6,19.7,27.6,20.2z
			"/>
		<path fill="#797A7A" d="M17,11.1c0.8,0,1.5,0.7,1.5,1.5s-0.7,1.5-1.5,1.5s-1.5-0.7-1.5-1.5S16.2,11.1,17,11.1z"/>
		
			<ellipse transform="matrix(4.186811e-03 -1 1 4.186811e-03 13.2172 38.587)" fill="#797A7A" cx="26" cy="12.7" rx="1.5" ry="1.5"/>
	</g>
	<polyline fill="#808083" points="28.9,31.3 18.5,40.2 27.5,40.2 17,53.3 	"/>
</g>
</svg>
