<?xml version="1.0" encoding="utf-8"?>
<!-- Generator: Adobe Illustrator 21.1.0, SVG Export Plug-In . SVG Version: 6.00 Build 0)  -->
<svg version="1.1" id="Capa_1" xmlns="http://www.w3.org/2000/svg" xmlns:xlink="http://www.w3.org/1999/xlink" x="0px" y="0px"
	 viewBox="0 0 174.2 174.3" enable-background="new 0 0 174.2 174.3" xml:space="preserve">
<g>
	<path d="M173.1,73.9c-0.4-2.7-2.3-5-4.9-5.9l-13.7-4.9c-0.8-2.3-1.7-4.5-2.8-6.7l6.2-13.1c1.2-2.5,0.9-5.4-0.7-7.6
		c-5.3-7.2-11.6-13.5-18.7-18.7c-2.2-1.6-5.1-1.9-7.6-0.7l-13.1,6.2c-2.2-1-4.4-1.9-6.7-2.8L106.2,6c-0.9-2.6-3.2-4.5-5.9-4.9
		c-9.7-1.5-16.8-1.5-26.5,0c-2.7,0.4-5,2.3-5.9,4.9l-4.9,13.7c-2.3,0.8-4.5,1.7-6.7,2.8l-13.1-6.2c-2.5-1.2-5.4-0.9-7.6,0.7
		c-7.1,5.2-13.4,11.5-18.7,18.7c-1.6,2.2-1.9,5.1-0.7,7.6l6.2,13.1c-1,2.2-1.9,4.4-2.8,6.7L6,68c-2.6,0.9-4.5,3.2-4.9,5.9
		C0.3,78.8,0,83,0,87.1c0,4.1,0.3,8.3,1.1,13.2c0.4,2.7,2.3,5,4.9,5.9l13.7,4.9c0.8,2.3,1.7,4.5,2.8,6.7L16.2,131
		c-1.2,2.5-0.9,5.4,0.7,7.6c5.3,7.2,11.5,13.4,18.7,18.7c2.2,1.6,5.1,1.9,7.6,0.7l13.1-6.2c2.2,1,4.4,1.9,6.7,2.8l4.9,13.7
		c0.9,2.6,3.2,4.5,5.9,4.9c4.8,0.7,9.2,1.1,13.2,1.1s8.4-0.4,13.2-1.1c2.7-0.4,5-2.3,5.9-4.9l4.9-13.7c2.3-0.8,4.5-1.7,6.7-2.8
		L131,158c2.5,1.2,5.4,0.9,7.6-0.7c7.2-5.3,13.4-11.6,18.7-18.7c1.6-2.2,1.9-5.1,0.7-7.6l-6.2-13.1c1-2.2,1.9-4.4,2.8-6.7l13.7-4.9
		c2.6-0.9,4.5-3.2,4.9-5.9c0.7-4.9,1.1-9.1,1.1-13.2S173.9,78.8,173.1,73.9z M158.9,93.7l-12.9,4.6c-2.3,0.8-4,2.6-4.7,4.9
		c-1.1,3.9-2.7,7.6-4.5,10.9c-1.1,2.1-1.2,4.6-0.2,6.8l5.8,12.3c-2.8,3.4-5.9,6.5-9.3,9.3l-12.3-5.8c-2.2-1-4.7-1-6.8,0.2
		c-3.4,1.8-7.1,3.4-11,4.5c-2.3,0.7-4.1,2.4-4.9,4.7L93.7,159c-4.7,0.5-8.5,0.5-13.2,0l-4.6-12.9c-0.8-2.2-2.6-4-4.9-4.7
		c-3.9-1.2-7.6-2.7-11-4.5c-2.1-1.1-4.6-1.2-6.8-0.2L41,142.6c-3.4-2.8-6.5-5.9-9.3-9.3l5.8-12.3c1-2.2,1-4.7-0.2-6.8
		c-1.8-3.4-3.3-7-4.5-10.9c-0.7-2.3-2.4-4.1-4.7-4.9l-12.9-4.6c-0.2-2.3-0.4-4.5-0.4-6.6s0.1-4.2,0.4-6.6L28.2,76
		c2.2-0.8,4-2.6,4.7-4.9c1.2-3.9,2.7-7.6,4.5-11c1.1-2.1,1.2-4.6,0.2-6.8L31.7,41c2.8-3.4,5.9-6.5,9.3-9.3l12.3,5.8
		c2.2,1,4.7,1,6.8-0.2c3.4-1.8,7.1-3.3,10.9-4.5c2.3-0.7,4.1-2.4,4.9-4.7l4.6-12.9c4.6-0.5,8.5-0.5,13.2,0l4.6,12.9
		c0.8,2.2,2.6,4,4.9,4.7c3.9,1.2,7.6,2.7,11,4.5c2.1,1.1,4.6,1.2,6.8,0.2l12.3-5.8c3.4,2.8,6.5,5.9,9.3,9.3l-5.8,12.3
		c-1,2.2-1,4.7,0.2,6.8c1.8,3.4,3.4,7.1,4.5,10.9c0.7,2.3,2.4,4.1,4.7,4.9l12.9,4.6c0.2,2.3,0.4,4.5,0.4,6.6S159.2,91.4,158.9,93.7z
		"/>
	<path d="M87.1,50.8c-19.1,0-34.6,15.5-34.6,34.6s15.5,34.6,34.6,34.6s34.6-15.5,34.6-34.6S106.2,50.8,87.1,50.8z M87.1,105
		c-10.8,0-19.6-8.8-19.6-19.6s8.8-19.6,19.6-19.6s19.6,8.8,19.6,19.6S97.9,105,87.1,105z"/>
</g>
</svg>
