<?xml version="1.0" encoding="utf-8"?>
<!-- Generator: Adobe Illustrator 21.1.0, SVG Export Plug-In . SVG Version: 6.00 Build 0)  -->
<svg version="1.1" id="Capa_1" xmlns="http://www.w3.org/2000/svg" xmlns:xlink="http://www.w3.org/1999/xlink" x="0px" y="0px"
	 viewBox="0 0 430 512" enable-background="new 0 0 430 512" xml:space="preserve">
<g>
	<g>
		<path d="M319.2,121.2c11,0,20-9,20-20V49.4c0-27.2-22.4-49.4-49.9-49.4H49.9C22.4,0,0,22.2,0,49.4v413.2
			C0,489.8,22.4,512,49.9,512h239.4c27.5,0,49.9-22.2,49.9-49.4v-51.8c0-11-9-20-20-20c-11,0-20,9-20,20v51.8c0,5.2-4.5,9.4-9.9,9.4
			H49.9c-5.5,0-9.9-4.2-9.9-9.4V49.4c0-5.2,4.5-9.4,9.9-9.4h239.4c5.5,0,9.9,4.2,9.9,9.4v51.8C299.2,112.2,308.2,121.2,319.2,121.2z
			"/>
	</g>
</g>
<g>
	<g>
		<path d="M424,241.7L317.5,137.9c-7.9-7.7-20.6-7.6-28.3,0.4c-7.7,7.9-7.6,20.6,0.4,28.3l71.2,69.5H169.6c-11,0-20,9-20,20
			c0,11,9,20,20,20h191.2l-71.2,69.5c-7.9,7.7-8.1,20.4-0.4,28.3c7.7,7.9,20.4,8.1,28.3,0.4L424,270.3
			C432.1,262.4,432,249.5,424,241.7z"/>
	</g>
</g>
</svg>
