<?xml version="1.0" encoding="utf-8"?>
<!-- Generator: Adobe Illustrator 21.1.0, SVG Export Plug-In . SVG Version: 6.00 Build 0)  -->
<svg version="1.1" id="Слой_1" xmlns="http://www.w3.org/2000/svg" xmlns:xlink="http://www.w3.org/1999/xlink" x="0px" y="0px"
	 viewBox="0 0 29.5 55.8" enable-background="new 0 0 29.5 55.8" xml:space="preserve">
<g>
	<g>
		<path fill="#0089CA" d="M0.3,19.8c1.6,0.2,2.8-0.3,4-0.5c1-0.2,1.7-0.2,2.2,1c0.3,0.9,0.9,1.7,1.4,2.6c0.2,0.3,0.2,0.7,0.7,0.6
			C9,23.4,8.9,23,8.8,22.7c-0.1-0.9-0.3-1.8-0.5-2.7c-0.3-1.1-0.1-1.8,1-2.3s2.3-1,3.4-2.2c-1.5-0.2-2.8,0.2-3.9,0.5
			c-1.3,0.3-1.9-0.1-2.4-1.2C6,13.7,5.4,13,5,12.1c-0.2-0.3-0.3-0.6-0.7-0.5C4,11.7,4.1,12,4.1,12.3c0.2,1.1,0.3,2.2,0.6,3.2
			c0.2,0.9,0,1.4-0.8,1.8C2.8,18.1,1.5,18.6,0.3,19.8z"/>
		<path fill="#0089CA" d="M15.2,8.6c0.4-0.4,0.2-0.8,0-1.2c-0.7-1.3-0.4-2.2,1-2.8c0.4-0.2,0.9-0.4,0.7-0.9
			c-0.2-0.5-0.7-0.5-1.1-0.4c-1.5,0.3-2.1-0.5-2.3-1.9c0-0.4,0-0.9-0.7-0.9c-0.6,0-0.6,0.4-0.7,0.8c-0.2,1.4-1,2.1-2.6,1.7
			c-0.4-0.1-0.8-0.1-1,0.3C8.3,3.8,8.6,4,9,4.2c1.5,0.8,1.7,1.9,0.9,3.3c-0.2,0.2-0.3,0.6,0,0.9c0.3,0.2,0.6,0.1,0.9-0.1
			C12,7,13.1,7,14.3,8.4C14.5,8.6,14.8,8.7,15.2,8.6z"/>
		<path fill="#0089CA" d="M24.9,15c-0.4-1.4-0.4-2.4,1.6-3c-1.7-0.2-2.9-0.1-2.8-1.9c-0.7,1.1-1.1,2.1-2.8,1.6
			c1,1.1,1.8,1.9,0.8,3.5C22.9,14.3,23.8,13.4,24.9,15z"/>
	</g>
	<path fill="#0089CA" d="M14.2,13.3l10.2,40.6c0.3,1,1.6,1.6,2.9,1.3s2.2-1.5,1.9-2.5L19,12.1c-0.3-1-1.6-1.6-2.9-1.3
		C14.8,11.2,14,12.3,14.2,13.3z M18,13.5l0.4,1.8c0.1,0.5-0.3,1-0.9,1.2s-1.3-0.1-1.4-0.6L15.7,14c-0.1-0.5,0.3-1,0.9-1.2
		C17.3,12.7,17.9,13,18,13.5z"/>
</g>
</svg>
