<?xml version="1.0" encoding="utf-8"?>
<!-- Generator: Adobe Illustrator 21.1.0, SVG Export Plug-In . SVG Version: 6.00 Build 0)  -->
<svg version="1.1" id="Слой_1" xmlns="http://www.w3.org/2000/svg" xmlns:xlink="http://www.w3.org/1999/xlink" x="0px" y="0px"
	 viewBox="0 0 100 110" style="enable-background:new 0 0 100 110;" xml:space="preserve">
<style type="text/css">
	.st0{fill:#0089CA;}
</style>
<g>
	<g>
		<path class="st0" d="M71.2,54.9c-0.9,0-1.9,0-2.8,0l-0.1-2.5L58,49.1L57.6,49l-0.2,0.3l-2.5,3.8v1.7c-0.5,0-1,0-1.4,0L53,52.5
			c-0.1-0.8-0.4-1.4-0.9-1.9c-0.6-0.6-1.3-0.9-2-0.8l-9.2,1.5c-1.3,0.2-2.2,1.7-1.9,3.5V55c-0.4,0-0.8,0-1.3,0l-2.8-7.3H24.1h-0.4
			L23.6,48l-1.2,4.4l0.8,2.6c-0.8,0-1.5,0-2.3,0c-0.5,0-0.7-0.2-0.9-0.6c-0.6-1.6-1.2-3.2-1.8-4.8c-0.5-1.2-1.4-2-2.7-2
			c-4-0.1-8,0-11.9,0c-0.9,0-1.6,0.4-2.2,1.1c-0.8,1-0.9,2.1-0.4,3.2c0.5,1.2,1.5,1.7,2.8,1.7c3,0,6,0,9,0c0.4,0,0.6,0.1,0.8,0.5
			c1.9,5.1,3.7,10.2,5.6,15.3c3.7,10.1,7.4,20.1,11.1,30.2c0.6,1.5,1.5,2.2,3,2.2c9.8,0,19.6,0,29.4,0c1.2,0,2-0.6,2.6-1.6
			c0.5-1,0.5-2-0.1-3s-1.6-1.4-2.8-1.4c-8.8,0-17.7,0-26.5,0c-0.5,0-0.6-0.1-0.8-0.6c-0.3-1-0.7-1.9-1.1-2.9
			c-0.5-1.3-0.9-2.6-1.4-3.9c0.3,0,0.5,0,0.7,0c10.3,0,20.7,0,31,0c1.7,0,2.8-0.8,3.2-2.5c0.9-3.6,1.9-7.3,2.8-10.9
			c1.4-5.4,2.8-10.9,4.2-16.3c0.2-0.8,0.1-1.7-0.4-2.4C73.3,55.2,72.4,54.9,71.2,54.9z M41.2,53.3l9.2-1.5c0.1,0,0.4,0.4,0.5,1
			l0.3,2.1c-3.4,0-6.8,0-10.1,0L41,54.4C40.9,53.7,41.1,53.3,41.2,53.3z M24.5,48.6h9.2l-1.6,3.7h-8.4L24.5,48.6z M24.3,54.9
			l-0.5-1.5h8.3l0.6,1.5C29.9,54.9,27.1,54.9,24.3,54.9z M33.8,54.9l-0.8-2l1.5-3.4l2.1,5.4C35.7,54.9,34.8,54.9,33.8,54.9z
			 M53,72.4c-1.7,1.7-3.4,3.5-5.2,5.2c-1.1,1.1-2.9,1.1-4.1,0c-1.8-1.7-3.6-3.5-5.3-5.3c-1.1-1.2-1.1-2.9,0-4.1c1-1.1,2.7-1.3,4-0.3
			c0.1,0.1,0.2,0.1,0.3,0.3c0-1.7,0-3.3,0-4.8c0-1.1,0.5-1.9,1.3-2.5c1.9-1.3,4.5,0,4.6,2.2c0.1,1.5,0,2.9,0,4.4c0,0.2,0,0.4,0,0.6
			c0.2-0.1,0.3-0.2,0.4-0.3c1.3-0.9,3-0.7,4,0.5C54.2,69.5,54.2,71.2,53,72.4z M55.8,54.9v-0.3l0.9,0.3
			C56.4,54.9,56.1,54.9,55.8,54.9z M60.2,54.9l-4.1-1.3l1.9-3.3l8.8,2.8l-1.6,1.8C63.5,54.9,61.8,54.9,60.2,54.9z M66.6,54.9
			l0.7-0.8v0.8C67.1,54.9,66.8,54.9,66.6,54.9z"/>
		<path class="st0" d="M36.9,102.3c-2.1,0-3.9,1.8-3.9,3.9s1.8,3.8,3.8,3.8c2.1,0,3.9-1.8,3.9-3.9C40.8,104.1,39,102.3,36.9,102.3z"
			/>
		<path class="st0" d="M57,102.3c-2.1,0-3.9,1.7-3.9,3.7c0,2.2,1.7,3.9,3.8,3.9s3.9-1.8,3.9-3.8C60.9,104,59.2,102.3,57,102.3z"/>
	</g>
	<g>
		<g>
			<path class="st0" d="M54.8,24.3c1.5-0.8,2.4-1.8,3.3-2.7c0.8-0.8,1.5-1.1,2.5-0.3c0.8,0.6,1.8,1,2.7,1.5c0.3,0.1,0.6,0.5,0.9,0.1
				c0.3-0.4-0.1-0.6-0.3-0.9c-0.6-0.7-1.3-1.5-2-2.1c-0.9-0.8-1.1-1.5-0.4-2.6c0.7-1.1,1.5-2.1,1.8-3.8c-1.5,0.7-2.4,1.7-3.3,2.6
				c-1,1-1.8,1-2.8,0.2c-0.8-0.6-1.7-1-2.5-1.5c-0.3-0.2-0.7-0.4-0.9,0c-0.2,0.2,0.1,0.5,0.3,0.7c0.8,0.8,1.5,1.8,2.3,2.5
				c0.7,0.7,0.8,1.2,0.3,2.1C56.2,21.4,55.3,22.6,54.8,24.3z"/>
			<path class="st0" d="M62.1,6.1c0.2-0.6-0.2-0.8-0.6-1.1c-1.3-0.7-1.5-1.7-0.6-3c0.2-0.3,0.6-0.8,0.1-1.2c-0.4-0.4-0.9,0-1.2,0.2
				c-1.2,1.1-2.2,0.8-3.1-0.4c-0.2-0.3-0.5-0.8-1.1-0.5c-0.5,0.3-0.3,0.7-0.2,1.1c0.6,1.5,0.2,2.5-1.4,3c-0.4,0.1-0.8,0.3-0.7,0.8
				c0.1,0.6,0.5,0.6,0.9,0.5C56,5.3,56.8,6.2,56.7,8c0,0.3,0.2,0.7,0.6,0.8c0.4,0.1,0.6-0.2,0.7-0.6c0.4-1.8,1.5-2.4,3.2-1.8
				C61.5,6.6,61.9,6.5,62.1,6.1z"/>
			<path class="st0" d="M74.3,6.6c-1.1-1.1-1.6-2-0.3-3.6c-1.6,0.7-2.7,1.5-3.6-0.2c0,1.3,0.2,2.5-1.7,3c1.5,0.4,2.6,0.7,2.6,2.7
				C72.2,7.1,72.6,5.8,74.3,6.6z"/>
		</g>
		<path class="st0" d="M63.9,10.9l31.2,30.9c0.8,0.8,2.3,0.6,3.3-0.4s1.2-2.5,0.4-3.3L67.5,7.2c-0.8-0.8-2.3-0.6-3.3,0.4
			C63.2,8.7,63,10.2,63.9,10.9z M67.4,9l1.4,1.3c0.4,0.4,0.3,1.1-0.2,1.6s-1.2,0.6-1.6,0.2l-1.4-1.3c-0.4-0.4-0.3-1.1,0.2-1.6
			S67,8.6,67.4,9z"/>
	</g>
	<path class="st0" d="M34.3,33.8c1.2-0.6,1.8-1.3,2.5-2c0.6-0.6,1.1-0.8,1.9-0.2c0.6,0.5,1.3,0.8,2,1.1c0.2,0.1,0.4,0.4,0.7,0.1
		c0.2-0.3,0-0.5-0.2-0.7c-0.5-0.6-0.9-1.1-1.5-1.6c-0.6-0.6-0.8-1.2-0.3-2s1.1-1.6,1.4-2.9c-1.1,0.5-1.8,1.3-2.4,2
		c-0.7,0.7-1.3,0.7-2.1,0.2c-0.6-0.4-1.3-0.7-1.9-1.1c-0.2-0.1-0.5-0.3-0.7,0c-0.1,0.2,0,0.4,0.2,0.5c0.6,0.6,1.1,1.3,1.7,1.9
		c0.5,0.5,0.6,0.9,0.2,1.6C35.3,31.6,34.7,32.5,34.3,33.8z"/>
	<path class="st0" d="M58.2,41.4c-1.6-1.6-2.5-2.9-0.4-5.4c-2.4,1-4,2.2-5.4-0.3c-0.1,2,0.2,3.8-2.5,4.5c2.2,0.7,3.9,1.1,3.9,4
		C54.9,42.1,55.5,40.1,58.2,41.4z"/>
</g>
</svg>
