<?xml version="1.0" encoding="utf-8"?>
<!-- Generator: Adobe Illustrator 21.0.0, SVG Export Plug-In . SVG Version: 6.00 Build 0)  -->
<svg version="1.1" id="Слой_1" xmlns="http://www.w3.org/2000/svg" xmlns:xlink="http://www.w3.org/1999/xlink" x="0px" y="0px"
	 viewBox="0 0 17.8 32.6" enable-background="new 0 0 17.8 32.6" xml:space="preserve">
<g>
	<path fill="#4D4D4D" d="M15.3,0H2.5C1.1,0,0,1.1,0,2.6V30c0,1.4,1.1,2.6,2.5,2.6h12.9c1.4,0,2.5-1.1,2.5-2.6V2.6
		C17.8,1.1,16.7,0,15.3,0z M2.5,0.8h12.9c0.9,0,1.7,0.8,1.7,1.8v1.6H0.8V2.6C0.8,1.6,1.5,0.8,2.5,0.8z M17.1,4.9v21.4H0.8V4.9H17.1z
		 M15.3,31.8H2.5c-0.9,0-1.7-0.8-1.7-1.8v-3h16.3v3C17.1,31,16.3,31.8,15.3,31.8z"/>
	<path fill="#4D4D4D" d="M9.3,31.1c-1,0-1.7-0.8-1.7-1.7c0-1,0.8-1.7,1.7-1.7c1,0,1.7,0.8,1.7,1.7C11,30.3,10.2,31.1,9.3,31.1z
		 M9.3,28.3c-0.5,0-1,0.4-1,1c0,0.5,0.4,1,1,1s1-0.4,1-1C10.3,28.8,9.8,28.3,9.3,28.3z"/>
	<path fill="#4D4D4D" d="M9.7,3.3H8.1c-0.5,0-0.9-0.4-0.9-0.8s0.4-0.8,0.9-0.8h1.6c0.5,0,0.9,0.4,0.9,0.8S10.2,3.3,9.7,3.3z
		 M8.1,2.4C8,2.4,7.9,2.5,7.9,2.5S8,2.5,8.1,2.5h1.6c0.1,0,0.2-0.1,0.2-0.1S9.8,2.4,9.7,2.4H8.1z"/>
	<path fill="#4D4D4D" d="M4.8,3.3C4.4,3.3,4,2.9,4,2.5s0.4-0.8,0.8-0.8S5.7,2,5.7,2.5S5.3,3.3,4.8,3.3z M4.8,2.4
		C4.8,2.4,4.7,2.4,4.8,2.4C4.7,2.5,4.9,2.5,4.8,2.4C4.9,2.4,4.9,2.4,4.8,2.4z"/>
</g>
</svg>
