<?xml version="1.0" encoding="utf-8"?>
<!-- Generator: Adobe Illustrator 21.1.0, SVG Export Plug-In . SVG Version: 6.00 Build 0)  -->
<svg version="1.1" id="Capa_1" xmlns="http://www.w3.org/2000/svg" xmlns:xlink="http://www.w3.org/1999/xlink" x="0px" y="0px"
	 viewBox="0 0 370 313.8" enable-background="new 0 0 370 313.8" xml:space="preserve">
<g>
	<path d="M366.9,43.1c-2.8-3.7-7.2-5.8-11.9-5.8H97.8L87.7,9.8C85.5,3.9,79.9,0,73.6,0H15C6.7,0,0,6.7,0,15s6.7,15,15,15h48.2
		l85.4,231.7c2.2,5.9,7.8,9.8,14.1,9.8h147.8c8.3,0,15-6.7,15-15s-6.7-15-15-15H173.1l-13.6-36.8h160.3c6.9,0,12.8-4.6,14.5-11.3
		L369.5,56C370.7,51.6,369.7,46.8,366.9,43.1z M262.4,125l-25.8,25.8c-2.8,2.8-6.6,4.4-10.6,4.4c-4,0-7.8-1.6-10.6-4.4L189.6,125
		c-2.8-2.8-4.4-6.6-4.4-10.6c0-4,1.6-7.8,4.4-10.6c2.8-2.8,6.6-4.4,10.6-4.4c4,0,7.8,1.6,10.6,4.4l0.2,0.2V79.8c0-8.3,6.7-15,15-15
		s15,6.7,15,15V104l0.2-0.2c2.8-2.8,6.6-4.4,10.6-4.4s7.8,1.6,10.6,4.4C268.3,109.7,268.3,119.2,262.4,125z"/>
	<path d="M181.5,275.1c-10.7,0-19.3,8.7-19.3,19.3s8.7,19.3,19.3,19.3c10.7,0,19.3-8.7,19.3-19.3
		C200.8,283.7,192.2,275.1,181.5,275.1z"/>
	<path d="M282.3,275.1c-10.7,0-19.3,8.7-19.3,19.3s8.7,19.3,19.3,19.3s19.3-8.7,19.3-19.3C301.7,283.7,293,275.1,282.3,275.1z"/>
</g>
</svg>
