<?xml version="1.0" encoding="utf-8"?>
<!-- Generator: Adobe Illustrator 21.1.0, SVG Export Plug-In . SVG Version: 6.00 Build 0)  -->
<svg version="1.1" id="Слой_1" xmlns="http://www.w3.org/2000/svg" xmlns:xlink="http://www.w3.org/1999/xlink" x="0px" y="0px"
	 viewBox="0 0 295.8 295.8" enable-background="new 0 0 295.8 295.8" xml:space="preserve">
<g>
	<g>
		<path d="M154.9,69.6c-10.4-3.5-22.6,0-31.3,7s-13.9,17.4-13.9,29.6c0,5.2,3.5,8.7,8.7,8.7c5.2,0,8.7-3.5,8.7-8.7
			c0-5.2,1.7-12.2,7-15.7s10.4-5.2,17.4-3.5c8.7,1.7,13.9,8.7,15.7,15.7c1.7,8.7,0,15.7-7,20.9c-13.9,10.4-20.9,26.1-20.9,41.8
			c0,5.2,3.5,8.7,8.7,8.7c5.2,0,8.7-3.5,7-8.7c0-10.4,7-20.9,15.7-27.8c12.2-10.4,17.4-24.4,13.9-38.3
			C181,83.5,168.8,73.1,154.9,69.6L154.9,69.6z"/>
		<path d="M140.9,210.6c-1.7,1.7-1.7,5.2-1.7,7s0,3.5,1.7,5.2s5.2,3.5,7,3.5s5.2-1.7,5.2-3.5c1.7,0,3.5-3.5,3.5-5.2
			c0-3.5-1.7-5.2-3.5-7C149.7,207.1,144.4,207.1,140.9,210.6L140.9,210.6z"/>
		<path d="M147.9,0C66.1,0,0,66.1,0,147.9s66.1,147.9,147.9,147.9s147.9-66.1,147.9-147.9S229.7,0,147.9,0z M147.9,278.4
			c-71.3,0-130.5-59.2-130.5-130.5S76.6,17.4,147.9,17.4s130.5,59.2,130.5,130.5S219.3,278.4,147.9,278.4z"/>
	</g>
</g>
</svg>
