<?xml version="1.0" encoding="utf-8"?>
<!-- Generator: Adobe Illustrator 17.1.0, SVG Export Plug-In . SVG Version: 6.00 Build 0)  -->
<!DOCTYPE svg PUBLIC "-//W3C//DTD SVG 1.1//EN" "http://www.w3.org/Graphics/SVG/1.1/DTD/svg11.dtd">
<svg version="1.1" id="Слой_1" xmlns="http://www.w3.org/2000/svg" xmlns:xlink="http://www.w3.org/1999/xlink" x="0px" y="0px"
	 viewBox="0 0 45.4 45.4" enable-background="new 0 0 45.4 45.4" xml:space="preserve">
<path fill="#4E4E4E" d="M43.3,14.3c0.3,2-0.6,2.5-1.3,3.2c-3.7,3.2-3.6,7,0.1,10.1c1.5,1.3,2,2.5,0.8,4.2c-0.8,1.3-1.6,2.6-2.3,3.9
	c-1,2.1-2.4,2.1-4.4,1.4c-4.2-1.6-7.8,0.3-8.4,4.6c-0.7,5.3-4.7,2.9-7.4,3.3c-2.9,0.5-4.1-1.3-4.4-3.9c-0.5-3.5-4-5.8-7.1-4.3
	c-3.2,1.6-4.6,0.3-5.9-2.4C1.8,31.9-1,29.6,3.3,27c3-1.9,3-6.9,0-8.8c-3.3-2.1-2.5-4.1-0.8-6.6C4,9.4,4.6,5.9,8.9,8.2
	c3.1,1.7,7.5-0.9,7.7-4.4c0.2-3.1,1.6-3.9,4.4-3.7c1.1,0.1,2.3,0.1,3.4,0c2-0.1,2.9,0.6,3.3,2.7c1,5.1,3.9,6.7,8.6,4.8
	c1.1-0.4,1.9-0.5,2.8,0.2C41.4,9.7,42.1,12.6,43.3,14.3z M31.3,22.7c0.1-5.1-3.8-9.2-8.9-9.4c-5.1-0.2-9.5,4.1-9.5,9.2
	c0,5.1,4,9.1,9.1,9.1C27.3,31.7,31.3,27.9,31.3,22.7z"/>
</svg>
