<?xml version="1.0" encoding="utf-8"?>
<!-- Generator: Adobe Illustrator 21.0.0, SVG Export Plug-In . SVG Version: 6.00 Build 0)  -->
<svg version="1.1" id="Слой_1" xmlns="http://www.w3.org/2000/svg" xmlns:xlink="http://www.w3.org/1999/xlink" x="0px" y="0px"
	 viewBox="0 0 36.2 32.6" enable-background="new 0 0 36.2 32.6" xml:space="preserve">
<g>
	<path fill="#666666" d="M33.6,17.2c-0.1,1-0.3,2.2-0.4,3.4c0,0.2,0,0.4,0.2,0.6c0.5,0.5,0.6,1.1,0.4,1.7c-0.8,2.8-1.7,5.6-2.6,8.4
		c-0.3,1-1.3,1.5-2.2,1.2c-0.9-0.3-1.4-1.2-1.1-2.2c0.8-2.8,1.7-5.6,2.5-8.4c0.2-0.6,0.6-1,1.2-1.2c0.1,0,0.3-0.2,0.3-0.3
		c1.2-6-0.9-12.9-6.3-16.7C20.2-0.2,12.9,0.6,8.2,5.7c-2.5,2.7-3.9,6-4.3,9.7c-0.2,1.7-0.1,3.3,0.2,5c0,0.2,0.1,0.3,0.3,0.4
		c0.7,0.1,1.1,0.6,1.3,1.2c0.9,2.8,1.7,5.6,2.5,8.4c0.3,1-0.2,1.9-1.1,2.2c-0.9,0.3-1.9-0.2-2.2-1.2c-0.9-2.8-1.7-5.6-2.6-8.4
		c-0.2-0.6-0.1-1.2,0.4-1.7c0.2-0.2,0.2-0.3,0.1-0.5C1.8,14.4,3.3,8.8,7.8,4.3c2.9-2.9,6.4-4.4,10.6-4.3c4.1,0.1,7.6,1.8,10.4,4.7
		c2.6,2.7,4,5.9,4.6,9.6C33.5,15.3,33.5,16.2,33.6,17.2z"/>
	<path fill="#666666" d="M0,24.5c0-0.5,0.3-0.8,0.7-0.9c0.4-0.1,0.8,0.2,0.9,0.6c0.2,0.8,0.5,1.6,0.7,2.4c0.4,1.3,0.8,2.7,1.2,4
		c0,0.2,0.1,0.3,0.1,0.5c0,0.4-0.3,0.6-0.7,0.7c-0.4,0-0.7-0.2-0.9-0.6c-0.5-1.5-0.9-3-1.4-4.4c-0.2-0.6-0.4-1.3-0.6-1.9
		C0,24.7,0,24.5,0,24.5z"/>
	<path fill="#666666" d="M36.2,24.5c0,0.1,0,0.2-0.1,0.3c-0.6,2.1-1.3,4.2-1.9,6.3c-0.1,0.5-0.4,0.7-0.8,0.7c-0.5,0-0.9-0.5-0.7-1.1
		c0.4-1.5,0.9-2.9,1.3-4.4c0.2-0.7,0.4-1.4,0.7-2.2c0.1-0.4,0.5-0.7,0.9-0.6C35.9,23.7,36.2,24,36.2,24.5z"/>
</g>
</svg>
