<?xml version="1.0" encoding="utf-8"?>
<!-- Generator: Adobe Illustrator 21.1.0, SVG Export Plug-In . SVG Version: 6.00 Build 0)  -->
<svg version="1.1" id="Слой_1" xmlns="http://www.w3.org/2000/svg" xmlns:xlink="http://www.w3.org/1999/xlink" x="0px" y="0px"
	 viewBox="0 0 24 24" enable-background="new 0 0 24 24" xml:space="preserve">
<path fill="#1D1D1B" d="M24,12c0-6.6-5.4-12-12-12S0,5.4,0,12c0,3.4,1.4,6.4,3.7,8.6c0.1,0.1,0.1,0.1,0.2,0.2c2.1,2,5,3.2,8.1,3.2
	s6-1.2,8.1-3.2c0.1,0,0.1-0.1,0.2-0.2C22.6,18.4,24,15.4,24,12z M12,1.5c5.8,0,10.5,4.7,10.5,10.5c0,2.5-0.9,4.7-2.3,6.5
	c-0.7-2.1-2.5-3.7-5-4.5c1.4-1,2.3-2.6,2.3-4.4c0-3-2.5-5.5-5.5-5.5S6.5,6.6,6.5,9.6c0,1.8,0.9,3.4,2.3,4.4c-2.5,0.8-4.4,2.4-5,4.5
	c-1.4-1.8-2.3-4-2.3-6.5C1.5,6.2,6.2,1.5,12,1.5z M8,9.6c0-2.2,1.8-4,4-4s4,1.8,4,4s-1.8,4-4,4S8,11.8,8,9.6z M5,19.8
	c0.2-2.7,3.1-4.8,7-4.8s6.7,2,7,4.8c-1.9,1.7-4.3,2.7-7,2.7S6.9,21.5,5,19.8z"/>
</svg>
