<?xml version="1.0" encoding="utf-8"?>
<!-- Generator: Adobe Illustrator 21.0.0, SVG Export Plug-In . SVG Version: 6.00 Build 0)  -->
<svg version="1.1" id="Слой_1" xmlns="http://www.w3.org/2000/svg" xmlns:xlink="http://www.w3.org/1999/xlink" x="0px" y="0px"
	 viewBox="0 0 18.9 32.6" enable-background="new 0 0 18.9 32.6" xml:space="preserve">
<g>
	<g>
		<path fill="#4D4D4D" d="M0,1.9c0.2-0.4,0.3-0.7,0.5-1.1C0.9,0.3,1.4,0.1,2,0c0.1,0,0.3,0,0.4,0c4.7,0,9.5,0,14.2,0
			c0.8,0,1.4,0.3,1.9,0.9c0.3,0.4,0.5,0.9,0.5,1.4c0,2,0,15.7,0,17.6c0,0,0,0.1,0,0.1c-0.5,0-1,0-1.5,0c0-1.6,0-14.9,0-16.5
			c-5.3,0-10.6,0-15.9,0c0,8.3,0,16.6,0,25c5.3,0,10.6,0,15.9,0c0-1.5,0-8.3,0-9.8c0.5,0,1,0,1.5,0c0,0.1,0,5.6,0,5.7
			c0,2,0,3.9,0,5.9c0,1.2-0.6,2-1.7,2.3c-0.2,0.1-0.4,0.1-0.6,0.1c-4.7,0-9.5,0-14.2,0c-0.6,0-1.2-0.1-1.7-0.6
			c-0.3-0.3-0.5-0.6-0.6-1c0-0.1-0.1-0.2-0.1-0.3C0,21.1,0,11.5,0,1.9z M10.6,30.4c0-0.6-0.5-1.1-1.1-1.1c-0.6,0-1.1,0.5-1.1,1.1
			c0,0.6,0.5,1.1,1.1,1.1C10.1,31.5,10.6,31,10.6,30.4z M9.5,2.1C9.5,2.1,9.5,2.1,9.5,2.1c0.7,0,1.4,0,2.1,0c0.1,0,0.2,0,0.2,0
			C11.9,2,12,2,12,1.9c0-0.1-0.1-0.2-0.1-0.2c-0.1-0.1-0.2-0.1-0.3-0.1c-1.5,0-2.9,0-4.4,0c-0.1,0-0.2,0-0.2,0
			C7,1.7,6.9,1.8,6.9,1.9C6.9,1.9,7,2,7.1,2.1c0.1,0,0.2,0,0.3,0C8.1,2.1,8.8,2.1,9.5,2.1z"/>
	</g>
</g>
</svg>
