<?xml version="1.0" encoding="utf-8"?>
<!-- Generator: Adobe Illustrator 21.0.0, SVG Export Plug-In . SVG Version: 6.00 Build 0)  -->
<svg version="1.1" id="Слой_1" xmlns="http://www.w3.org/2000/svg" xmlns:xlink="http://www.w3.org/1999/xlink" x="0px" y="0px"
	 viewBox="0 0 31.5 32.6" enable-background="new 0 0 31.5 32.6" xml:space="preserve">
<g>
	<g>
		<path fill="#4D4D4D" d="M1.6,17.3c-0.5,0.1-1,0.1-1.5,0.2c0-0.2-0.1-0.5-0.1-0.7c-0.2-2.4,0-4.7,0.8-7C2,7,3.8,4.9,6.4,3.4
			c0.1-0.1,0.2-0.1,0.3-0.2c0,0,0,0,0,0c0-0.1-0.1-0.3-0.1-0.4C6.5,2.4,6.7,2,7.1,1.8c1.2-0.6,2.4-1,3.7-1.3
			c4.2-0.9,8.3-0.7,12.4,0.7c0.4,0.1,0.8,0.3,1.1,0.5c0.7,0.3,0.8,0.7,0.5,1.4c0.2,0.1,0.5,0.3,0.7,0.4c3.2,2.1,5.1,5,5.8,8.7
			c0.3,1.7,0.3,3.4,0.1,5.1c-0.5-0.1-1-0.1-1.5-0.2c0-0.5,0.1-1.1,0.1-1.6c0.1-2.8-0.4-5.4-2-7.8c-1.4-2-3.3-3.4-5.6-4.2
			c-2.4-0.9-5-1.2-7.6-1.1c-2.5,0.1-4.9,0.6-7.1,1.8c-3.4,1.9-5.4,4.7-6,8.6c-0.2,1.4-0.2,2.7,0,4.1C1.6,17.1,1.6,17.2,1.6,17.3z"/>
		<path fill="#4D4D4D" d="M6.5,30.7c-0.7,0.2-1.4,0.3-2.1,0.5c-0.2-0.9-0.4-1.7-0.6-2.6c-0.2,0.1-0.4,0.1-0.6,0.2
			c-0.5,0.1-1-0.2-1.2-0.7c-0.2-0.5-0.3-0.9-0.5-1.4c-0.1-0.3-0.1-0.7,0.2-1c0.1-0.1,0.1-0.2,0-0.3c-0.7-2.1-1.3-4.2-1.7-6.3
			c0-0.1,0-0.2,0-0.3c0.7-0.1,1.3-0.2,2-0.3c0.2,0.8,0.3,1.6,0.5,2.4c0.8-0.1,1.5-0.2,2.3-0.3c0.3,2.3,0.6,4.6,1.2,6.9
			c-0.1-0.6-0.2-1.1-0.2-1.7c-0.2-1.8-0.4-3.5-0.6-5.3c-0.1-0.7,0.4-1.3,1.1-1.4c0.7-0.1,1.3,0.3,1.5,0.9c0.1,0.3,0.1,0.7,0.1,1
			c0.3,3.3,0.8,6.6,1.5,9.9c0.1,0.7-0.3,1.4-1,1.6c-0.7,0.2-1.4-0.2-1.6-1C6.7,31.3,6.6,31,6.5,30.7z"/>
		<path fill="#4D4D4D" d="M27.7,28.6c-0.2,0.9-0.4,1.7-0.6,2.6c-0.7-0.2-1.4-0.3-2.1-0.5c-0.1,0.3-0.1,0.6-0.2,0.8
			c-0.2,0.7-0.8,1.2-1.5,1c-0.7-0.1-1.1-0.8-1-1.5c0.2-1.3,0.5-2.5,0.7-3.8c0.4-2.3,0.7-4.6,0.8-6.9c0.1-0.8,0.7-1.3,1.4-1.3
			c0.8,0.1,1.3,0.7,1.2,1.5c-0.2,1.9-0.4,3.7-0.6,5.6c0,0.4-0.1,0.8-0.2,1.2c0.5-2.3,0.9-4.5,1.1-6.9c0.8,0.1,1.5,0.2,2.3,0.3
			c0.2-0.8,0.3-1.6,0.5-2.4c0.7,0.1,1.3,0.2,2,0.3c-0.1,0.6-0.2,1.1-0.3,1.7c-0.4,1.7-0.8,3.3-1.4,5c0,0.1,0,0.2,0,0.3
			c0.2,0.3,0.3,0.6,0.2,0.9c-0.1,0.4-0.3,0.9-0.4,1.3C29.2,28.8,28.5,29,27.7,28.6C27.8,28.6,27.8,28.6,27.7,28.6z"/>
	</g>
</g>
</svg>
