<?xml version="1.0" encoding="UTF-8"?><!DOCTYPE svg PUBLIC "-//W3C//DTD SVG 1.1//EN" "http://www.w3.org/Graphics/SVG/1.1/DTD/svg11.dtd"><svg xmlns="http://www.w3.org/2000/svg"><symbol id="icon-angle-down" viewBox="0 0 137.1 80.4">
    <path d="M68.5 53.7L16.9 2.1C14.2-.6 9.7-.6 7 2.1l-5 5C-.7 9.8-.7 14.3 2 17l61.6 61.4c2.7 2.7 7.2 2.7 9.9 0L135 16.9c2.7-2.7 2.7-7.2 0-9.9l-5-5c-2.7-2.7-7.2-2.7-9.9 0L68.5 53.7z"/>
</symbol><symbol id="icon-arrow-left" viewBox="0 0 492 492">
    <path d="M464.344 207.418l.768.168H135.888l103.496-103.724c5.068-5.064 7.848-11.924 7.848-19.124 0-7.2-2.78-14.012-7.848-19.088L223.28 49.538c-5.064-5.064-11.812-7.864-19.008-7.864-7.2 0-13.952 2.78-19.016 7.844L7.844 226.914C2.76 231.998-.02 238.77 0 245.974c-.02 7.244 2.76 14.02 7.844 19.096l177.412 177.412c5.064 5.06 11.812 7.844 19.016 7.844 7.196 0 13.944-2.788 19.008-7.844l16.104-16.112c5.068-5.056 7.848-11.808 7.848-19.008 0-7.196-2.78-13.592-7.848-18.652L134.72 284.406h329.992c14.828 0 27.288-12.78 27.288-27.6v-22.788c0-14.82-12.828-26.6-27.656-26.6z"/>
</symbol><symbol id="icon-cart" viewBox="0 0 51.1 43.5">
    <g>
        <path d="M22.1 28.2c.3.9.7 1.8 1 2.7.2.6.5 1.3.7 1.9.1.3.2.4.5.4h18c.8 0 1.5.2 1.9.9s.5 1.4.1 2c-.4.7-.9 1.1-1.7 1.1h-20c-1 0-1.7-.5-2-1.5-2.5-6.8-5-13.7-7.6-20.5-1.3-3.5-2.5-6.9-3.8-10.4-.1-.2-.2-.2-.5-.2H2.6C1.7 4.6 1 4.2.7 3.4.3 2.6.4 1.9 1 1.2c.4-.5.9-.7 1.5-.7h8.1c.9 0 1.5.5 1.8 1.4.4 1.1.8 2.2 1.2 3.2.1.3.3.4.6.4h34.2c.8 0 1.5.2 1.9.9.3.5.4 1 .3 1.6-.9 3.7-1.9 7.4-2.8 11.1-.6 2.5-1.3 4.9-1.9 7.4-.3 1.1-1 1.7-2.2 1.7H22.1zm7-13.6c-.1-.1-.2-.1-.2-.2-.9-.6-2-.5-2.7.2-.7.8-.7 2 0 2.8l3.6 3.6c.8.7 2 .7 2.8 0 1.2-1.2 2.4-2.3 3.5-3.5.8-.8.8-1.9.1-2.7s-1.8-.9-2.7-.3c-.1 0-.1.1-.3.2v-.4-3c-.2-1.7-2-2.5-3.2-1.7-.6.4-.9 1-.9 1.7v3.3z"/>
        <path d="M27.7 40.4c0 1.4-1.2 2.6-2.6 2.6s-2.6-1.2-2.6-2.6c0-1.4 1.2-2.6 2.6-2.6 1.4 0 2.6 1.2 2.6 2.6z"/>
        <path d="M38.7 37.8c1.5 0 2.6 1.2 2.6 2.6 0 1.4-1.2 2.6-2.6 2.6-1.4 0-2.6-1.2-2.6-2.7 0-1.3 1.2-2.5 2.6-2.5z"/>
    </g>
</symbol><symbol id="icon-close" viewBox="0 0 21.9 21.9">
    <path d="M14.1 11.3c-.2-.2-.2-.5 0-.7l7.5-7.5c.2-.2.3-.5.3-.7s-.1-.5-.3-.7L20.2.3c-.2-.2-.5-.3-.7-.3-.3 0-.5.1-.7.3l-7.5 7.5c-.2.2-.5.2-.7 0L3.1.3C2.9.1 2.6 0 2.4 0s-.5.1-.7.3L.3 1.7c-.2.2-.3.5-.3.7s.1.5.3.7l7.5 7.5c.2.2.2.5 0 .7L.3 18.8c-.2.2-.3.5-.3.7s.1.5.3.7l1.4 1.4c.2.2.5.3.7.3s.5-.1.7-.3l7.5-7.5c.2-.2.5-.2.7 0l7.5 7.5c.2.2.5.3.7.3s.5-.1.7-.3l1.4-1.4c.2-.2.3-.5.3-.7s-.1-.5-.3-.7l-7.5-7.5z"/>
</symbol><symbol id="icon-cloud" viewBox="0 0 43 53.8">
    <g>
        <path d="M21.5 27.7H9.4c-2 0-3.8-.7-5.4-1.9-1.5-1.1-2.5-2.6-3.1-4.3-.3-1.1-.5-2.1-.4-3.2.1-1.8.7-3.3 1.8-4.7.7-.9 1.6-1.6 2.6-2.3.1 0 .1-.1.1-.2 0-1.4.5-2.6 1.3-3.7.9-1.1 2-1.8 3.3-2.1.5-.1 1-.2 1.5-.2h.3c.2.1.3 0 .4-.1.9-1 2-1.9 3.2-2.6 1.3-.8 2.6-1.3 4.1-1.6 1.1-.2 2.2-.3 3.4-.2 1.2.1 2.5.4 3.7.9 1.3.5 2.6 1.2 3.7 2.1 1.5 1.3 2.8 2.8 3.6 4.6.2.5.4.9.6 1.4 0 .1.1.1.2.1 1.9.2 3.7.9 5.1 2.1 1.6 1.3 2.6 3 3 5 .2.9.2 1.8.1 2.6-.2 1.8-.8 3.4-2 4.8-1.1 1.4-2.5 2.3-4.2 2.9-.9.3-1.8.4-2.7.4-4 .2-8.1.2-12.1.2zm0-3h12c.3 0 .7 0 1-.1 1.5-.2 2.7-.9 3.6-2.1 1.3-1.6 1.7-3.4 1.2-5.4-.6-2.3-2.1-3.8-4.5-4.4-.4-.1-.9-.1-1.3-.2-.5 0-1 .1-1.5.1-.1 0-.1 0-.1-.1 0-.2-.1-.4-.1-.6-.4-1.8-1.2-3.4-2.3-4.8-.8-1-1.8-1.8-3-2.4-1.3-.7-2.7-1.1-4.2-1.2-.9-.1-1.8 0-2.7.1-1.3.2-2.5.7-3.6 1.3-.9.5-1.6 1.1-2.3 1.9-.4.4-.7.9-1.1 1.3-.1.1-.2.2-.3.1-.2-.1-.3-.1-.5-.1-.5-.1-.9-.2-1.4-.1-1 .3-1.8.9-2.2 2-.2.4-.3.8-.2 1.3.1.4.1.8.2 1.3 0 .1 0 .1-.1.2-.2.1-.5.2-.7.3-1 .4-1.9 1-2.6 1.9-1.1 1.4-1.5 2.9-1.2 4.6.1 1 .6 2 1.2 2.8 1.2 1.5 2.8 2.3 4.7 2.3h12z"/>
        <path d="M27.6 20.2c0 .6-.3 1.1-.9 1.3-.6.3-1.1.2-1.6-.2s-1.2-.7-1.8-.9c-.8-.2-1.7-.3-2.5-.2-1 .1-1.9.4-2.7 1.1-.3.3-.7.4-1.1.4-.6 0-1.2-.4-1.3-1-.2-.6 0-1.3.4-1.6 1-.8 2.2-1.3 3.5-1.7.8-.2 1.6-.3 2.5-.2 1.1.1 2.2.3 3.2.8.7.3 1.3.6 1.9 1.1.2.3.4.6.4 1.1z"/>
        <path d="M17 11.1c.8 0 1.5.7 1.5 1.5s-.7 1.5-1.5 1.5-1.5-.7-1.5-1.5.7-1.5 1.5-1.5z"/>
        <ellipse transform="matrix(.00419 -1 1 .00419 13.217 38.587)" cx="26" cy="12.7" rx="1.5" ry="1.5"/>
    </g>
    <path d="M28.9 31.3l-10.4 8.9h9L17 53.3"/>
</symbol><symbol id="icon-information" viewBox="0 0 330 330">
    <path d="M165 0C74.019 0 0 74.02 0 165.001 0 255.982 74.019 330 165 330s165-74.018 165-164.999S255.981 0 165 0zm0 300c-74.44 0-135-60.56-135-134.999S90.56 30 165 30s135 60.562 135 135.001C300 239.44 239.439 300 165 300z"/>
    <path d="M164.998 70c-11.026 0-19.996 8.976-19.996 20.009 0 11.023 8.97 19.991 19.996 19.991 11.026 0 19.996-8.968 19.996-19.991 0-11.033-8.97-20.009-19.996-20.009z"/>
    <path d="M165 140c-8.284 0-15 6.716-15 15v90c0 8.284 6.716 15 15 15 8.284 0 15-6.716 15-15v-90c0-8.284-6.716-15-15-15z"/>
</symbol><symbol id="icon-magic-cart" viewBox="0 0 100 110">
    <style>
        .st0{fill:#0089ca}
    </style>
    <path class="st0" d="M71.2 54.9h-2.8l-.1-2.5L58 49.1l-.4-.1-.2.3-2.5 3.8v1.7h-1.4l-.5-2.3c-.1-.8-.4-1.4-.9-1.9-.6-.6-1.3-.9-2-.8l-9.2 1.5c-1.3.2-2.2 1.7-1.9 3.5v.2h-1.3l-2.8-7.3H23.7l-.1.3-1.2 4.4.8 2.6h-2.3c-.5 0-.7-.2-.9-.6l-1.8-4.8c-.5-1.2-1.4-2-2.7-2-4-.1-8 0-11.9 0-.9 0-1.6.4-2.2 1.1-.8 1-.9 2.1-.4 3.2.5 1.2 1.5 1.7 2.8 1.7h9c.4 0 .6.1.8.5 1.9 5.1 3.7 10.2 5.6 15.3 3.7 10.1 7.4 20.1 11.1 30.2.6 1.5 1.5 2.2 3 2.2h29.4c1.2 0 2-.6 2.6-1.6.5-1 .5-2-.1-3s-1.6-1.4-2.8-1.4H35.9c-.5 0-.6-.1-.8-.6-.3-1-.7-1.9-1.1-2.9-.5-1.3-.9-2.6-1.4-3.9h31.7c1.7 0 2.8-.8 3.2-2.5.9-3.6 1.9-7.3 2.8-10.9 1.4-5.4 2.8-10.9 4.2-16.3.2-.8.1-1.7-.4-2.4-.8-1.1-1.7-1.4-2.9-1.4zm-30-1.6l9.2-1.5c.1 0 .4.4.5 1l.3 2.1H41.1l-.1-.5c-.1-.7.1-1.1.2-1.1zm-16.7-4.7h9.2l-1.6 3.7h-8.4l.8-3.7zm-.2 6.3l-.5-1.5h8.3l.6 1.5h-8.4zm9.5 0l-.8-2 1.5-3.4 2.1 5.4h-2.8zM53 72.4c-1.7 1.7-3.4 3.5-5.2 5.2-1.1 1.1-2.9 1.1-4.1 0-1.8-1.7-3.6-3.5-5.3-5.3-1.1-1.2-1.1-2.9 0-4.1 1-1.1 2.7-1.3 4-.3.1.1.2.1.3.3v-4.8c0-1.1.5-1.9 1.3-2.5 1.9-1.3 4.5 0 4.6 2.2.1 1.5 0 2.9 0 4.4v.6c.2-.1.3-.2.4-.3 1.3-.9 3-.7 4 .5 1.2 1.2 1.2 2.9 0 4.1zm2.8-17.5v-.3l.9.3h-.9zm4.4 0l-4.1-1.3 1.9-3.3 8.8 2.8-1.6 1.8h-5zm6.4 0l.7-.8v.8h-.7z"/>
    <path class="st0" d="M36.9 102.3c-2.1 0-3.9 1.8-3.9 3.9s1.8 3.8 3.8 3.8c2.1 0 3.9-1.8 3.9-3.9.1-2-1.7-3.8-3.8-3.8z"/>
    <path class="st0" d="M57 102.3c-2.1 0-3.9 1.7-3.9 3.7 0 2.2 1.7 3.9 3.8 3.9s3.9-1.8 3.9-3.8c.1-2.1-1.6-3.8-3.8-3.8z"/>
    <path class="st0" d="M54.8 24.3c1.5-.8 2.4-1.8 3.3-2.7.8-.8 1.5-1.1 2.5-.3.8.6 1.8 1 2.7 1.5.3.1.6.5.9.1.3-.4-.1-.6-.3-.9-.6-.7-1.3-1.5-2-2.1-.9-.8-1.1-1.5-.4-2.6.7-1.1 1.5-2.1 1.8-3.8-1.5.7-2.4 1.7-3.3 2.6-1 1-1.8 1-2.8.2-.8-.6-1.7-1-2.5-1.5-.3-.2-.7-.4-.9 0-.2.2.1.5.3.7.8.8 1.5 1.8 2.3 2.5.7.7.8 1.2.3 2.1-.5 1.3-1.4 2.5-1.9 4.2z"/>
    <path class="st0" d="M62.1 6.1c.2-.6-.2-.8-.6-1.1-1.3-.7-1.5-1.7-.6-3 .2-.3.6-.8.1-1.2-.4-.4-.9 0-1.2.2-1.2 1.1-2.2.8-3.1-.4-.2-.3-.5-.8-1.1-.5-.5.3-.3.7-.2 1.1.6 1.5.2 2.5-1.4 3-.4.1-.8.3-.7.8.1.6.5.6.9.5 1.8-.2 2.6.7 2.5 2.5 0 .3.2.7.6.8.4.1.6-.2.7-.6.4-1.8 1.5-2.4 3.2-1.8.3.2.7.1.9-.3z"/>
    <path class="st0" d="M74.3 6.6c-1.1-1.1-1.6-2-.3-3.6-1.6.7-2.7 1.5-3.6-.2 0 1.3.2 2.5-1.7 3 1.5.4 2.6.7 2.6 2.7.9-1.4 1.3-2.7 3-1.9z"/>
    <path class="st0" d="M63.9 10.9l31.2 30.9c.8.8 2.3.6 3.3-.4s1.2-2.5.4-3.3L67.5 7.2c-.8-.8-2.3-.6-3.3.4-1 1.1-1.2 2.6-.3 3.3zM67.4 9l1.4 1.3c.4.4.3 1.1-.2 1.6s-1.2.6-1.6.2l-1.4-1.3c-.4-.4-.3-1.1.2-1.6s1.2-.6 1.6-.2z"/>
    <path class="st0" d="M34.3 33.8c1.2-.6 1.8-1.3 2.5-2 .6-.6 1.1-.8 1.9-.2.6.5 1.3.8 2 1.1.2.1.4.4.7.1.2-.3 0-.5-.2-.7-.5-.6-.9-1.1-1.5-1.6-.6-.6-.8-1.2-.3-2s1.1-1.6 1.4-2.9c-1.1.5-1.8 1.3-2.4 2-.7.7-1.3.7-2.1.2-.6-.4-1.3-.7-1.9-1.1-.2-.1-.5-.3-.7 0-.1.2 0 .4.2.5.6.6 1.1 1.3 1.7 1.9.5.5.6.9.2 1.6-.5.9-1.1 1.8-1.5 3.1z"/>
    <path class="st0" d="M58.2 41.4c-1.6-1.6-2.5-2.9-.4-5.4-2.4 1-4 2.2-5.4-.3-.1 2 .2 3.8-2.5 4.5 2.2.7 3.9 1.1 3.9 4 1.1-2.1 1.7-4.1 4.4-2.8z"/>
</symbol><symbol id="icon-magic" viewBox="0 0 29.5 55.8">
    <g>
        <path d="M.3 19.8c1.6.2 2.8-.3 4-.5 1-.2 1.7-.2 2.2 1 .3.9.9 1.7 1.4 2.6.2.3.2.7.7.6.4-.1.3-.5.2-.8-.1-.9-.3-1.8-.5-2.7-.3-1.1-.1-1.8 1-2.3s2.3-1 3.4-2.2c-1.5-.2-2.8.2-3.9.5-1.3.3-1.9-.1-2.4-1.2-.4-1.1-1-1.8-1.4-2.7-.2-.3-.3-.6-.7-.5-.3.1-.2.4-.2.7.2 1.1.3 2.2.6 3.2.2.9 0 1.4-.8 1.8-1.1.8-2.4 1.3-3.6 2.5z"/>
        <path d="M15.2 8.6c.4-.4.2-.8 0-1.2-.7-1.3-.4-2.2 1-2.8.4-.2.9-.4.7-.9-.2-.5-.7-.5-1.1-.4-1.5.3-2.1-.5-2.3-1.9 0-.4 0-.9-.7-.9-.6 0-.6.4-.7.8-.2 1.4-1 2.1-2.6 1.7-.4-.1-.8-.1-1 .3-.2.5.1.7.5.9 1.5.8 1.7 1.9.9 3.3-.2.2-.3.6 0 .9.3.2.6.1.9-.1C12 7 13.1 7 14.3 8.4c.2.2.5.3.9.2z"/>
        <path d="M24.9 15c-.4-1.4-.4-2.4 1.6-3-1.7-.2-2.9-.1-2.8-1.9-.7 1.1-1.1 2.1-2.8 1.6 1 1.1 1.8 1.9.8 3.5 1.2-.9 2.1-1.8 3.2-.2z"/>
        <path d="M14.2 13.3l10.2 40.6c.3 1 1.6 1.6 2.9 1.3s2.2-1.5 1.9-2.5L19 12.1c-.3-1-1.6-1.6-2.9-1.3-1.3.4-2.1 1.5-1.9 2.5zm3.8.2l.4 1.8c.1.5-.3 1-.9 1.2s-1.3-.1-1.4-.6l-.4-1.9c-.1-.5.3-1 .9-1.2.7-.1 1.3.2 1.4.7z"/>
    </g>
</symbol><symbol id="icon-mobile" viewBox="0 0 17.8 32.6">
    <g>
        <path d="M15.3 0H2.5C1.1 0 0 1.1 0 2.6V30c0 1.4 1.1 2.6 2.5 2.6h12.9c1.4 0 2.5-1.1 2.5-2.6V2.6C17.8 1.1 16.7 0 15.3 0zM2.5.8h12.9c.9 0 1.7.8 1.7 1.8v1.6H.8V2.6c0-1 .7-1.8 1.7-1.8zm14.6 4.1v21.4H.8V4.9h16.3zm-1.8 26.9H2.5C1.6 31.8.8 31 .8 30v-3h16.3v3c0 1-.8 1.8-1.8 1.8z"/>
        <path d="M9.3 31.1c-1 0-1.7-.8-1.7-1.7 0-1 .8-1.7 1.7-1.7 1 0 1.7.8 1.7 1.7 0 .9-.8 1.7-1.7 1.7zm0-2.8c-.5 0-1 .4-1 1 0 .5.4 1 1 1s1-.4 1-1c0-.5-.5-1-1-1z"/>
        <path d="M9.7 3.3H8.1c-.5 0-.9-.4-.9-.8s.4-.8.9-.8h1.6c.5 0 .9.4.9.8s-.4.8-.9.8zm-1.6-.9c-.1 0-.2.1-.2.1h1.8c.1 0 .2-.1.2-.1H8.1z"/>
        <path d="M4.8 3.3c-.4 0-.8-.4-.8-.8s.4-.8.8-.8.9.3.9.8-.4.8-.9.8zm0-.9s-.1 0 0 0c-.1.1.1.1 0 0 .1 0 .1 0 0 0z"/>
    </g>
</symbol><symbol id="icon-next" viewBox="0 0 129 129">
    <path d="M40.4 121.3c-.8.8-1.8 1.2-2.9 1.2s-2.1-.4-2.9-1.2c-1.6-1.6-1.6-4.2 0-5.8l51-51-51-51c-1.6-1.6-1.6-4.2 0-5.8 1.6-1.6 4.2-1.6 5.8 0l53.9 53.9c1.6 1.6 1.6 4.2 0 5.8l-53.9 53.9z"/>
</symbol><symbol id="icon-prev" viewBox="0 0 129 129">
    <path d="M88.6 121.3c.8.8 1.8 1.2 2.9 1.2s2.1-.4 2.9-1.2c1.6-1.6 1.6-4.2 0-5.8l-51-51 51-51c1.6-1.6 1.6-4.2 0-5.8s-4.2-1.6-5.8 0l-54 53.9c-1.6 1.6-1.6 4.2 0 5.8l54 53.9z"/>
</symbol><symbol id="icon-settings" viewBox="0 0 45.4 45.4">
    <path d="M43.3 14.3c.3 2-.6 2.5-1.3 3.2-3.7 3.2-3.6 7 .1 10.1 1.5 1.3 2 2.5.8 4.2-.8 1.3-1.6 2.6-2.3 3.9-1 2.1-2.4 2.1-4.4 1.4-4.2-1.6-7.8.3-8.4 4.6-.7 5.3-4.7 2.9-7.4 3.3-2.9.5-4.1-1.3-4.4-3.9-.5-3.5-4-5.8-7.1-4.3-3.2 1.6-4.6.3-5.9-2.4-1.2-2.5-4-4.8.3-7.4 3-1.9 3-6.9 0-8.8-3.3-2.1-2.5-4.1-.8-6.6C4 9.4 4.6 5.9 8.9 8.2c3.1 1.7 7.5-.9 7.7-4.4C16.8.7 18.2-.1 21 .1c1.1.1 2.3.1 3.4 0 2-.1 2.9.6 3.3 2.7 1 5.1 3.9 6.7 8.6 4.8 1.1-.4 1.9-.5 2.8.2 2.3 1.9 3 4.8 4.2 6.5zm-12 8.4c.1-5.1-3.8-9.2-8.9-9.4-5.1-.2-9.5 4.1-9.5 9.2s4 9.1 9.1 9.1c5.3.1 9.3-3.7 9.3-8.9z"/>
</symbol><symbol id="icon-sound" viewBox="0 0 36.2 32.6">
    <g>
        <path d="M33.6 17.2c-.1 1-.3 2.2-.4 3.4 0 .2 0 .4.2.6.5.5.6 1.1.4 1.7-.8 2.8-1.7 5.6-2.6 8.4-.3 1-1.3 1.5-2.2 1.2-.9-.3-1.4-1.2-1.1-2.2.8-2.8 1.7-5.6 2.5-8.4.2-.6.6-1 1.2-1.2.1 0 .3-.2.3-.3 1.2-6-.9-12.9-6.3-16.7C20.2-.2 12.9.6 8.2 5.7c-2.5 2.7-3.9 6-4.3 9.7-.2 1.7-.1 3.3.2 5 0 .2.1.3.3.4.7.1 1.1.6 1.3 1.2.9 2.8 1.7 5.6 2.5 8.4.3 1-.2 1.9-1.1 2.2-.9.3-1.9-.2-2.2-1.2-.9-2.8-1.7-5.6-2.6-8.4-.2-.6-.1-1.2.4-1.7.2-.2.2-.3.1-.5-1-6.4.5-12 5-16.5C10.7 1.4 14.2-.1 18.4 0c4.1.1 7.6 1.8 10.4 4.7 2.6 2.7 4 5.9 4.6 9.6.1 1 .1 1.9.2 2.9z"/>
        <path d="M0 24.5c0-.5.3-.8.7-.9.4-.1.8.2.9.6.2.8.5 1.6.7 2.4.4 1.3.8 2.7 1.2 4 0 .2.1.3.1.5 0 .4-.3.6-.7.7-.4 0-.7-.2-.9-.6-.5-1.5-.9-3-1.4-4.4-.2-.6-.4-1.3-.6-1.9v-.4z"/>
        <path d="M36.2 24.5c0 .1 0 .2-.1.3-.6 2.1-1.3 4.2-1.9 6.3-.1.5-.4.7-.8.7-.5 0-.9-.5-.7-1.1.4-1.5.9-2.9 1.3-4.4.2-.7.4-1.4.7-2.2.1-.4.5-.7.9-.6.3.2.6.5.6 1z"/>
    </g>
</symbol><symbol id="icon-warning" viewBox="0 0 486.463 486.463">
    <path d="M243.225 333.382c-13.6 0-25 11.4-25 25s11.4 25 25 25c13.1 0 25-11.4 24.4-24.4.6-14.3-10.7-25.6-24.4-25.6z"/>
    <path d="M474.625 421.982c15.7-27.1 15.8-59.4.2-86.4l-156.6-271.2c-15.5-27.3-43.5-43.5-74.9-43.5s-59.4 16.3-74.9 43.4l-156.8 271.5c-15.6 27.3-15.5 59.8.3 86.9 15.6 26.8 43.5 42.9 74.7 42.9h312.8c31.3 0 59.4-16.3 75.2-43.6zm-34-19.6c-8.7 15-24.1 23.9-41.3 23.9h-312.8c-17 0-32.3-8.7-40.8-23.4-8.6-14.9-8.7-32.7-.1-47.7l156.8-271.4c8.5-14.9 23.7-23.7 40.9-23.7 17.1 0 32.4 8.9 40.9 23.8l156.7 271.4c8.4 14.6 8.3 32.2-.3 47.1z"/>
    <path d="M237.025 157.882c-11.9 3.4-19.3 14.2-19.3 27.3.6 7.9 1.1 15.9 1.7 23.8 1.7 30.1 3.4 59.6 5.1 89.7.6 10.2 8.5 17.6 18.7 17.6s18.2-7.9 18.7-18.2c0-6.2 0-11.9.6-18.2 1.1-19.3 2.3-38.6 3.4-57.9.6-12.5 1.7-25 2.3-37.5 0-4.5-.6-8.5-2.3-12.5-5.1-11.2-17-16.9-28.9-14.1z"/>
</symbol></svg>