<?xml version="1.0" encoding="UTF-8"?><!DOCTYPE svg PUBLIC "-//W3C//DTD SVG 1.1//EN" "http://www.w3.org/Graphics/SVG/1.1/DTD/svg11.dtd"><svg xmlns="http://www.w3.org/2000/svg"><symbol id="icon-angle-down" viewBox="0 0 137.1 80.4">
    <path d="M68.5 53.7L16.9 2.1C14.2-.6 9.7-.6 7 2.1l-5 5C-.7 9.8-.7 14.3 2 17l61.6 61.4c2.7 2.7 7.2 2.7 9.9 0L135 16.9c2.7-2.7 2.7-7.2 0-9.9l-5-5c-2.7-2.7-7.2-2.7-9.9 0L68.5 53.7z"/>
</symbol><symbol id="icon-angle-left" viewBox="0 0 80.5 137.1">
    <path d="M26.8 68.5l51.6-51.6c2.7-2.7 2.7-7.2 0-9.9l-5-5c-2.7-2.7-7.2-2.7-9.9 0L2.1 63.6c-2.7 2.7-2.7 7.2 0 9.9L63.6 135c2.7 2.7 7.2 2.7 9.9 0l5-5c2.7-2.7 2.7-7.2 0-9.9L26.8 68.5z"/>
</symbol><symbol id="icon-arrow-left" viewBox="0 0 492 492">
    <path d="M464.344 207.418l.768.168H135.888l103.496-103.724c5.068-5.064 7.848-11.924 7.848-19.124 0-7.2-2.78-14.012-7.848-19.088L223.28 49.538c-5.064-5.064-11.812-7.864-19.008-7.864-7.2 0-13.952 2.78-19.016 7.844L7.844 226.914C2.76 231.998-.02 238.77 0 245.974c-.02 7.244 2.76 14.02 7.844 19.096l177.412 177.412c5.064 5.06 11.812 7.844 19.016 7.844 7.196 0 13.944-2.788 19.008-7.844l16.104-16.112c5.068-5.056 7.848-11.808 7.848-19.008 0-7.196-2.78-13.592-7.848-18.652L134.72 284.406h329.992c14.828 0 27.288-12.78 27.288-27.6v-22.788c0-14.82-12.828-26.6-27.656-26.6z"/>
</symbol><symbol id="icon-cart" viewBox="0 0 51.1 43.5">
    <g>
        <path d="M22.1 28.2c.3.9.7 1.8 1 2.7.2.6.5 1.3.7 1.9.1.3.2.4.5.4h18c.8 0 1.5.2 1.9.9s.5 1.4.1 2c-.4.7-.9 1.1-1.7 1.1h-20c-1 0-1.7-.5-2-1.5-2.5-6.8-5-13.7-7.6-20.5-1.3-3.5-2.5-6.9-3.8-10.4-.1-.2-.2-.2-.5-.2H2.6C1.7 4.6 1 4.2.7 3.4.3 2.6.4 1.9 1 1.2c.4-.5.9-.7 1.5-.7h8.1c.9 0 1.5.5 1.8 1.4.4 1.1.8 2.2 1.2 3.2.1.3.3.4.6.4h34.2c.8 0 1.5.2 1.9.9.3.5.4 1 .3 1.6-.9 3.7-1.9 7.4-2.8 11.1-.6 2.5-1.3 4.9-1.9 7.4-.3 1.1-1 1.7-2.2 1.7H22.1zm7-13.6c-.1-.1-.2-.1-.2-.2-.9-.6-2-.5-2.7.2-.7.8-.7 2 0 2.8l3.6 3.6c.8.7 2 .7 2.8 0 1.2-1.2 2.4-2.3 3.5-3.5.8-.8.8-1.9.1-2.7s-1.8-.9-2.7-.3c-.1 0-.1.1-.3.2v-.4-3c-.2-1.7-2-2.5-3.2-1.7-.6.4-.9 1-.9 1.7v3.3z"/>
        <path d="M27.7 40.4c0 1.4-1.2 2.6-2.6 2.6s-2.6-1.2-2.6-2.6c0-1.4 1.2-2.6 2.6-2.6 1.4 0 2.6 1.2 2.6 2.6z"/>
        <path d="M38.7 37.8c1.5 0 2.6 1.2 2.6 2.6 0 1.4-1.2 2.6-2.6 2.6-1.4 0-2.6-1.2-2.6-2.7 0-1.3 1.2-2.5 2.6-2.5z"/>
    </g>
</symbol><symbol id="icon-close" viewBox="0 0 21.9 21.9">
    <path d="M14.1 11.3c-.2-.2-.2-.5 0-.7l7.5-7.5c.2-.2.3-.5.3-.7s-.1-.5-.3-.7L20.2.3c-.2-.2-.5-.3-.7-.3-.3 0-.5.1-.7.3l-7.5 7.5c-.2.2-.5.2-.7 0L3.1.3C2.9.1 2.6 0 2.4 0s-.5.1-.7.3L.3 1.7c-.2.2-.3.5-.3.7s.1.5.3.7l7.5 7.5c.2.2.2.5 0 .7L.3 18.8c-.2.2-.3.5-.3.7s.1.5.3.7l1.4 1.4c.2.2.5.3.7.3s.5-.1.7-.3l7.5-7.5c.2-.2.5-.2.7 0l7.5 7.5c.2.2.5.3.7.3s.5-.1.7-.3l1.4-1.4c.2-.2.3-.5.3-.7s-.1-.5-.3-.7l-7.5-7.5z"/>
</symbol><symbol id="icon-cloud" viewBox="0 0 43 53.8">
    <g>
        <path d="M21.5 27.7H9.4c-2 0-3.8-.7-5.4-1.9-1.5-1.1-2.5-2.6-3.1-4.3-.3-1.1-.5-2.1-.4-3.2.1-1.8.7-3.3 1.8-4.7.7-.9 1.6-1.6 2.6-2.3.1 0 .1-.1.1-.2 0-1.4.5-2.6 1.3-3.7.9-1.1 2-1.8 3.3-2.1.5-.1 1-.2 1.5-.2h.3c.2.1.3 0 .4-.1.9-1 2-1.9 3.2-2.6 1.3-.8 2.6-1.3 4.1-1.6 1.1-.2 2.2-.3 3.4-.2 1.2.1 2.5.4 3.7.9 1.3.5 2.6 1.2 3.7 2.1 1.5 1.3 2.8 2.8 3.6 4.6.2.5.4.9.6 1.4 0 .1.1.1.2.1 1.9.2 3.7.9 5.1 2.1 1.6 1.3 2.6 3 3 5 .2.9.2 1.8.1 2.6-.2 1.8-.8 3.4-2 4.8-1.1 1.4-2.5 2.3-4.2 2.9-.9.3-1.8.4-2.7.4-4 .2-8.1.2-12.1.2zm0-3h12c.3 0 .7 0 1-.1 1.5-.2 2.7-.9 3.6-2.1 1.3-1.6 1.7-3.4 1.2-5.4-.6-2.3-2.1-3.8-4.5-4.4-.4-.1-.9-.1-1.3-.2-.5 0-1 .1-1.5.1-.1 0-.1 0-.1-.1 0-.2-.1-.4-.1-.6-.4-1.8-1.2-3.4-2.3-4.8-.8-1-1.8-1.8-3-2.4-1.3-.7-2.7-1.1-4.2-1.2-.9-.1-1.8 0-2.7.1-1.3.2-2.5.7-3.6 1.3-.9.5-1.6 1.1-2.3 1.9-.4.4-.7.9-1.1 1.3-.1.1-.2.2-.3.1-.2-.1-.3-.1-.5-.1-.5-.1-.9-.2-1.4-.1-1 .3-1.8.9-2.2 2-.2.4-.3.8-.2 1.3.1.4.1.8.2 1.3 0 .1 0 .1-.1.2-.2.1-.5.2-.7.3-1 .4-1.9 1-2.6 1.9-1.1 1.4-1.5 2.9-1.2 4.6.1 1 .6 2 1.2 2.8 1.2 1.5 2.8 2.3 4.7 2.3h12z"/>
        <path d="M27.6 20.2c0 .6-.3 1.1-.9 1.3-.6.3-1.1.2-1.6-.2s-1.2-.7-1.8-.9c-.8-.2-1.7-.3-2.5-.2-1 .1-1.9.4-2.7 1.1-.3.3-.7.4-1.1.4-.6 0-1.2-.4-1.3-1-.2-.6 0-1.3.4-1.6 1-.8 2.2-1.3 3.5-1.7.8-.2 1.6-.3 2.5-.2 1.1.1 2.2.3 3.2.8.7.3 1.3.6 1.9 1.1.2.3.4.6.4 1.1z"/>
        <path d="M17 11.1c.8 0 1.5.7 1.5 1.5s-.7 1.5-1.5 1.5-1.5-.7-1.5-1.5.7-1.5 1.5-1.5z"/>
        <ellipse transform="matrix(.00419 -1 1 .00419 13.217 38.587)" cx="26" cy="12.7" rx="1.5" ry="1.5"/>
    </g>
    <path d="M28.9 31.3l-10.4 8.9h9L17 53.3"/>
</symbol><symbol id="icon-gear-option" viewBox="0 0 369.793 369.792">
    <path d="M320.83 140.434l-1.759-.627-6.87-16.399.745-1.685c20.812-47.201 19.377-48.609 15.925-52.031L301.11 42.61c-1.135-1.126-3.128-1.918-4.846-1.918-1.562 0-6.293 0-47.294 18.57l-1.644.738-16.916-6.812-.679-1.684C210.45 3.762 208.475 3.762 203.677 3.762h-39.205c-4.78 0-6.957 0-24.836 47.825l-.673 1.741-16.828 6.86-1.609-.669c-27.752-11.7-43.956-17.633-48.18-17.633-1.714 0-3.714.769-4.854 1.892l-27.787 27.16c-3.525 3.477-4.987 4.933 16.915 51.149l.805 1.714-6.881 16.381-1.684.651C0 159.715 0 161.556 0 166.474v38.418c0 4.931 0 6.979 48.957 24.524l1.75.618 6.882 16.333-.739 1.669c-20.812 47.223-19.492 48.501-15.949 52.025L68.62 327.18c1.162 1.117 3.173 1.915 4.888 1.915 1.552 0 6.272 0 47.3-18.561l1.643-.769 16.927 6.846.658 1.693c19.293 47.726 21.275 47.726 26.076 47.726h39.217c4.924 0 6.966 0 24.859-47.857l.667-1.742 16.855-6.814 1.604.654c27.729 11.733 43.925 17.654 48.122 17.654 1.699 0 3.717-.745 4.876-1.893l27.832-27.219c3.501-3.495 4.96-4.924-16.981-51.096l-.816-1.734 6.869-16.31 1.64-.643c48.938-18.981 48.938-20.831 48.938-25.755V164.88c-.001-4.93-.001-6.966-48.964-24.446zM184.896 247.203c-35.038 0-63.542-27.959-63.542-62.3 0-34.342 28.505-62.264 63.542-62.264 35.023 0 63.522 27.928 63.522 62.264.001 34.335-28.498 62.3-63.522 62.3z"/>
</symbol><symbol id="icon-home" viewBox="0 0 460.3 366.3">
    <path d="M230.1 73.9L66 209.3c0 .2 0 .5-.1.9s-.1.7-.1.9v137c0 4.9 1.8 9.2 5.4 12.8 3.6 3.6 7.9 5.4 12.8 5.4h109.6V256.7h73.1v109.6h109.6c4.9 0 9.2-1.8 12.8-5.4 3.6-3.6 5.4-7.9 5.4-12.8V211c0-.8-.1-1.3-.3-1.7L230.1 73.9z"/>
    <path d="M457.1 178.4l-62.5-52V10c0-2.7-.9-4.9-2.6-6.6-1.7-1.7-3.9-2.6-6.6-2.6h-54.8c-2.7 0-4.9.9-6.6 2.6-1.7 1.7-2.6 3.9-2.6 6.6v55.7L251.8 7.4c-6-4.9-13.3-7.4-21.6-7.4-8.4 0-15.6 2.5-21.7 7.4L3.2 178.4c-1.9 1.6-3 3.6-3.2 6.2-.2 2.6.5 4.8 2 6.7l17.7 21.1c1.5 1.7 3.5 2.8 6 3.1 2.3.2 4.6-.5 6.9-2L230.1 48.8l197.6 164.7c1.5 1.3 3.5 2 6 2h.9c2.5-.4 4.5-1.4 6-3.1l17.7-21.1c1.5-1.9 2.2-4.1 2-6.7-.2-2.6-1.3-4.6-3.2-6.2z"/>
</symbol><symbol id="icon-information" viewBox="0 0 330 330">
    <path d="M165 0C74.019 0 0 74.02 0 165.001 0 255.982 74.019 330 165 330s165-74.018 165-164.999S255.981 0 165 0zm0 300c-74.44 0-135-60.56-135-134.999S90.56 30 165 30s135 60.562 135 135.001C300 239.44 239.439 300 165 300z"/>
    <path d="M164.998 70c-11.026 0-19.996 8.976-19.996 20.009 0 11.023 8.97 19.991 19.996 19.991 11.026 0 19.996-8.968 19.996-19.991 0-11.033-8.97-20.009-19.996-20.009z"/>
    <path d="M165 140c-8.284 0-15 6.716-15 15v90c0 8.284 6.716 15 15 15 8.284 0 15-6.716 15-15v-90c0-8.284-6.716-15-15-15z"/>
</symbol><symbol id="icon-logout-mark" viewBox="0 0 292.3 292.3">
    <style>
        .st0{fill:#010002}
    </style>
    <path class="st0" d="M201.5 139.8c-.8-2-2-3.7-3.5-5.2l-59.3-59.3c-3.1-3.1-7.2-4.8-11.5-4.8-4.4 0-8.5 1.7-11.5 4.8-6.4 6.4-6.4 16.7 0 23.1l31.4 31.4c-49 0-98 0-147 .1v32.6h147L115.7 194c-6.4 6.4-6.4 16.7 0 23.1 3.1 3.1 7.2 4.8 11.5 4.8s8.5-1.7 11.5-4.8l59.4-59.3c1.5-1.5 2.6-3.3 3.5-5.3.8-2 1.2-4.1 1.2-6.2 0-2.3-.4-4.3-1.3-6.5z"/>
    <path class="st0" d="M237.9 0H54.4C24.4 0 0 24.4 0 54.4v57.7l32.6-.1V54.4c0-12 9.8-21.7 21.8-21.7h183.5c12 0 21.8 9.8 21.8 21.7v183.5c0 12-9.8 21.7-21.8 21.7H54.4c-12 0-21.8-9.7-21.8-21.7v-57.7l-32.6.1v57.6c0 30 24.4 54.4 54.4 54.4h183.5c30 0 54.4-24.4 54.4-54.4V54.4c0-30-24.4-54.4-54.4-54.4z"/>
</symbol><symbol id="icon-magic-cart" viewBox="0 0 100 110">
    <style>
        .st0{fill:#0089ca}
    </style>
    <path class="st0" d="M71.2 54.9h-2.8l-.1-2.5L58 49.1l-.4-.1-.2.3-2.5 3.8v1.7h-1.4l-.5-2.3c-.1-.8-.4-1.4-.9-1.9-.6-.6-1.3-.9-2-.8l-9.2 1.5c-1.3.2-2.2 1.7-1.9 3.5v.2h-1.3l-2.8-7.3H23.7l-.1.3-1.2 4.4.8 2.6h-2.3c-.5 0-.7-.2-.9-.6l-1.8-4.8c-.5-1.2-1.4-2-2.7-2-4-.1-8 0-11.9 0-.9 0-1.6.4-2.2 1.1-.8 1-.9 2.1-.4 3.2.5 1.2 1.5 1.7 2.8 1.7h9c.4 0 .6.1.8.5 1.9 5.1 3.7 10.2 5.6 15.3 3.7 10.1 7.4 20.1 11.1 30.2.6 1.5 1.5 2.2 3 2.2h29.4c1.2 0 2-.6 2.6-1.6.5-1 .5-2-.1-3s-1.6-1.4-2.8-1.4H35.9c-.5 0-.6-.1-.8-.6-.3-1-.7-1.9-1.1-2.9-.5-1.3-.9-2.6-1.4-3.9h31.7c1.7 0 2.8-.8 3.2-2.5.9-3.6 1.9-7.3 2.8-10.9 1.4-5.4 2.8-10.9 4.2-16.3.2-.8.1-1.7-.4-2.4-.8-1.1-1.7-1.4-2.9-1.4zm-30-1.6l9.2-1.5c.1 0 .4.4.5 1l.3 2.1H41.1l-.1-.5c-.1-.7.1-1.1.2-1.1zm-16.7-4.7h9.2l-1.6 3.7h-8.4l.8-3.7zm-.2 6.3l-.5-1.5h8.3l.6 1.5h-8.4zm9.5 0l-.8-2 1.5-3.4 2.1 5.4h-2.8zM53 72.4c-1.7 1.7-3.4 3.5-5.2 5.2-1.1 1.1-2.9 1.1-4.1 0-1.8-1.7-3.6-3.5-5.3-5.3-1.1-1.2-1.1-2.9 0-4.1 1-1.1 2.7-1.3 4-.3.1.1.2.1.3.3v-4.8c0-1.1.5-1.9 1.3-2.5 1.9-1.3 4.5 0 4.6 2.2.1 1.5 0 2.9 0 4.4v.6c.2-.1.3-.2.4-.3 1.3-.9 3-.7 4 .5 1.2 1.2 1.2 2.9 0 4.1zm2.8-17.5v-.3l.9.3h-.9zm4.4 0l-4.1-1.3 1.9-3.3 8.8 2.8-1.6 1.8h-5zm6.4 0l.7-.8v.8h-.7z"/>
    <path class="st0" d="M36.9 102.3c-2.1 0-3.9 1.8-3.9 3.9s1.8 3.8 3.8 3.8c2.1 0 3.9-1.8 3.9-3.9.1-2-1.7-3.8-3.8-3.8z"/>
    <path class="st0" d="M57 102.3c-2.1 0-3.9 1.7-3.9 3.7 0 2.2 1.7 3.9 3.8 3.9s3.9-1.8 3.9-3.8c.1-2.1-1.6-3.8-3.8-3.8z"/>
    <path class="st0" d="M54.8 24.3c1.5-.8 2.4-1.8 3.3-2.7.8-.8 1.5-1.1 2.5-.3.8.6 1.8 1 2.7 1.5.3.1.6.5.9.1.3-.4-.1-.6-.3-.9-.6-.7-1.3-1.5-2-2.1-.9-.8-1.1-1.5-.4-2.6.7-1.1 1.5-2.1 1.8-3.8-1.5.7-2.4 1.7-3.3 2.6-1 1-1.8 1-2.8.2-.8-.6-1.7-1-2.5-1.5-.3-.2-.7-.4-.9 0-.2.2.1.5.3.7.8.8 1.5 1.8 2.3 2.5.7.7.8 1.2.3 2.1-.5 1.3-1.4 2.5-1.9 4.2z"/>
    <path class="st0" d="M62.1 6.1c.2-.6-.2-.8-.6-1.1-1.3-.7-1.5-1.7-.6-3 .2-.3.6-.8.1-1.2-.4-.4-.9 0-1.2.2-1.2 1.1-2.2.8-3.1-.4-.2-.3-.5-.8-1.1-.5-.5.3-.3.7-.2 1.1.6 1.5.2 2.5-1.4 3-.4.1-.8.3-.7.8.1.6.5.6.9.5 1.8-.2 2.6.7 2.5 2.5 0 .3.2.7.6.8.4.1.6-.2.7-.6.4-1.8 1.5-2.4 3.2-1.8.3.2.7.1.9-.3z"/>
    <path class="st0" d="M74.3 6.6c-1.1-1.1-1.6-2-.3-3.6-1.6.7-2.7 1.5-3.6-.2 0 1.3.2 2.5-1.7 3 1.5.4 2.6.7 2.6 2.7.9-1.4 1.3-2.7 3-1.9z"/>
    <path class="st0" d="M63.9 10.9l31.2 30.9c.8.8 2.3.6 3.3-.4s1.2-2.5.4-3.3L67.5 7.2c-.8-.8-2.3-.6-3.3.4-1 1.1-1.2 2.6-.3 3.3zM67.4 9l1.4 1.3c.4.4.3 1.1-.2 1.6s-1.2.6-1.6.2l-1.4-1.3c-.4-.4-.3-1.1.2-1.6s1.2-.6 1.6-.2z"/>
    <path class="st0" d="M34.3 33.8c1.2-.6 1.8-1.3 2.5-2 .6-.6 1.1-.8 1.9-.2.6.5 1.3.8 2 1.1.2.1.4.4.7.1.2-.3 0-.5-.2-.7-.5-.6-.9-1.1-1.5-1.6-.6-.6-.8-1.2-.3-2s1.1-1.6 1.4-2.9c-1.1.5-1.8 1.3-2.4 2-.7.7-1.3.7-2.1.2-.6-.4-1.3-.7-1.9-1.1-.2-.1-.5-.3-.7 0-.1.2 0 .4.2.5.6.6 1.1 1.3 1.7 1.9.5.5.6.9.2 1.6-.5.9-1.1 1.8-1.5 3.1z"/>
    <path class="st0" d="M58.2 41.4c-1.6-1.6-2.5-2.9-.4-5.4-2.4 1-4 2.2-5.4-.3-.1 2 .2 3.8-2.5 4.5 2.2.7 3.9 1.1 3.9 4 1.1-2.1 1.7-4.1 4.4-2.8z"/>
</symbol><symbol id="icon-magic" viewBox="0 0 29.5 55.8">
    <g>
        <path d="M.3 19.8c1.6.2 2.8-.3 4-.5 1-.2 1.7-.2 2.2 1 .3.9.9 1.7 1.4 2.6.2.3.2.7.7.6.4-.1.3-.5.2-.8-.1-.9-.3-1.8-.5-2.7-.3-1.1-.1-1.8 1-2.3s2.3-1 3.4-2.2c-1.5-.2-2.8.2-3.9.5-1.3.3-1.9-.1-2.4-1.2-.4-1.1-1-1.8-1.4-2.7-.2-.3-.3-.6-.7-.5-.3.1-.2.4-.2.7.2 1.1.3 2.2.6 3.2.2.9 0 1.4-.8 1.8-1.1.8-2.4 1.3-3.6 2.5z"/>
        <path d="M15.2 8.6c.4-.4.2-.8 0-1.2-.7-1.3-.4-2.2 1-2.8.4-.2.9-.4.7-.9-.2-.5-.7-.5-1.1-.4-1.5.3-2.1-.5-2.3-1.9 0-.4 0-.9-.7-.9-.6 0-.6.4-.7.8-.2 1.4-1 2.1-2.6 1.7-.4-.1-.8-.1-1 .3-.2.5.1.7.5.9 1.5.8 1.7 1.9.9 3.3-.2.2-.3.6 0 .9.3.2.6.1.9-.1C12 7 13.1 7 14.3 8.4c.2.2.5.3.9.2z"/>
        <path d="M24.9 15c-.4-1.4-.4-2.4 1.6-3-1.7-.2-2.9-.1-2.8-1.9-.7 1.1-1.1 2.1-2.8 1.6 1 1.1 1.8 1.9.8 3.5 1.2-.9 2.1-1.8 3.2-.2z"/>
        <path d="M14.2 13.3l10.2 40.6c.3 1 1.6 1.6 2.9 1.3s2.2-1.5 1.9-2.5L19 12.1c-.3-1-1.6-1.6-2.9-1.3-1.3.4-2.1 1.5-1.9 2.5zm3.8.2l.4 1.8c.1.5-.3 1-.9 1.2s-1.3-.1-1.4-.6l-.4-1.9c-.1-.5.3-1 .9-1.2.7-.1 1.3.2 1.4.7z"/>
    </g>
</symbol><symbol id="icon-mobile-bold" viewBox="0 0 18.9 32.6">
    <path d="M0 1.9c.2-.4.3-.7.5-1.1C.9.3 1.4.1 2 0h14.6c.8 0 1.4.3 1.9.9.3.4.5.9.5 1.4V20h-1.5V3.5H1.6v25h15.9v-9.8H19V30.3c0 1.2-.6 2-1.7 2.3-.2.1-.4.1-.6.1H2.5c-.6 0-1.2-.1-1.7-.6-.3-.3-.5-.6-.6-1 0-.1-.1-.2-.1-.3C0 21.1 0 11.5 0 1.9zm10.6 28.5c0-.6-.5-1.1-1.1-1.1-.6 0-1.1.5-1.1 1.1 0 .6.5 1.1 1.1 1.1.6 0 1.1-.5 1.1-1.1zM9.5 2.1H11.8c.1-.1.2-.1.2-.2s-.1-.2-.1-.2c-.1-.1-.2-.1-.3-.1H7c0 .1-.1.2-.1.3l.2.2h2.4z"/>
</symbol><symbol id="icon-mobile" viewBox="0 0 17.8 32.6">
    <g>
        <path d="M15.3 0H2.5C1.1 0 0 1.1 0 2.6V30c0 1.4 1.1 2.6 2.5 2.6h12.9c1.4 0 2.5-1.1 2.5-2.6V2.6C17.8 1.1 16.7 0 15.3 0zM2.5.8h12.9c.9 0 1.7.8 1.7 1.8v1.6H.8V2.6c0-1 .7-1.8 1.7-1.8zm14.6 4.1v21.4H.8V4.9h16.3zm-1.8 26.9H2.5C1.6 31.8.8 31 .8 30v-3h16.3v3c0 1-.8 1.8-1.8 1.8z"/>
        <path d="M9.3 31.1c-1 0-1.7-.8-1.7-1.7 0-1 .8-1.7 1.7-1.7 1 0 1.7.8 1.7 1.7 0 .9-.8 1.7-1.7 1.7zm0-2.8c-.5 0-1 .4-1 1 0 .5.4 1 1 1s1-.4 1-1c0-.5-.5-1-1-1z"/>
        <path d="M9.7 3.3H8.1c-.5 0-.9-.4-.9-.8s.4-.8.9-.8h1.6c.5 0 .9.4.9.8s-.4.8-.9.8zm-1.6-.9c-.1 0-.2.1-.2.1h1.8c.1 0 .2-.1.2-.1H8.1z"/>
        <path d="M4.8 3.3c-.4 0-.8-.4-.8-.8s.4-.8.8-.8.9.3.9.8-.4.8-.9.8zm0-.9s-.1 0 0 0c-.1.1.1.1 0 0 .1 0 .1 0 0 0z"/>
    </g>
</symbol><symbol id="icon-next" viewBox="0 0 129 129">
    <path d="M40.4 121.3c-.8.8-1.8 1.2-2.9 1.2s-2.1-.4-2.9-1.2c-1.6-1.6-1.6-4.2 0-5.8l51-51-51-51c-1.6-1.6-1.6-4.2 0-5.8 1.6-1.6 4.2-1.6 5.8 0l53.9 53.9c1.6 1.6 1.6 4.2 0 5.8l-53.9 53.9z"/>
</symbol><symbol id="icon-prev" viewBox="0 0 129 129">
    <path d="M88.6 121.3c.8.8 1.8 1.2 2.9 1.2s2.1-.4 2.9-1.2c1.6-1.6 1.6-4.2 0-5.8l-51-51 51-51c1.6-1.6 1.6-4.2 0-5.8s-4.2-1.6-5.8 0l-54 53.9c-1.6 1.6-1.6 4.2 0 5.8l54 53.9z"/>
</symbol><symbol id="icon-put-in-cart" viewBox="0 0 370 313.8">
    <path d="M366.9 43.1c-2.8-3.7-7.2-5.8-11.9-5.8H97.8L87.7 9.8C85.5 3.9 79.9 0 73.6 0H15C6.7 0 0 6.7 0 15s6.7 15 15 15h48.2l85.4 231.7c2.2 5.9 7.8 9.8 14.1 9.8h147.8c8.3 0 15-6.7 15-15s-6.7-15-15-15H173.1l-13.6-36.8h160.3c6.9 0 12.8-4.6 14.5-11.3L369.5 56c1.2-4.4.2-9.2-2.6-12.9zM262.4 125l-25.8 25.8c-2.8 2.8-6.6 4.4-10.6 4.4s-7.8-1.6-10.6-4.4L189.6 125c-2.8-2.8-4.4-6.6-4.4-10.6s1.6-7.8 4.4-10.6c2.8-2.8 6.6-4.4 10.6-4.4s7.8 1.6 10.6 4.4l.2.2V79.8c0-8.3 6.7-15 15-15s15 6.7 15 15V104l.2-.2c2.8-2.8 6.6-4.4 10.6-4.4s7.8 1.6 10.6 4.4c5.9 5.9 5.9 15.4 0 21.2z"/>
    <path d="M181.5 275.1c-10.7 0-19.3 8.7-19.3 19.3s8.7 19.3 19.3 19.3c10.7 0 19.3-8.7 19.3-19.3 0-10.7-8.6-19.3-19.3-19.3z"/>
    <path d="M282.3 275.1c-10.7 0-19.3 8.7-19.3 19.3s8.7 19.3 19.3 19.3 19.3-8.7 19.3-19.3c.1-10.7-8.6-19.3-19.3-19.3z"/>
</symbol><symbol id="icon-question-option" viewBox="0 0 50 50">
    <style>
        .st0{fill:#374163}
    </style>
    <path class="st0" d="M25 49.9c-13.8 0-25-11.2-25-25C0 11.2 11.2.1 25 .1S50 11.3 50 25 38.8 49.9 25 49.9zm0-45.2C13.8 4.7 4.6 13.8 4.6 25c0 11.2 9.2 20.4 20.4 20.4S45.4 36.3 45.4 25c0-11.2-9.2-20.3-20.4-20.3z"/>
    <path class="st0" d="M29.3 27.8c-.7 0-1.4-.3-1.8-.9-.8-1-.6-2.5.5-3.2 1.1-.8 1.9-2.3 1.9-3.7 0-2.6-2.2-4.8-4.8-4.8s-4.8 2.2-4.8 4.8c0 1.3-1 2.3-2.3 2.3-1.3 0-2.3-1-2.3-2.3 0-5.2 4.2-9.4 9.4-9.4s9.4 4.2 9.4 9.4c0 2.9-1.4 5.7-3.7 7.4-.6.2-1 .4-1.5.4z"/>
    <path class="st0" d="M25 31.9c-1.3 0-2.3-1-2.3-2.3 0-3.3 2.7-4.6 4.2-5.4.4-.2.8-.4 1.1-.6 1-.7 2.5-.5 3.2.5.7 1 .5 2.5-.5 3.2-.5.4-1.1.7-1.7 1-1.5.7-1.6.9-1.6 1.2-.1 1.3-1.1 2.4-2.4 2.4z"/>
    <path class="st0" d="M25 39.5c-1.3 0-2.3-1-2.3-2.3v-1.4c0-1.3 1-2.3 2.3-2.3s2.3 1 2.3 2.3v1.4c0 1.2-1 2.3-2.3 2.3z"/>
</symbol><symbol id="icon-receiving" viewBox="0 0 27.2 27.2">
    <g>
        <path d="M0 27h27.2V8.4H0V27zm8.3-8.5h2.2v-.9-6.3s0-.3.4-.3h5.3c.5 0 .4.4.4.4v7.3h2.3c.7 0 .1.6.1.6l-5.2 5s-.3.4-.7 0c-.5-.5-5-5.2-5-5.2s-.6-.6.2-.6z"/>
        <path d="M12.8.2H2.3L.2 7.3h12.1z"/>
        <path d="M27.2 7.3L24.7.2H14.4l.6 7.1z"/>
    </g>
</symbol><symbol id="icon-settings" viewBox="0 0 45.4 45.4">
    <path d="M43.3 14.3c.3 2-.6 2.5-1.3 3.2-3.7 3.2-3.6 7 .1 10.1 1.5 1.3 2 2.5.8 4.2-.8 1.3-1.6 2.6-2.3 3.9-1 2.1-2.4 2.1-4.4 1.4-4.2-1.6-7.8.3-8.4 4.6-.7 5.3-4.7 2.9-7.4 3.3-2.9.5-4.1-1.3-4.4-3.9-.5-3.5-4-5.8-7.1-4.3-3.2 1.6-4.6.3-5.9-2.4-1.2-2.5-4-4.8.3-7.4 3-1.9 3-6.9 0-8.8-3.3-2.1-2.5-4.1-.8-6.6C4 9.4 4.6 5.9 8.9 8.2c3.1 1.7 7.5-.9 7.7-4.4C16.8.7 18.2-.1 21 .1c1.1.1 2.3.1 3.4 0 2-.1 2.9.6 3.3 2.7 1 5.1 3.9 6.7 8.6 4.8 1.1-.4 1.9-.5 2.8.2 2.3 1.9 3 4.8 4.2 6.5zm-12 8.4c.1-5.1-3.8-9.2-8.9-9.4-5.1-.2-9.5 4.1-9.5 9.2s4 9.1 9.1 9.1c5.3.1 9.3-3.7 9.3-8.9z"/>
</symbol><symbol id="icon-sound-bold" viewBox="0 0 31.5 32.6">
    <g>
        <path d="M1.6 17.3c-.5.1-1 .1-1.5.2 0-.2-.1-.5-.1-.7-.2-2.4 0-4.7.8-7C2 7 3.8 4.9 6.4 3.4c.1-.1.2-.1.3-.2 0-.1-.1-.3-.1-.4-.1-.4.1-.8.5-1 1.2-.6 2.4-1 3.7-1.3 4.2-.9 8.3-.7 12.4.7.4.1.8.3 1.1.5.7.3.8.7.5 1.4.2.1.5.3.7.4 3.2 2.1 5.1 5 5.8 8.7.3 1.7.3 3.4.1 5.1-.5-.1-1-.1-1.5-.2 0-.5.1-1.1.1-1.6.1-2.8-.4-5.4-2-7.8-1.4-2-3.3-3.4-5.6-4.2-2.4-.9-5-1.2-7.6-1.1-2.5.1-4.9.6-7.1 1.8-3.4 1.9-5.4 4.7-6 8.6-.2 1.4-.2 2.7 0 4.1-.1.2-.1.3-.1.4z"/>
        <path d="M6.5 30.7c-.7.2-1.4.3-2.1.5-.2-.9-.4-1.7-.6-2.6-.2.1-.4.1-.6.2-.5.1-1-.2-1.2-.7-.2-.5-.3-.9-.5-1.4-.1-.3-.1-.7.2-1 .1-.1.1-.2 0-.3C1 23.3.4 21.2 0 19.1v-.3c.7-.1 1.3-.2 2-.3.2.8.3 1.6.5 2.4.8-.1 1.5-.2 2.3-.3.3 2.3.6 4.6 1.2 6.9-.1-.6-.2-1.1-.2-1.7-.2-1.8-.4-3.5-.6-5.3-.1-.7.4-1.3 1.1-1.4.7-.1 1.3.3 1.5.9.1.3.1.7.1 1 .3 3.3.8 6.6 1.5 9.9.1.7-.3 1.4-1 1.6-.7.2-1.4-.2-1.6-1-.1-.2-.2-.5-.3-.8z"/>
        <path d="M27.7 28.6c-.2.9-.4 1.7-.6 2.6-.7-.2-1.4-.3-2.1-.5-.1.3-.1.6-.2.8-.2.7-.8 1.2-1.5 1-.7-.1-1.1-.8-1-1.5.2-1.3.5-2.5.7-3.8.4-2.3.7-4.6.8-6.9.1-.8.7-1.3 1.4-1.3.8.1 1.3.7 1.2 1.5-.2 1.9-.4 3.7-.6 5.6 0 .4-.1.8-.2 1.2.5-2.3.9-4.5 1.1-6.9.8.1 1.5.2 2.3.3.2-.8.3-1.6.5-2.4.7.1 1.3.2 2 .3-.1.6-.2 1.1-.3 1.7-.4 1.7-.8 3.3-1.4 5v.3c.2.3.3.6.2.9-.1.4-.3.9-.4 1.3-.4 1-1.1 1.2-1.9.8.1 0 .1 0 0 0z"/>
    </g>
</symbol><symbol id="icon-sound" viewBox="0 0 36.2 32.6">
    <g>
        <path d="M33.6 17.2c-.1 1-.3 2.2-.4 3.4 0 .2 0 .4.2.6.5.5.6 1.1.4 1.7-.8 2.8-1.7 5.6-2.6 8.4-.3 1-1.3 1.5-2.2 1.2-.9-.3-1.4-1.2-1.1-2.2.8-2.8 1.7-5.6 2.5-8.4.2-.6.6-1 1.2-1.2.1 0 .3-.2.3-.3 1.2-6-.9-12.9-6.3-16.7C20.2-.2 12.9.6 8.2 5.7c-2.5 2.7-3.9 6-4.3 9.7-.2 1.7-.1 3.3.2 5 0 .2.1.3.3.4.7.1 1.1.6 1.3 1.2.9 2.8 1.7 5.6 2.5 8.4.3 1-.2 1.9-1.1 2.2-.9.3-1.9-.2-2.2-1.2-.9-2.8-1.7-5.6-2.6-8.4-.2-.6-.1-1.2.4-1.7.2-.2.2-.3.1-.5-1-6.4.5-12 5-16.5C10.7 1.4 14.2-.1 18.4 0c4.1.1 7.6 1.8 10.4 4.7 2.6 2.7 4 5.9 4.6 9.6.1 1 .1 1.9.2 2.9z"/>
        <path d="M0 24.5c0-.5.3-.8.7-.9.4-.1.8.2.9.6.2.8.5 1.6.7 2.4.4 1.3.8 2.7 1.2 4 0 .2.1.3.1.5 0 .4-.3.6-.7.7-.4 0-.7-.2-.9-.6-.5-1.5-.9-3-1.4-4.4-.2-.6-.4-1.3-.6-1.9v-.4z"/>
        <path d="M36.2 24.5c0 .1 0 .2-.1.3-.6 2.1-1.3 4.2-1.9 6.3-.1.5-.4.7-.8.7-.5 0-.9-.5-.7-1.1.4-1.5.9-2.9 1.3-4.4.2-.7.4-1.4.7-2.2.1-.4.5-.7.9-.6.3.2.6.5.6 1z"/>
    </g>
</symbol><symbol id="icon-warning" viewBox="0 0 486.463 486.463">
    <path d="M243.225 333.382c-13.6 0-25 11.4-25 25s11.4 25 25 25c13.1 0 25-11.4 24.4-24.4.6-14.3-10.7-25.6-24.4-25.6z"/>
    <path d="M474.625 421.982c15.7-27.1 15.8-59.4.2-86.4l-156.6-271.2c-15.5-27.3-43.5-43.5-74.9-43.5s-59.4 16.3-74.9 43.4l-156.8 271.5c-15.6 27.3-15.5 59.8.3 86.9 15.6 26.8 43.5 42.9 74.7 42.9h312.8c31.3 0 59.4-16.3 75.2-43.6zm-34-19.6c-8.7 15-24.1 23.9-41.3 23.9h-312.8c-17 0-32.3-8.7-40.8-23.4-8.6-14.9-8.7-32.7-.1-47.7l156.8-271.4c8.5-14.9 23.7-23.7 40.9-23.7 17.1 0 32.4 8.9 40.9 23.8l156.7 271.4c8.4 14.6 8.3 32.2-.3 47.1z"/>
    <path d="M237.025 157.882c-11.9 3.4-19.3 14.2-19.3 27.3.6 7.9 1.1 15.9 1.7 23.8 1.7 30.1 3.4 59.6 5.1 89.7.6 10.2 8.5 17.6 18.7 17.6s18.2-7.9 18.7-18.2c0-6.2 0-11.9.6-18.2 1.1-19.3 2.3-38.6 3.4-57.9.6-12.5 1.7-25 2.3-37.5 0-4.5-.6-8.5-2.3-12.5-5.1-11.2-17-16.9-28.9-14.1z"/>
</symbol></svg>