<?xml version="1.0" encoding="utf-8"?>
<!-- Generator: Adobe Illustrator 21.0.0, SVG Export Plug-In . SVG Version: 6.00 Build 0)  -->
<svg version="1.1" id="Слой_1" xmlns="http://www.w3.org/2000/svg" xmlns:xlink="http://www.w3.org/1999/xlink" x="0px" y="0px"
	 viewBox="0 0 283.5 79.4" enable-background="new 0 0 283.5 79.4" xml:space="preserve">
<g>
	<g>
		<path fill="#30304C" d="M281.6,5.5c0-2.5-1.8-3.9-4.2-3.8c-2.2,0.1-3.5,1.6-3.7,3.7c-0.2,2.7-0.1,5.5-0.2,8.3
			c0,1.3,0.6,3.4-2.1,2.7c-11.5-2.9-23.2-0.9-34.9-1.4c-6-0.3-10.4-1.9-10.5-9c0-2.8-1.7-4.4-4.5-4.2c-2.5,0.2-3.6,2-3.6,4.4
			c0,8.5,0,17,0,25.5c0,2.7,1.3,4.6,4.1,4.6c2.8-0.1,4-2.1,4-4.8c0-3.3,0-6.7,0-10.3c11.6,3.2,22.9,1.5,34.1,1.8
			c10.3,0.3,10.4,0.2,13.6,9.9c0.7,2,1.8,3.5,4,3.5c2.4-0.1,4-1.6,4-4.1C281.8,23.3,281.8,14.4,281.6,5.5z"/>
		<path fill="#30304C" d="M162.5,9.5c13.6,0,27.2,0,40.8,0c3,0,6.6,0.2,6.6-4c0-4.2-3.6-3.9-6.7-3.9c-14,0-28,0-42.1,0
			c-9,0-14.6,4.2-16.8,12.5c-2.3,8.6,1.2,16.6,8.9,20.9c1,0.4,1.9,1.1,2.9,1.2c16.9,0.1,33.7,0,50.6,0c0.5,0,1-0.6,1.5-1
			c2.7-4.8,1.8-6.6-3.9-6.6c-14-0.1-28,0-42.1-0.1c-7.5,0-10.7-3.1-10.6-9.6C151.8,12.3,154.9,9.6,162.5,9.5z"/>
		<path fill="#30304C" d="M131.8,28.5c-13.6-0.1-27.2,0-40.8-0.1c-7.2,0-10.6-3.4-10.5-9.8c0.1-6.1,3.4-9.1,10.4-9.2
			c13.4-0.1,26.8,0,40.1,0c3,0,6.7,0.4,6.8-3.8c0.1-4.8-3.9-4.1-7-4.1c-13.6,0-27.2,0-40.8,0c-8.7,0-13.9,3.6-16.5,11.2
			c-2.7,8.1-0.2,16.2,6.8,21.3c2.3,2.3,5.4,2.3,8.3,2.3c14,0,28.1,0,42.1,0c2,0,4.3,0.8,5.8-1.4C140.2,28.8,135.8,28.6,131.8,28.5z"
			/>
		<path fill="#30304C" d="M58.5,1.6c-17,0-34,0-51,0c-3.1,0-6.5,0-6.3,4.2c0.2,3.8,3.4,3.7,6.2,3.7c7.6,0,15.2,0,23.5,0
			c-3.2,7.3-2,14.4-2.2,21.4c-0.1,2.8,0.7,5.4,4,5.4c3.1,0,4.3-2.3,4.2-5.3c-0.1-4-0.1-8.1,0.1-12.1c0.3-6.6,2.9-9.2,9.4-9.4
			c4-0.1,8.1-0.1,12.1,0c3,0,6-0.4,6-4C64.5,1.8,61.5,1.6,58.5,1.6z"/>
		<path fill="#30304C" d="M127.2,14.9c-11,0-22,0-33.1,0c-3.4,0-7.8-0.5-7.7,4.2c0.2,4.7,4.7,3.9,8,3.9c5.3,0,10.6,0,15.9,0
			c5.7,0,11.4,0,17.2,0c3.2,0,7.2,0.3,7-4.2C134.3,14.5,130.4,14.9,127.2,14.9z"/>
	</g>
	<path fill="#535353" d="M1.5,41.4v18.3c0,9.9,8.1,18.1,18.1,18.1H263c9.9,0,18.1-8.1,18.1-18.1V41.4H1.5z"/>
	<g>
		<path fill="#FFFFFF" stroke="#FFFFFF" stroke-width="0.25" stroke-miterlimit="10" d="M55.5,50.3h4.9l4,14.3l4.1-14.3h4.7v19.9H70
			v-17l-4.7,17h-2.4l-4.6-17v17h-2.8V50.3z"/>
		<path fill="#FFFFFF" stroke="#FFFFFF" stroke-width="0.25" stroke-miterlimit="10" d="M107.3,60.3c0,3.4-0.6,6-1.8,7.7
			c-1.2,1.7-3,2.6-5.3,2.6c-2.3,0-4.1-0.9-5.3-2.6c-1.2-1.7-1.9-4.3-1.9-7.7c0-3.4,0.6-5.9,1.8-7.7c1.2-1.7,3-2.6,5.3-2.6
			c2.3,0,4.1,0.9,5.3,2.6S107.3,56.9,107.3,60.3z M103.8,60.3c0-2.4-0.3-4.2-0.8-5.6c-0.5-1.4-1.5-2-2.9-2c-1.4,0-2.3,0.7-2.9,2
			c-0.5,1.4-0.8,3.2-0.8,5.6c0,2.3,0.3,4.2,0.8,5.5c0.5,1.4,1.5,2.1,2.9,2.1c1.3,0,2.3-0.7,2.8-2C103.5,64.5,103.8,62.7,103.8,60.3z
			"/>
		<path fill="#FFFFFF" stroke="#FFFFFF" stroke-width="0.25" stroke-miterlimit="10" d="M127.1,50.3h6c1.5,0,2.7,0.1,3.5,0.4
			c0.8,0.2,1.5,0.8,2,1.6c0.5,0.8,0.8,1.9,0.8,3.1c0,2.2-1,3.7-3,4.4c2.4,0.7,3.6,2.4,3.6,5c0,1.5-0.5,2.7-1.4,3.8
			c-0.9,1.1-2.7,1.6-5.4,1.6h-6.1V50.3z M130.4,58.6h2.1c1.5,0,2.4-0.3,2.9-0.8c0.5-0.5,0.7-1.2,0.7-2.1c0-1-0.3-1.7-0.8-2.2
			c-0.5-0.4-1.4-0.6-2.5-0.6h-2.4V58.6z M130.4,67.6h2.7c2.4,0,3.6-1.1,3.6-3.2c0-0.8-0.3-1.6-0.8-2.2c-0.5-0.7-1.6-1-3.1-1h-2.4
			V67.6z"/>
		<path fill="#FFFFFF" stroke="#FFFFFF" stroke-width="0.25" stroke-miterlimit="10" d="M160.1,50.3h3.3v19.9h-3.3V50.3z"/>
		<path fill="#FFFFFF" stroke="#FFFFFF" stroke-width="0.25" stroke-miterlimit="10" d="M183.9,50.3h3.3v17.1h7v2.8h-10.3V50.3z"/>
		<path fill="#FFFFFF" stroke="#FFFFFF" stroke-width="0.25" stroke-miterlimit="10" d="M212.8,50.3h11.4V53h-8.1v5.7h6.4v2.7h-6.4
			v6.2h8.2v2.7h-11.5V50.3z"/>
	</g>
</g>
</svg>
