<?xml version="1.0" encoding="utf-8"?>
<!-- Generator: Adobe Illustrator 17.1.0, SVG Export Plug-In . SVG Version: 6.00 Build 0)  -->
<!DOCTYPE svg PUBLIC "-//W3C//DTD SVG 1.1//EN" "http://www.w3.org/Graphics/SVG/1.1/DTD/svg11.dtd">
<svg version="1.1" id="Слой_1" xmlns="http://www.w3.org/2000/svg" xmlns:xlink="http://www.w3.org/1999/xlink" x="0px" y="0px"
	 viewBox="0 0 112 93" enable-background="new 0 0 112 93" xml:space="preserve">
<g>
	<g>
		<path fill="#4E6B9B" d="M28,47.3c0-0.3,0.1-0.6,0.1-0.9c0.2-2,0.4-4,0.8-6c0.3-1.4,1.1-2.5,2.5-3.1c0.6-0.3,1.2-0.5,1.9-0.7
			c0.5-0.2,0.7,0,0.7,0.5c-0.1,1-0.2,2-0.2,3.1c-0.2,2-0.4,4-0.2,6c0.2,1.7,0.2,3.5,0.4,5.2c0.3,2.8,0.8,5.6,1.6,8.3
			C36.8,65,39,70,41.7,74.7c0.1,0.1,0.2,0.3,0.3,0.5c0.1-0.2,0.1-0.2,0.2-0.3c2.1-6.3,5.2-12.2,8.3-18.1c1-1.8,2-3.7,3.1-5.5
			c1.1-2,3.4-3,5.6-2.6c1.1,0.2,1.9,0.7,2.4,1.7c0.6,1.2,1,2.4,1.6,3.5c2.6,5.2,5.1,10.5,7.7,15.7c1.7,3.3,3.4,6.7,5,10
			c0.1,0.1,0.1,0.2,0.3,0.5C84.3,66.5,90.8,52.2,95,36.8c0.1,0.2,0.1,0.3,0.1,0.3c0.5,1.9,1.7,2.8,3.7,3c1.2,0.1,2.4,0.2,3.6,0.3
			c2.2,0.3,3.6,2.2,3.2,4.4c-0.4,1.9-1.2,3.6-1.9,5.4c-1.7,4.5-3.5,9-5.6,13.4c-2.9,6-6.2,11.8-9.9,17.4c-1.8,2.7-3.5,5.5-5.3,8.3
			c-0.3,0.5-0.7,1-1.1,1.5c-1.3,1.7-3.1,2.3-5.2,2c-1.6-0.2-3.1-0.7-4.3-1.9c-0.7-0.8-1.4-1.7-1.9-2.7c-4.3-8.6-8.6-17.2-12.9-25.9
			c-0.2-0.5-0.4-0.9-0.7-1.5c-0.2,0.3-0.3,0.4-0.4,0.6c-1.9,3.4-3.5,7-5.1,10.6C50,75.3,48.8,78.6,48,82c-0.1,0.5-0.2,1.1-0.3,1.6
			c-0.4,1.8-1.3,2.3-3.1,1.8c-1.2-0.3-2.1-1.1-3-1.9c-2.2-2-3.8-4.3-5.3-6.8c-2.7-4.6-4.9-9.3-6.4-14.4c-0.8-2.8-1.3-5.6-1.6-8.5
			c-0.1-1-0.1-2-0.2-3c0-0.2-0.1-0.3-0.1-0.5C28,49.4,28,48.3,28,47.3z"/>
		<path fill="#4E6B9B" d="M110.2,26.6c-0.1-0.2-0.1-0.3-0.2-0.5c-0.6-1.7-2-2.5-3.8-2.5c-1.2,0-2.4,0-3.5,0
			c-3.1,0.1-3.9-2.1-3.6-4.4c0.2-1.6,0.6-3.2,0.9-4.9c0-0.2,0.1-0.4,0.1-0.6c0,0.1,0.1,0.1,0.1,0.2c0.7,1.8,2.2,2.5,4.1,2.3
			c1.2-0.1,2.5-0.3,3.7-0.2c1.9,0.1,3.4,1.6,3.5,3.5c0.1,1.5-0.2,2.8-0.6,4.2C110.7,24.6,110.4,25.6,110.2,26.6z"/>
		<path fill="#4E6B9B" d="M107,39.8c0-0.1-0.1-0.2-0.1-0.4c-0.6-1.8-1.8-2.8-3.8-2.9c-1.4-0.1-2.8-0.1-4.2-0.3
			c-1.6-0.2-2.5-1.4-2.6-3c-0.1-1.5,0.4-2.9,0.8-4.3c0.2-0.8,0.5-1.7,0.7-2.5c0,0.1,0.1,0.2,0.1,0.3c0.7,1.8,1.9,2.4,3.9,2.4
			c1.1,0,2.1-0.1,3.2-0.1c2.3,0.1,3.8,1.7,3.9,4c0,1.3-0.4,2.5-0.8,3.7C107.7,37.7,107.4,38.7,107,39.8z"/>
	</g>
	<path fill="#4E6B9B" d="M53,23.9c-0.5,0.2-0.9,0.5-1.4,0.6c-1.9,0.7-4.1,0.7-6.4,0c-0.1,0-0.1,0-0.2-0.1c0-0.6,0-1.2,0-1.8
		c2.9,0.9,5.4,0.6,7.4-0.9c2-1.5,2.9-3.8,2.9-6.9c0.6,0.2,1.1,0.3,1.7,0.5c0,0,0,0,0,0.1c0,0.1,0,0.2,0,0.2c0,2.4-0.6,4.5-1.8,6.2
		c-0.3,0.4-0.6,0.7-0.9,1.1C53.8,23.3,53.4,23.6,53,23.9z"/>
	<path fill="#4E6B9B" d="M75,23.2c-0.4-0.4-0.8-0.7-1.1-1.1c-1.3-1.6-2.1-3.6-2.3-6c0-0.1,0-0.1,0-0.2c0.6-0.2,1.1-0.4,1.7-0.7
		c0.2,3,1.4,5.2,3.5,6.6c2.1,1.3,4.6,1.4,7.5,0.3c0,0.6,0.1,1.2,0.1,1.8c0,0,0,0,0,0.1c-0.1,0-0.1,0-0.2,0.1
		c-2.3,0.9-4.4,1.1-6.4,0.5c-0.5-0.1-0.9-0.3-1.4-0.5C75.9,23.7,75.5,23.4,75,23.2z"/>
	<circle fill="#4E6B9B" cx="57.4" cy="33.1" r="1.9"/>
	<circle fill="#4E6B9B" cx="70.4" cy="33.1" r="1.9"/>
</g>
<rect x="7.4" y="11.9" transform="matrix(0.8058 -0.5921 0.5921 0.8058 -3.8356 13.015)" fill="#D24A43" width="21.1" height="1"/>
<path fill="#4E6B9B" d="M0.4,13.4c0.1-0.6,0.1-1.2,0.2-1.8c0.6-3.5,2.6-6.1,5.5-8c6.5-4.2,13.4-4.8,20.4-1.3c2.9,1.4,5,3.7,5.9,6.9
	c0,0.1,0.1,0.2,0.1,0.3c0.1,0.7,0.1,1.3,0.2,2c-0.1,0.5-0.1,1.1-0.2,1.6c-0.6,3.3-2.5,5.8-5.2,7.7c-0.6,0.4-0.8,0.9-0.4,1.5
	c0.5,1,1.2,2,1.8,3c0.3,0.5,0.8,0.9,0.5,1.5c-0.4,0.7-1,0.4-1.6,0.4c0,0-0.1,0-0.1,0c-2.3-0.4-4.3-1.6-6.1-3
	c-0.2-0.2-0.5-0.3-0.7-0.2c-4.1,1-8.1,0.8-12-0.7C5.4,22,2.9,20.1,1.4,17c-0.3-0.6-0.5-1.3-0.8-2C0.6,14.5,0.5,14,0.4,13.4z
	 M24.8,21.8c-0.2-1,0.2-1.7,1-2.3c1.5-1,2.7-2.2,3.6-3.6c2.3-3.8,1.5-8-2.1-10.7c-2.8-2.1-6.1-2.9-9.5-3c-3.3,0-6.5,0.7-9.4,2.4
	C6.5,5.6,4.9,7,3.7,8.8c-2.2,3.6-1.5,7.7,1.9,10.4c2.6,2.1,5.6,3,8.8,3.2c2.1,0.1,4.1-0.1,6.1-0.6c0.7-0.2,1.3,0.1,1.9,0.5
	c1,0.8,2.1,1.5,3.1,2.2c0-0.1,0-0.1,0.1-0.2C25.3,23.5,25,22.7,24.8,21.8z"/>
<g>
	<path fill="#6B6966" d="M16.5,12.8l2.3-1.7c-3.2-0.7-6.7,0.3-8.9,2.7c0.4,0.4,0.9,0.9,1.3,1.3C12.7,13.6,14.6,12.8,16.5,12.8z"/>
	<path fill="#6B6966" d="M18.1,12.9c1.6,0.3,3,1,4.2,2.2c0.5-0.5,0.9-0.9,1.3-1.3c-1-1.1-2.3-1.8-3.6-2.3L18.1,12.9z"/>
</g>
<g>
	<path fill="#6B6966" d="M20.8,9.6l1.8-1.3c-0.9-0.4-1.8-0.7-2.8-1c-0.6-0.1-1.3-0.2-2-0.3c-0.7,0-1.4,0-2.1,0
		c-0.6,0.1-1.2,0.2-1.8,0.3C11.4,7.8,9.2,9,7.4,10.8c-0.1,0.1-0.1,0.1-0.2,0.2c0,0,0,0,0,0.1c0.4,0.4,0.9,0.9,1.4,1.3
		c2.3-2.2,5.1-3.4,8.3-3.4C18.2,8.9,19.6,9.2,20.8,9.6z"/>
	<path fill="#6B6966" d="M23.6,8.8l-1.7,1.3c1.1,0.6,2.2,1.3,3.2,2.3c0.5-0.5,0.9-0.9,1.3-1.3c0,0-0.1-0.1-0.1-0.1
		C25.5,10.1,24.6,9.4,23.6,8.8z"/>
</g>
<path fill="#6B6966" d="M15.4,14.9l-2.5,1.8c0.4,0.4,0.7,0.7,1.1,1.1c0.8-0.7,1.7-1.1,2.8-1.1c1.1,0,2.1,0.4,2.8,1.1
	c0.5-0.5,0.9-0.9,1.4-1.3C19.5,14.9,17.4,14.4,15.4,14.9z"/>
</svg>
