<?xml version="1.0" encoding="utf-8"?>
<!-- Generator: Adobe Illustrator 21.0.0, SVG Export Plug-In . SVG Version: 6.00 Build 0)  -->
<svg version="1.1" id="Слой_1" xmlns="http://www.w3.org/2000/svg" xmlns:xlink="http://www.w3.org/1999/xlink" x="0px" y="0px"
	 viewBox="0 0 283.5 48.2" enable-background="new 0 0 283.5 48.2" xml:space="preserve">
<g>
	<g>
		<path fill="#A31F35" d="M25.3,0.8H4.6C3.2,0.8,2,1.9,2,3.3v41.8c0,1.1,0.7,2.1,1.8,2.4L25.3,0.8z"/>
		<path fill="#A31F35" d="M46.3,0.8H25.8l21.4,46.7c0.9-0.4,1.5-1.3,1.5-2.3V3.3C48.8,1.9,47.7,0.8,46.3,0.8z"/>
	</g>
	<polygon fill="#78787B" points="25.3,16.5 31.9,30.7 21.9,30.7 19,37.4 34.9,37.4 39.7,47.5 11.4,47.7 	"/>
	<path fill="#A31F35" d="M91.7,35.1V3.9h6.7v31.2H91.7z"/>
	<path fill="#A31F35" d="M101.9,47.7V13.4h6.2v3.2c1.1-2.5,3.1-3.7,6-3.7c2.5,0,4.5,1,6.1,2.9c1.6,1.9,2.4,4.7,2.4,8.4
		c0,3.9-0.8,6.9-2.4,8.8c-1.6,2-3.7,3-6.2,3c-2.6,0-4.4-1-5.5-2.9v14.5H101.9z M108.2,25.9c0,1.6,0.1,2.6,0.3,3.2
		c0.2,0.6,0.6,1.1,1.2,1.6c0.6,0.5,1.3,0.7,2,0.7c0.9,0,1.7-0.5,2.4-1.4c0.7-0.9,1-2.9,1-6c0-4.4-1.2-6.6-3.5-6.6
		c-0.9,0-1.7,0.4-2.4,1.2c-0.7,0.8-1.1,2.1-1.1,4V25.9z"/>
	<path fill="#A31F35" d="M131.3,3.9v11.3c1.2-2.4,3.1-3.6,5.9-3.6c1.5,0,2.7,0.3,3.7,1c1,0.7,1.8,1.6,2.2,2.6
		c0.4,1.1,0.6,2.6,0.6,4.7v15.3h-6.4v-13c0-1.6-0.1-2.6-0.2-3.2c-0.1-0.6-0.4-1.1-0.8-1.5c-0.4-0.4-0.9-0.6-1.5-0.6
		c-0.8,0-1.6,0.3-2.4,1c-0.8,0.7-1.2,2.1-1.2,4.2v13h-6.2V3.9H131.3z"/>
	<polygon fill="#A31F35" points="66.1,35.1 59.5,35.1 75.2,0.8 90.9,35.1 84.5,35.1 80.8,27.8 72.3,27.5 74,23.7 78.8,23.5 
		75.2,15.5 	"/>
	<path fill="#78787B" d="M214.7,13.4h2.2V17c0.7-1.3,1.6-2.4,2.6-3.1c1.1-0.7,2.3-1.1,3.7-1.1c1.4,0,2.6,0.4,3.6,1.1
		c1.1,0.7,1.8,1.8,2.1,3.2c0.7-1.4,1.6-2.5,2.7-3.2c1.1-0.7,2.3-1.1,3.7-1.1c0.1,0,0.2,0,0.3,0c0.1,0,0.2,0,0.3,0c0,0,0.1,0,0.2,0
		c0.1,0,0.2,0,0.3,0c0.1,0,0.2,0,0.2,0c1.9,0.2,3.3,1,4.1,2.2c0.8,1.3,1.1,2.9,1.1,4.8v15.2h-2.3V20.2c0-1.7-0.4-3-1.1-4
		c-0.7-1-1.8-1.4-3.3-1.4h-0.6c-1.6,0.1-2.9,0.9-3.8,2.2s-1.4,2.9-1.4,4.5v13.6h-2.3V20.4c0-1.6-0.3-2.9-1-4
		c-0.7-1.1-1.7-1.6-3.2-1.6h-0.6c-1.7,0.1-2.9,0.9-3.8,2.3c-0.9,1.4-1.4,2.9-1.5,4.6v13.4h-2.3V13.4z"/>
	<path fill="#78787B" d="M247.7,13.4h2.2V17c0.7-1.3,1.6-2.4,2.6-3.1c1.1-0.7,2.3-1.1,3.7-1.1c1.4,0,2.6,0.4,3.6,1.1
		c1.1,0.7,1.8,1.8,2.1,3.2c0.7-1.4,1.6-2.5,2.7-3.2c1.1-0.7,2.3-1.1,3.7-1.1c0.1,0,0.2,0,0.3,0c0.1,0,0.2,0,0.3,0c0,0,0.1,0,0.2,0
		c0.1,0,0.2,0,0.3,0c0.1,0,0.2,0,0.2,0c1.9,0.2,3.3,1,4.1,2.2c0.8,1.3,1.1,2.9,1.1,4.8v15.2h-2.3V20.2c0-1.7-0.4-3-1.1-4
		c-0.7-1-1.8-1.4-3.3-1.4h-0.6c-1.6,0.1-2.9,0.9-3.8,2.2s-1.4,2.9-1.4,4.5v13.6h-2.3V20.4c0-1.6-0.3-2.9-1-4
		c-0.7-1.1-1.7-1.6-3.2-1.6h-0.6c-1.7,0.1-2.9,0.9-3.8,2.3c-0.9,1.4-1.4,2.9-1.5,4.6v13.4h-2.3V13.4z"/>
	<path fill="#78787B" d="M200.6,13c-6.2,0-11.3,5.1-11.3,11.3s5.1,11.3,11.3,11.3s11.3-5.1,11.3-11.3S206.9,13,200.6,13z
		 M200.6,33.6c-5.2,0-9.4-4.2-9.4-9.4c0-5.2,4.2-9.4,9.4-9.4c5.2,0,9.4,4.2,9.4,9.4C210,29.4,205.8,33.6,200.6,33.6z"/>
	<path fill="#78787B" d="M186.8,29.7c-1.7,2.4-4.5,3.9-7.6,3.9c-5.2,0-9.4-4.2-9.4-9.4c0-5.2,4.2-9.4,9.4-9.4c3.1,0,5.9,1.5,7.6,3.9
		v-2.9c-2-1.8-4.7-2.9-7.6-2.9c-6.2,0-11.3,5.1-11.3,11.3s5.1,11.3,11.3,11.3c2.9,0,5.6-1.1,7.6-2.9V29.7z"/>
	<g>
		<path fill="#78787B" d="M278,35.4v-2.5h-1v-0.3h2.4v0.3h-1v2.5H278z"/>
		<path fill="#78787B" d="M279.8,35.4v-2.9h0.6l0.7,2c0.1,0.2,0.1,0.3,0.1,0.4c0-0.1,0.1-0.3,0.2-0.5l0.7-2h0.5v2.9h-0.4V33
			l-0.9,2.4H281l-0.9-2.4v2.4H279.8z"/>
	</g>
	<path fill="#A31F35" d="M165.3,30.3V18.4c0,0-0.3-5.4-8.9-5.5c-8.6-0.1-9.3,7.5-9.3,7.5h6.1c0,0,0.6-3.8,3.1-3.6
		c2.5,0.2,2.8,2.1,2.8,2.1l0,3.3c-6.9-0.4-9.2,1.4-9.2,1.4s-3.6,1.6-3.4,6.3c0.2,3.7,2.9,5.9,7.3,5.9c4.5,0,6.4-2.8,6.4-2.8
		s1,1.3,2.4,2c1.5,0.7,4.4,0,4.4,0v-3.8C165.5,31.5,165.3,30.3,165.3,30.3z M156.8,31.3c0,0-2,0.6-3.3-0.4c0,0-1.1-1.6-0.4-3.2
		c0,0,1.8-2.9,6.1-2.4C159.2,25.4,159.5,29.9,156.8,31.3z"/>
</g>
</svg>
