<?xml version="1.0" encoding="utf-8"?>
<!-- Generator: Adobe Illustrator 17.1.0, SVG Export Plug-In . SVG Version: 6.00 Build 0)  -->
<!DOCTYPE svg PUBLIC "-//W3C//DTD SVG 1.1//EN" "http://www.w3.org/Graphics/SVG/1.1/DTD/svg11.dtd">
<svg version="1.1" id="Слой_1" xmlns="http://www.w3.org/2000/svg" xmlns:xlink="http://www.w3.org/1999/xlink" x="0px" y="0px"
	 viewBox="0 0 87 14" enable-background="new 0 0 87 14" xml:space="preserve">
<g>
	<path fill="#484879" d="M0.3,3.8h3.5v1.3h0C4.6,4,5.7,3.6,7,3.6c1,0,2.1,0.5,2.6,1.5c0.1-0.1,0.9-1.5,3.3-1.5
		c2.5,0,3.3,1.7,3.3,3.3v6.6h-3.7V8.2c0-0.9-0.1-1.7-1.2-1.7c-0.9,0-1.2,0.7-1.2,1.7v5.2H6.4V8.2c0-0.9-0.1-1.7-1.2-1.7
		C4.3,6.5,4,7.2,4,8.2v5.2H0.3V3.8z"/>
	<path fill="#484879" d="M20.3,9.5c0.1,1.1,0.7,1.9,1.9,1.9c0.6,0,1.2-0.2,1.5-0.7h3.4c-0.7,2.1-2.8,3-4.9,3c-3.1,0-5.4-1.8-5.4-5
		c0-2.8,2-5.1,5.1-5.1c3.8,0,5.5,2.1,5.5,5.9H20.3z M23.8,7.6c0-0.9-0.7-1.6-1.6-1.6c-1.1,0-1.7,0.6-1.9,1.6H23.8z"/>
	<path fill="#484879" d="M32.1,3.8h2v2.3h-2v3.4c0,0.9,0.2,1.3,1.1,1.3c0.3,0,0.6,0,0.8-0.1v2.8c-0.7,0-1.6,0.1-2.4,0.1
		c-1.6,0-3.3-0.2-3.3-2.9V6.1h-1.6V3.8h1.6V0.9h3.7V3.8z"/>
	<path fill="#484879" d="M34.8,3.8h3.5v1.5h0c0.6-1.1,1.4-1.8,2.7-1.8c0.4,0,0.7,0.1,1.1,0.1V7c-0.4-0.1-0.7-0.2-1.4-0.2
		c-1.4,0-2.2,0.9-2.2,2.9v3.8h-3.7V3.8z"/>
	<path fill="#484879" d="M47.4,13.7c-3.6,0-5.2-2.4-5.2-5.1c0-2.7,1.6-5,5.2-5c3.6,0,5.2,2.4,5.2,5C52.6,11.3,51,13.7,47.4,13.7
		 M47.4,6.3c-1.4,0-1.6,1.4-1.6,2.4c0,1,0.2,2.4,1.6,2.4c1.4,0,1.6-1.4,1.6-2.4C49,7.6,48.8,6.3,47.4,6.3"/>
	<path fill="#C25B46" d="M58.6,6.8c2,0,2.8-1.3,2.8-2.5c0-0.6-0.2-2.6-2.7-2.6h-4.2v5.1H58.6z M53.3,13.4V0.6h5.5
		c1.2,0,3.8,0.4,3.8,3.7c0,2.3-1.5,3.6-4.1,3.6h-4v5.5H53.3z"/>
	<path fill="#C25B46" d="M68.9,13.7c-3.6,0-6.1-2.8-6.1-6.7c0-4,2.5-6.7,6.1-6.7c4.7,0,5.2,4.1,5.2,4.2l0,0.2h-1.2l0-0.2
		c-0.3-1.9-1.9-3.1-4-3.1C66,1.4,64,3.7,64,7c0,3.3,2,5.6,4.9,5.6c2.2,0,4.1-1.9,4.2-4.3l0-0.2h1.2l0,0.2
		C74,11.5,71.7,13.7,68.9,13.7"/>
	<path fill="#C25B46" d="M80.1,13.7c-1.9,0-3.4-0.5-4.3-1.4c-0.8-0.8-1.2-1.9-1.1-3.2l0-0.2h1.2l0,0.2c-0.1,1,0.2,1.7,0.7,2.3
		c0.7,0.8,2,1.2,3.5,1.2c1.3,0,3.4-0.5,3.4-2.6c0-1.9-1.8-2.2-3.9-2.6l-0.2,0c-2-0.4-4.4-0.9-4.4-3.5c0-2.4,2.2-3.5,4.4-3.5
		c3,0,4.8,1.5,5,4l0,0.2h-1.2l0-0.2c-0.1-1.9-1.4-3-3.8-3c-1.5,0-3.2,0.6-3.2,2.4c0,1.7,1.7,2.1,3.7,2.5l0.3,0.1
		c1.9,0.4,4.4,0.9,4.4,3.7C84.6,12.6,82.3,13.7,80.1,13.7"/>
	<path fill="#484879" d="M86,12.7c0.1,0,0.2,0,0.2-0.1c0-0.1-0.1-0.1-0.2-0.1h-0.2v0.3H86z M85.8,13.2h-0.1v-0.8H86
		c0.2,0,0.3,0.1,0.3,0.2c0,0.1-0.1,0.2-0.2,0.2l0.2,0.4h-0.1L86,12.8h-0.1V13.2z M86,13.3c0.3,0,0.6-0.2,0.6-0.6
		c0-0.3-0.3-0.6-0.6-0.6c-0.3,0-0.6,0.3-0.6,0.6C85.4,13.1,85.7,13.3,86,13.3 M85.3,12.8c0-0.4,0.3-0.7,0.7-0.7
		c0.4,0,0.7,0.3,0.7,0.7c0,0.4-0.3,0.7-0.7,0.7C85.6,13.5,85.3,13.2,85.3,12.8"/>
</g>
</svg>
