<?xml version="1.0" encoding="utf-8"?>
<!-- Generator: Adobe Illustrator 21.1.0, SVG Export Plug-In . SVG Version: 6.00 Build 0)  -->
<svg version="1.1" id="Capa_1" xmlns="http://www.w3.org/2000/svg" xmlns:xlink="http://www.w3.org/1999/xlink" x="0px" y="0px"
	 viewBox="0 0 460.3 366.3" enable-background="new 0 0 460.3 366.3" xml:space="preserve">
<g>
	<g>
		<path d="M230.1,73.9L66,209.3c0,0.2,0,0.5-0.1,0.9c-0.1,0.4-0.1,0.7-0.1,0.9v137c0,4.9,1.8,9.2,5.4,12.8c3.6,3.6,7.9,5.4,12.8,5.4
			h109.6V256.7h73.1v109.6h109.6c4.9,0,9.2-1.8,12.8-5.4c3.6-3.6,5.4-7.9,5.4-12.8V211c0-0.8-0.1-1.3-0.3-1.7L230.1,73.9z"/>
		<path d="M457.1,178.4l-62.5-52V10c0-2.7-0.9-4.9-2.6-6.6c-1.7-1.7-3.9-2.6-6.6-2.6h-54.8c-2.7,0-4.9,0.9-6.6,2.6
			c-1.7,1.7-2.6,3.9-2.6,6.6v55.7L251.8,7.4C245.8,2.5,238.5,0,230.2,0c-8.4,0-15.6,2.5-21.7,7.4L3.2,178.4C1.3,180,0.2,182,0,184.6
			c-0.2,2.6,0.5,4.8,2,6.7l17.7,21.1c1.5,1.7,3.5,2.8,6,3.1c2.3,0.2,4.6-0.5,6.9-2L230.1,48.8l197.6,164.7c1.5,1.3,3.5,2,6,2h0.9
			c2.5-0.4,4.5-1.4,6-3.1l17.7-21.1c1.5-1.9,2.2-4.1,2-6.7C460.1,182,459,180,457.1,178.4z"/>
	</g>
</g>
</svg>
