<?xml version="1.0" encoding="utf-8"?>
<!-- Generator: Adobe Illustrator 21.1.0, SVG Export Plug-In . SVG Version: 6.00 Build 0)  -->
<svg version="1.1" id="Capa_1" xmlns="http://www.w3.org/2000/svg" xmlns:xlink="http://www.w3.org/1999/xlink" x="0px" y="0px"
	 viewBox="0 0 27.2 27.2" enable-background="new 0 0 27.2 27.2" xml:space="preserve">
<g>
	<g id="c51_box">
		<path fill="#030104" d="M0,27h27.2V8.4H0V27z M8.3,18.5c0.8,0,2.2,0,2.2,0s0-0.4,0-0.9c0-1.7,0-5,0-6.3c0,0,0-0.3,0.4-0.3
			c0.4,0,4.8,0,5.3,0c0.5,0,0.4,0.4,0.4,0.4c0,1.3,0,4.5,0,6.3c0,0.6,0,1,0,1s1.7,0,2.3,0c0.7,0,0.1,0.6,0.1,0.6l-5.2,5
			c0,0-0.3,0.4-0.7,0c-0.5-0.5-5-5.2-5-5.2S7.5,18.5,8.3,18.5z"/>
		<polygon fill="#030104" points="12.8,0.2 2.3,0.2 0.2,7.3 12.3,7.3 		"/>
		<polygon fill="#030104" points="27.2,7.3 24.7,0.2 14.4,0.2 15,7.3 		"/>
	</g>
</g>
</svg>
