<?xml version="1.0" encoding="utf-8"?>
<!-- Generator: Adobe Illustrator 21.0.0, SVG Export Plug-In . SVG Version: 6.00 Build 0)  -->
<svg version="1.1" id="Слой_1" xmlns="http://www.w3.org/2000/svg" xmlns:xlink="http://www.w3.org/1999/xlink" x="0px" y="0px"
	 viewBox="0 0 104.9 45.3" enable-background="new 0 0 104.9 45.3" xml:space="preserve">
<g>
	<path fill="#373739" d="M51,16.3c1.5,1.6,3,3,5.1,3.9c0.3,0.1,0.6,0.2,1,0.3c1.3,0.1,2.1-0.4,2.5-1.6c0.3-1,0.3-2.1,0.2-3.1
		c-0.1-1.2-0.4-2.3-0.7-3.5c0-0.1,0-0.1,0-0.2c0,0,0,0,0-0.1c0.1,0,0.1,0.1,0.1,0.2c0.6,1.9,1.1,3.9,1.2,5.9c0.1,1.1,0,2.2-0.4,3.3
		c-0.7,2-2.1,2.7-4.1,2.1c-1.3-0.4-2.4-1.1-3.5-2c-1.4-1.1-2.6-2.5-3.7-3.9c-0.1-0.1-0.1-0.2-0.3-0.3c-0.3-0.5-0.7-0.9-1-1.4
		c-0.8-1.3-1.6-2.6-2.3-4c-1.3-2.6-2.4-5.3-2.9-8.1c0-0.1-0.1-0.2-0.2-0.2c-1.6-0.4-3.3-0.7-5-0.5c-0.5,0-1,0.1-1.5,0.3
		c-1,0.4-1.4,1.3-1.2,2.3c0.2,0.9,0.7,1.7,1.3,2.5c0,0.1,0.1,0.1,0.1,0.2c0.1,0.1,0.2,0.2,0.1,0.3c-0.1,0.1-0.2,0.1-0.3,0
		c-1.3-1.4-2.5-2.9-3-4.7c-0.5-1.9,0.3-3.2,2.2-3.7C35,0.1,35.4,0.1,35.8,0c0.6,0,1.2,0,1.8,0c0.3,0.1,0.7,0.1,1,0.1
		c2.1,0.3,4,0.9,5.9,1.7c4,1.6,7.8,3.8,11.1,6.6c0.4,0.3,0.8,0.6,1.1,1c0.6,0.6,1.3,1.2,1.7,1.9c-0.6-0.3-1.1-0.7-1.7-1
		c-0.2-0.1-0.4-0.3-0.6-0.3c0-0.1-0.1-0.1-0.2-0.2c-3.8-2.3-7.8-4.2-12.1-5.5c-0.5-0.1-0.9-0.3-1.4-0.4C42.7,4,42.7,4,42.8,4.1
		c1.5,3,3.2,5.9,5.2,8.7c0.5,0.7,1,1.3,1.5,1.9C50,15.3,50.5,15.8,51,16.3z"/>
	<path fill="#373739" d="M0.5,31.1c0.6,0,1.3,0,1.9,0c0.2,0,0.2,0.1,0.2,0.3c0,2,0,4.1,0,6.1c0,2.4,0,4.8,0,7.2c0,0.2,0,0.3-0.3,0.3
		c-0.6,0-1.2,0-1.8,0C0.5,40.4,0.5,35.7,0.5,31.1z"/>
	<path fill="#77787B" d="M79.6,40.4c0,1.4,0,2.8,0,4.2c0,0.2-0.1,0.3-0.3,0.3c-0.5,0-1.1,0-1.6,0c-0.2,0-0.2-0.1-0.2-0.2
		c0-2.7,0-5.4,0-8.1c0.1-3,2.3-5.4,5.2-5.8c2.3-0.3,4.2,0.5,5.7,2.3c0.2,0.2,0.2,0.3,0.4,0c1.3-1.6,3-2.4,5-2.4
		c2.8,0,5.3,2.2,5.8,4.9c0.1,0.4,0.1,0.8,0.1,1.2c0,2.6,0,5.2,0,7.8c0,0.2-0.1,0.3-0.3,0.3c-0.5,0-1,0-1.6,0c-0.2,0-0.3-0.1-0.3-0.3
		c0-2.7,0-5.3,0-8c0-2.1-1.5-3.8-3.5-4c-2.1-0.2-4,1.1-4.4,3.2c0,0.2-0.1,0.4-0.1,0.6c0,2.7,0,5.4,0,8.1c0,0.3-0.1,0.3-0.3,0.3
		c-0.5,0-1,0-1.5,0c-0.2,0-0.3,0-0.3-0.2c0-2.7,0-5.4,0-8.1c0-2-1.7-3.9-3.7-4c-2.1-0.1-3.9,1.2-4.3,3.3c0,0.2-0.1,0.5-0.1,0.7
		C79.6,37.9,79.6,39.2,79.6,40.4z"/>
	<path fill="#77787B" d="M63.9,33.3c0.4-0.5,0.7-0.9,1.2-1.3c3.6-3,9.1-0.9,9.9,3.6c0.1,0.4,0.1,0.8,0.1,1.2c0,2.6,0,5.1,0,7.7
		c0,0.3-0.1,0.4-0.4,0.4c-0.5,0-1,0-1.5,0c-0.2,0-0.3-0.1-0.3-0.3c0-2.6,0-5.2,0-7.9c0-2-1.2-3.6-3.1-4c-2.5-0.6-4.9,1.3-4.9,3.8
		c0,2.7,0,5.4,0,8.1c0,0.2-0.1,0.3-0.3,0.3c-0.5,0-1,0-1.5,0c-0.3,0-0.3-0.1-0.3-0.3c0-2.7,0-5.4,0-8.1c0-2-1.7-3.7-3.6-3.9
		c-2.1-0.2-3.9,1.2-4.3,3.2c-0.1,0.3-0.1,0.6-0.1,1c0,2.6,0,5.2,0,7.8c0,0.3-0.1,0.3-0.3,0.3c-0.5,0-1,0-1.5,0c-0.2,0-0.2,0-0.2-0.2
		c0-2.8-0.1-5.5,0-8.3c0.1-2.8,2.2-5.1,4.9-5.6c2.5-0.4,4.5,0.4,6.1,2.4C63.8,33.2,63.8,33.3,63.9,33.3z"/>
	<path fill="#77787B" d="M50.7,38c0,4.1-3.2,7.3-7.3,7.3c-4.1,0-7.2-3.2-7.2-7.3c0-4,3.1-7.3,7.2-7.3C47.5,30.7,50.7,34,50.7,38z
		 M38.3,38c0,0.3,0,0.6,0.1,0.8c0.3,2.3,1.9,4.4,4.5,4.6c1.7,0.2,3.2-0.3,4.3-1.6c1.5-1.8,1.8-3.8,1-5.9c-1.2-3.3-5.3-4.4-8-2.2
		C38.9,34.9,38.3,36.3,38.3,38z"/>
	<path fill="#373739" d="M8.9,40.5c0,1.4,0,2.8,0,4.2C8.9,45,8.9,45,8.6,45c-0.5,0-1,0-1.6,0c-0.2,0-0.2,0-0.2-0.2c0-2.7,0-5.3,0-8
		c0.1-3.1,2.3-5.6,5.4-6c3.5-0.4,6.3,2.1,6.7,5.2c0,0.3,0.1,0.6,0.1,0.8c0,2.6,0,5.3,0,7.9C19,45,19,45,18.7,45c-0.5,0-1,0-1.5,0
		c-0.2,0-0.3-0.1-0.3-0.3c0-2.7,0-5.3,0-8c0-2.4-2-4.2-4.4-4c-2,0.2-3.7,1.9-3.6,4.1C8.9,38.1,8.9,39.3,8.9,40.5z"/>
	<path fill="#77787B" d="M23.9,38.1c0.1,1.9,0.7,3.4,2.3,4.5c1.9,1.3,4.3,1.2,6.1-0.3c0.3-0.2,0.5-0.5,0.8-0.7
		c0.1-0.1,0.2-0.1,0.3,0c0.3,0.3,0.6,0.6,1,0.9c0.1,0.1,0.1,0.2,0,0.3c-1.4,1.5-3.1,2.4-5.2,2.5c-3.4,0.2-6.6-2.2-7.3-5.5
		c-0.6-2.7,0.1-5.1,2.1-7.1c1.2-1.2,2.7-1.8,4.5-1.9c2.3-0.1,4.2,0.6,5.8,2.2c0.2,0.2,0.2,0.3,0,0.4c-0.3,0.3-0.7,0.7-1,1.1
		c-0.1,0.2-0.2,0.2-0.4,0c-0.7-0.7-1.4-1.3-2.3-1.6c-2.6-1-5.4,0.4-6.3,3C24,36.6,23.9,37.3,23.9,38.1z"/>
	<path fill="#C21631" d="M56.3,9.9c0.2,0,0.4,0.2,0.6,0.3c0.6,0.4,1.1,0.7,1.7,1c-0.5-0.7-1.2-1.3-1.7-1.9c0.9-0.8,1.7-1.6,2.3-2.7
		c0.2-0.3,0.3-0.7,0.4-1.1c0.1-0.8-0.2-1.5-1-1.9c-0.7-0.3-1.4-0.5-2.2-0.5c-1.9-0.1-3.8,0.2-5.6,0.6c-0.3,0.1-0.5,0.2-0.8,0.1
		c0.3-0.2,0.6-0.2,0.8-0.3c2.5-0.7,5.1-1.1,7.7-0.9c1.2,0.1,2.3,0.3,3.4,0.9c1,0.6,1.4,1.5,1.2,2.7c-0.1,0.9-0.5,1.6-1,2.3
		c-1,1.4-2.2,2.5-3.5,3.5c-2.3,1.8-4.9,3.2-7.5,4.3c-0.5-0.5-1-1-1.4-1.6c0.1,0,0.1-0.1,0.2-0.1c1.5-0.9,2.9-1.9,4.3-2.9
		C54.8,11.1,55.5,10.5,56.3,9.9z"/>
	<path fill="#C21631" d="M47.4,16c0.3,0.5,0.7,0.9,1,1.4c-1.2,0.5-2.4,1-3.6,1.5c-1.6,0.6-3.2,1.3-4.8,1.8c-0.1,0-0.3,0.2-0.4,0
		c-0.1-0.2,0.1-0.2,0.2-0.3C42.4,18.9,44.9,17.5,47.4,16z"/>
	<path fill="#77787B" d="M104.4,32.1c0,0.9-0.7,1.6-1.6,1.6c-0.9,0-1.6-0.7-1.6-1.7c0-0.9,0.7-1.6,1.6-1.6
		C103.6,30.4,104.5,31.2,104.4,32.1z M102.8,30.8c-0.7,0-1.3,0.6-1.3,1.3c0,0.7,0.6,1.4,1.3,1.4c0.7,0,1.3-0.6,1.3-1.3
		C104.1,31.4,103.5,30.8,102.8,30.8z"/>
	<path fill="#77787B" d="M103.2,32.2c0.3,0.1,0.3,0.3,0.3,0.6c0,0.1,0,0.3-0.2,0.2c-0.2,0-0.3,0-0.3-0.2c0-0.1,0-0.2,0-0.3
		c-0.1-0.2-0.2-0.2-0.4-0.2c-0.2,0-0.1,0.2-0.1,0.2c-0.1,0.1,0.1,0.4-0.2,0.4c-0.2,0-0.3,0-0.3-0.3c0-0.4,0-0.9,0-1.3
		c0-0.2,0-0.2,0.2-0.2c0.2,0,0.5,0,0.7,0c0.2,0,0.5,0.1,0.5,0.4C103.6,31.9,103.5,32.1,103.2,32.2z M102.5,31.8c0,0.2,0,0.3,0.2,0.3
		c0.2,0,0.3-0.1,0.3-0.2c0-0.2-0.2-0.2-0.4-0.3C102.5,31.5,102.6,31.7,102.5,31.8z"/>
</g>
</svg>
