<?xml version="1.0" encoding="UTF-8"?><!DOCTYPE svg PUBLIC "-//W3C//DTD SVG 1.1//EN" "http://www.w3.org/Graphics/SVG/1.1/DTD/svg11.dtd"><svg xmlns="http://www.w3.org/2000/svg"><symbol id="icon-angle-down" viewBox="0 0 137.1 80.4">
    <path d="M68.5 53.7L16.9 2.1C14.2-.6 9.7-.6 7 2.1l-5 5C-.7 9.8-.7 14.3 2 17l61.6 61.4c2.7 2.7 7.2 2.7 9.9 0L135 16.9c2.7-2.7 2.7-7.2 0-9.9l-5-5c-2.7-2.7-7.2-2.7-9.9 0L68.5 53.7z"/>
</symbol><symbol id="icon-angle-left" viewBox="0 0 80.5 137.1">
    <path d="M26.8 68.5l51.6-51.6c2.7-2.7 2.7-7.2 0-9.9l-5-5c-2.7-2.7-7.2-2.7-9.9 0L2.1 63.6c-2.7 2.7-2.7 7.2 0 9.9L63.6 135c2.7 2.7 7.2 2.7 9.9 0l5-5c2.7-2.7 2.7-7.2 0-9.9L26.8 68.5z"/>
</symbol><symbol id="icon-attention" viewBox="0 0 612.816 612.816">
    <path d="M306.408 0C137.368 0 .371 136.997.371 306.037s136.997 306.779 306.037 306.779 306.037-137.813 306.037-306.037C612.445 137.739 475.448 0 306.408 0zm0 583.147c-152.203 0-276.368-124.165-276.368-276.368S154.205 29.595 306.408 29.595 582.776 153.76 582.776 306.779 458.611 583.147 306.408 583.147zm15.205-151.387c0 8.827-7.195 16.021-16.021 16.021-8.827 0-16.021-7.195-16.021-16.021 0-8.827 7.195-16.021 16.021-16.021s16.021 7.195 16.021 16.021zm-31.226-78.549v-180.24c0-8.011 6.379-14.39 14.39-14.39 8.011 0 14.39 6.379 14.39 14.39v180.24c0 8.011-6.379 14.39-14.39 14.39-8.011.89-14.39-6.379-14.39-14.39z"/>
</symbol><symbol id="icon-close" viewBox="0 0 21.9 21.9">
    <path d="M14.1 11.3c-.2-.2-.2-.5 0-.7l7.5-7.5c.2-.2.3-.5.3-.7s-.1-.5-.3-.7L20.2.3c-.2-.2-.5-.3-.7-.3-.3 0-.5.1-.7.3l-7.5 7.5c-.2.2-.5.2-.7 0L3.1.3C2.9.1 2.6 0 2.4 0s-.5.1-.7.3L.3 1.7c-.2.2-.3.5-.3.7s.1.5.3.7l7.5 7.5c.2.2.2.5 0 .7L.3 18.8c-.2.2-.3.5-.3.7s.1.5.3.7l1.4 1.4c.2.2.5.3.7.3s.5-.1.7-.3l7.5-7.5c.2-.2.5-.2.7 0l7.5 7.5c.2.2.5.3.7.3s.5-.1.7-.3l1.4-1.4c.2-.2.3-.5.3-.7s-.1-.5-.3-.7l-7.5-7.5z"/>
</symbol><symbol id="icon-cogs" viewBox="0 0 174.2 174.3">
    <path d="M173.1 73.9c-.4-2.7-2.3-5-4.9-5.9l-13.7-4.9c-.8-2.3-1.7-4.5-2.8-6.7l6.2-13.1c1.2-2.5.9-5.4-.7-7.6-5.3-7.2-11.6-13.5-18.7-18.7-2.2-1.6-5.1-1.9-7.6-.7l-13.1 6.2c-2.2-1-4.4-1.9-6.7-2.8L106.2 6c-.9-2.6-3.2-4.5-5.9-4.9-9.7-1.5-16.8-1.5-26.5 0-2.7.4-5 2.3-5.9 4.9L63 19.7c-2.3.8-4.5 1.7-6.7 2.8l-13.1-6.2c-2.5-1.2-5.4-.9-7.6.7-7.1 5.2-13.4 11.5-18.7 18.7-1.6 2.2-1.9 5.1-.7 7.6l6.2 13.1c-1 2.2-1.9 4.4-2.8 6.7L6 68c-2.6.9-4.5 3.2-4.9 5.9C.3 78.8 0 83 0 87.1s.3 8.3 1.1 13.2c.4 2.7 2.3 5 4.9 5.9l13.7 4.9c.8 2.3 1.7 4.5 2.8 6.7L16.2 131c-1.2 2.5-.9 5.4.7 7.6 5.3 7.2 11.5 13.4 18.7 18.7 2.2 1.6 5.1 1.9 7.6.7l13.1-6.2c2.2 1 4.4 1.9 6.7 2.8l4.9 13.7c.9 2.6 3.2 4.5 5.9 4.9 4.8.7 9.2 1.1 13.2 1.1s8.4-.4 13.2-1.1c2.7-.4 5-2.3 5.9-4.9l4.9-13.7c2.3-.8 4.5-1.7 6.7-2.8L131 158c2.5 1.2 5.4.9 7.6-.7 7.2-5.3 13.4-11.6 18.7-18.7 1.6-2.2 1.9-5.1.7-7.6l-6.2-13.1c1-2.2 1.9-4.4 2.8-6.7l13.7-4.9c2.6-.9 4.5-3.2 4.9-5.9.7-4.9 1.1-9.1 1.1-13.2s-.4-8.4-1.2-13.3zm-14.2 19.8L146 98.3c-2.3.8-4 2.6-4.7 4.9-1.1 3.9-2.7 7.6-4.5 10.9-1.1 2.1-1.2 4.6-.2 6.8l5.8 12.3c-2.8 3.4-5.9 6.5-9.3 9.3l-12.3-5.8c-2.2-1-4.7-1-6.8.2-3.4 1.8-7.1 3.4-11 4.5-2.3.7-4.1 2.4-4.9 4.7L93.7 159c-4.7.5-8.5.5-13.2 0l-4.6-12.9c-.8-2.2-2.6-4-4.9-4.7-3.9-1.2-7.6-2.7-11-4.5-2.1-1.1-4.6-1.2-6.8-.2L41 142.6c-3.4-2.8-6.5-5.9-9.3-9.3l5.8-12.3c1-2.2 1-4.7-.2-6.8-1.8-3.4-3.3-7-4.5-10.9-.7-2.3-2.4-4.1-4.7-4.9l-12.9-4.6c-.2-2.3-.4-4.5-.4-6.6s.1-4.2.4-6.6l13-4.6c2.2-.8 4-2.6 4.7-4.9 1.2-3.9 2.7-7.6 4.5-11 1.1-2.1 1.2-4.6.2-6.8L31.7 41c2.8-3.4 5.9-6.5 9.3-9.3l12.3 5.8c2.2 1 4.7 1 6.8-.2 3.4-1.8 7.1-3.3 10.9-4.5 2.3-.7 4.1-2.4 4.9-4.7l4.6-12.9c4.6-.5 8.5-.5 13.2 0l4.6 12.9c.8 2.2 2.6 4 4.9 4.7 3.9 1.2 7.6 2.7 11 4.5 2.1 1.1 4.6 1.2 6.8.2l12.3-5.8c3.4 2.8 6.5 5.9 9.3 9.3l-5.8 12.3c-1 2.2-1 4.7.2 6.8 1.8 3.4 3.4 7.1 4.5 10.9.7 2.3 2.4 4.1 4.7 4.9l12.9 4.6c.2 2.3.4 4.5.4 6.6s-.3 4.3-.6 6.6z"/>
    <path d="M87.1 50.8c-19.1 0-34.6 15.5-34.6 34.6S68 120 87.1 120s34.6-15.5 34.6-34.6-15.5-34.6-34.6-34.6zm0 54.2c-10.8 0-19.6-8.8-19.6-19.6s8.8-19.6 19.6-19.6 19.6 8.8 19.6 19.6S97.9 105 87.1 105z"/>
</symbol><symbol id="icon-logout" viewBox="0 0 430 512">
    <path d="M319.2 121.2c11 0 20-9 20-20V49.4c0-27.2-22.4-49.4-49.9-49.4H49.9C22.4 0 0 22.2 0 49.4v413.2C0 489.8 22.4 512 49.9 512h239.4c27.5 0 49.9-22.2 49.9-49.4v-51.8c0-11-9-20-20-20s-20 9-20 20v51.8c0 5.2-4.5 9.4-9.9 9.4H49.9c-5.5 0-9.9-4.2-9.9-9.4V49.4c0-5.2 4.5-9.4 9.9-9.4h239.4c5.5 0 9.9 4.2 9.9 9.4v51.8c0 11 9 20 20 20z"/>
    <path d="M424 241.7L317.5 137.9c-7.9-7.7-20.6-7.6-28.3.4-7.7 7.9-7.6 20.6.4 28.3l71.2 69.5H169.6c-11 0-20 9-20 20s9 20 20 20h191.2l-71.2 69.5c-7.9 7.7-8.1 20.4-.4 28.3 7.7 7.9 20.4 8.1 28.3.4l106.5-104c8.1-7.9 8-20.8 0-28.6z"/>
</symbol><symbol id="icon-question" viewBox="0 0 295.8 295.8">
    <path d="M154.9 69.6c-10.4-3.5-22.6 0-31.3 7s-13.9 17.4-13.9 29.6c0 5.2 3.5 8.7 8.7 8.7 5.2 0 8.7-3.5 8.7-8.7 0-5.2 1.7-12.2 7-15.7s10.4-5.2 17.4-3.5c8.7 1.7 13.9 8.7 15.7 15.7 1.7 8.7 0 15.7-7 20.9-13.9 10.4-20.9 26.1-20.9 41.8 0 5.2 3.5 8.7 8.7 8.7 5.2 0 8.7-3.5 7-8.7 0-10.4 7-20.9 15.7-27.8 12.2-10.4 17.4-24.4 13.9-38.3-3.6-15.8-15.8-26.2-29.7-29.7z"/>
    <path d="M140.9 210.6c-1.7 1.7-1.7 5.2-1.7 7s0 3.5 1.7 5.2 5.2 3.5 7 3.5 5.2-1.7 5.2-3.5c1.7 0 3.5-3.5 3.5-5.2 0-3.5-1.7-5.2-3.5-7-3.4-3.5-8.7-3.5-12.2 0z"/>
    <path d="M147.9 0C66.1 0 0 66.1 0 147.9s66.1 147.9 147.9 147.9 147.9-66.1 147.9-147.9S229.7 0 147.9 0zm0 278.4c-71.3 0-130.5-59.2-130.5-130.5S76.6 17.4 147.9 17.4s130.5 59.2 130.5 130.5-59.1 130.5-130.5 130.5z"/>
</symbol><symbol id="icon-user" viewBox="0 0 24 24">
    <path d="M24 12c0-6.6-5.4-12-12-12S0 5.4 0 12c0 3.4 1.4 6.4 3.7 8.6l.2.2c2.1 2 5 3.2 8.1 3.2s6-1.2 8.1-3.2c.1 0 .1-.1.2-.2 2.3-2.2 3.7-5.2 3.7-8.6zM12 1.5c5.8 0 10.5 4.7 10.5 10.5 0 2.5-.9 4.7-2.3 6.5-.7-2.1-2.5-3.7-5-4.5 1.4-1 2.3-2.6 2.3-4.4 0-3-2.5-5.5-5.5-5.5S6.5 6.6 6.5 9.6c0 1.8.9 3.4 2.3 4.4-2.5.8-4.4 2.4-5 4.5-1.4-1.8-2.3-4-2.3-6.5C1.5 6.2 6.2 1.5 12 1.5zM8 9.6c0-2.2 1.8-4 4-4s4 1.8 4 4-1.8 4-4 4-4-1.8-4-4zM5 19.8c.2-2.7 3.1-4.8 7-4.8s6.7 2 7 4.8c-1.9 1.7-4.3 2.7-7 2.7s-5.1-1-7-2.7z"/>
</symbol></svg>