<?xml version="1.0" encoding="UTF-8"?><!DOCTYPE svg PUBLIC "-//W3C//DTD SVG 1.1//EN" "http://www.w3.org/Graphics/SVG/1.1/DTD/svg11.dtd"><svg xmlns="http://www.w3.org/2000/svg"><symbol id="icon-gear-option" viewBox="0 0 369.793 369.792">
    <path d="M320.83 140.434l-1.759-.627-6.87-16.399.745-1.685c20.812-47.201 19.377-48.609 15.925-52.031L301.11 42.61c-1.135-1.126-3.128-1.918-4.846-1.918-1.562 0-6.293 0-47.294 18.57l-1.644.738-16.916-6.812-.679-1.684C210.45 3.762 208.475 3.762 203.677 3.762h-39.205c-4.78 0-6.957 0-24.836 47.825l-.673 1.741-16.828 6.86-1.609-.669c-27.752-11.7-43.956-17.633-48.18-17.633-1.714 0-3.714.769-4.854 1.892l-27.787 27.16c-3.525 3.477-4.987 4.933 16.915 51.149l.805 1.714-6.881 16.381-1.684.651C0 159.715 0 161.556 0 166.474v38.418c0 4.931 0 6.979 48.957 24.524l1.75.618 6.882 16.333-.739 1.669c-20.812 47.223-19.492 48.501-15.949 52.025L68.62 327.18c1.162 1.117 3.173 1.915 4.888 1.915 1.552 0 6.272 0 47.3-18.561l1.643-.769 16.927 6.846.658 1.693c19.293 47.726 21.275 47.726 26.076 47.726h39.217c4.924 0 6.966 0 24.859-47.857l.667-1.742 16.855-6.814 1.604.654c27.729 11.733 43.925 17.654 48.122 17.654 1.699 0 3.717-.745 4.876-1.893l27.832-27.219c3.501-3.495 4.96-4.924-16.981-51.096l-.816-1.734 6.869-16.31 1.64-.643c48.938-18.981 48.938-20.831 48.938-25.755V164.88c-.001-4.93-.001-6.966-48.964-24.446zM184.896 247.203c-35.038 0-63.542-27.959-63.542-62.3 0-34.342 28.505-62.264 63.542-62.264 35.023 0 63.522 27.928 63.522 62.264.001 34.335-28.498 62.3-63.522 62.3z"/>
</symbol><symbol id="icon-home" viewBox="0 0 460.3 366.3">
    <path d="M230.1 73.9L66 209.3c0 .2 0 .5-.1.9s-.1.7-.1.9v137c0 4.9 1.8 9.2 5.4 12.8 3.6 3.6 7.9 5.4 12.8 5.4h109.6V256.7h73.1v109.6h109.6c4.9 0 9.2-1.8 12.8-5.4 3.6-3.6 5.4-7.9 5.4-12.8V211c0-.8-.1-1.3-.3-1.7L230.1 73.9z"/>
    <path d="M457.1 178.4l-62.5-52V10c0-2.7-.9-4.9-2.6-6.6-1.7-1.7-3.9-2.6-6.6-2.6h-54.8c-2.7 0-4.9.9-6.6 2.6-1.7 1.7-2.6 3.9-2.6 6.6v55.7L251.8 7.4c-6-4.9-13.3-7.4-21.6-7.4-8.4 0-15.6 2.5-21.7 7.4L3.2 178.4c-1.9 1.6-3 3.6-3.2 6.2-.2 2.6.5 4.8 2 6.7l17.7 21.1c1.5 1.7 3.5 2.8 6 3.1 2.3.2 4.6-.5 6.9-2L230.1 48.8l197.6 164.7c1.5 1.3 3.5 2 6 2h.9c2.5-.4 4.5-1.4 6-3.1l17.7-21.1c1.5-1.9 2.2-4.1 2-6.7-.2-2.6-1.3-4.6-3.2-6.2z"/>
</symbol><symbol id="icon-logout-mark" viewBox="0 0 292.3 292.3">
    <style>
        .st0{fill:#010002}
    </style>
    <path class="st0" d="M201.5 139.8c-.8-2-2-3.7-3.5-5.2l-59.3-59.3c-3.1-3.1-7.2-4.8-11.5-4.8-4.4 0-8.5 1.7-11.5 4.8-6.4 6.4-6.4 16.7 0 23.1l31.4 31.4c-49 0-98 0-147 .1v32.6h147L115.7 194c-6.4 6.4-6.4 16.7 0 23.1 3.1 3.1 7.2 4.8 11.5 4.8s8.5-1.7 11.5-4.8l59.4-59.3c1.5-1.5 2.6-3.3 3.5-5.3.8-2 1.2-4.1 1.2-6.2 0-2.3-.4-4.3-1.3-6.5z"/>
    <path class="st0" d="M237.9 0H54.4C24.4 0 0 24.4 0 54.4v57.7l32.6-.1V54.4c0-12 9.8-21.7 21.8-21.7h183.5c12 0 21.8 9.8 21.8 21.7v183.5c0 12-9.8 21.7-21.8 21.7H54.4c-12 0-21.8-9.7-21.8-21.7v-57.7l-32.6.1v57.6c0 30 24.4 54.4 54.4 54.4h183.5c30 0 54.4-24.4 54.4-54.4V54.4c0-30-24.4-54.4-54.4-54.4z"/>
</symbol><symbol id="icon-put-in-cart" viewBox="0 0 370 313.8">
    <path d="M366.9 43.1c-2.8-3.7-7.2-5.8-11.9-5.8H97.8L87.7 9.8C85.5 3.9 79.9 0 73.6 0H15C6.7 0 0 6.7 0 15s6.7 15 15 15h48.2l85.4 231.7c2.2 5.9 7.8 9.8 14.1 9.8h147.8c8.3 0 15-6.7 15-15s-6.7-15-15-15H173.1l-13.6-36.8h160.3c6.9 0 12.8-4.6 14.5-11.3L369.5 56c1.2-4.4.2-9.2-2.6-12.9zM262.4 125l-25.8 25.8c-2.8 2.8-6.6 4.4-10.6 4.4s-7.8-1.6-10.6-4.4L189.6 125c-2.8-2.8-4.4-6.6-4.4-10.6s1.6-7.8 4.4-10.6c2.8-2.8 6.6-4.4 10.6-4.4s7.8 1.6 10.6 4.4l.2.2V79.8c0-8.3 6.7-15 15-15s15 6.7 15 15V104l.2-.2c2.8-2.8 6.6-4.4 10.6-4.4s7.8 1.6 10.6 4.4c5.9 5.9 5.9 15.4 0 21.2z"/>
    <path d="M181.5 275.1c-10.7 0-19.3 8.7-19.3 19.3s8.7 19.3 19.3 19.3c10.7 0 19.3-8.7 19.3-19.3 0-10.7-8.6-19.3-19.3-19.3z"/>
    <path d="M282.3 275.1c-10.7 0-19.3 8.7-19.3 19.3s8.7 19.3 19.3 19.3 19.3-8.7 19.3-19.3c.1-10.7-8.6-19.3-19.3-19.3z"/>
</symbol><symbol id="icon-question-option" viewBox="0 0 50 50">
    <style>
        .st0{fill:#374163}
    </style>
    <path class="st0" d="M25 49.9c-13.8 0-25-11.2-25-25C0 11.2 11.2.1 25 .1S50 11.3 50 25 38.8 49.9 25 49.9zm0-45.2C13.8 4.7 4.6 13.8 4.6 25c0 11.2 9.2 20.4 20.4 20.4S45.4 36.3 45.4 25c0-11.2-9.2-20.3-20.4-20.3z"/>
    <path class="st0" d="M29.3 27.8c-.7 0-1.4-.3-1.8-.9-.8-1-.6-2.5.5-3.2 1.1-.8 1.9-2.3 1.9-3.7 0-2.6-2.2-4.8-4.8-4.8s-4.8 2.2-4.8 4.8c0 1.3-1 2.3-2.3 2.3-1.3 0-2.3-1-2.3-2.3 0-5.2 4.2-9.4 9.4-9.4s9.4 4.2 9.4 9.4c0 2.9-1.4 5.7-3.7 7.4-.6.2-1 .4-1.5.4z"/>
    <path class="st0" d="M25 31.9c-1.3 0-2.3-1-2.3-2.3 0-3.3 2.7-4.6 4.2-5.4.4-.2.8-.4 1.1-.6 1-.7 2.5-.5 3.2.5.7 1 .5 2.5-.5 3.2-.5.4-1.1.7-1.7 1-1.5.7-1.6.9-1.6 1.2-.1 1.3-1.1 2.4-2.4 2.4z"/>
    <path class="st0" d="M25 39.5c-1.3 0-2.3-1-2.3-2.3v-1.4c0-1.3 1-2.3 2.3-2.3s2.3 1 2.3 2.3v1.4c0 1.2-1 2.3-2.3 2.3z"/>
</symbol><symbol id="icon-receiving" viewBox="0 0 27.2 27.2">
    <g>
        <path d="M0 27h27.2V8.4H0V27zm8.3-8.5h2.2v-.9-6.3s0-.3.4-.3h5.3c.5 0 .4.4.4.4v7.3h2.3c.7 0 .1.6.1.6l-5.2 5s-.3.4-.7 0c-.5-.5-5-5.2-5-5.2s-.6-.6.2-.6z"/>
        <path d="M12.8.2H2.3L.2 7.3h12.1z"/>
        <path d="M27.2 7.3L24.7.2H14.4l.6 7.1z"/>
    </g>
</symbol></svg>