<?xml version="1.0" encoding="UTF-8"?><!DOCTYPE svg PUBLIC "-//W3C//DTD SVG 1.1//EN" "http://www.w3.org/Graphics/SVG/1.1/DTD/svg11.dtd"><svg xmlns="http://www.w3.org/2000/svg"><symbol id="icon-mobile-bold" viewBox="0 0 18.9 32.6">
    <path d="M0 1.9c.2-.4.3-.7.5-1.1C.9.3 1.4.1 2 0h14.6c.8 0 1.4.3 1.9.9.3.4.5.9.5 1.4V20h-1.5V3.5H1.6v25h15.9v-9.8H19V30.3c0 1.2-.6 2-1.7 2.3-.2.1-.4.1-.6.1H2.5c-.6 0-1.2-.1-1.7-.6-.3-.3-.5-.6-.6-1 0-.1-.1-.2-.1-.3C0 21.1 0 11.5 0 1.9zm10.6 28.5c0-.6-.5-1.1-1.1-1.1-.6 0-1.1.5-1.1 1.1 0 .6.5 1.1 1.1 1.1.6 0 1.1-.5 1.1-1.1zM9.5 2.1H11.8c.1-.1.2-.1.2-.2s-.1-.2-.1-.2c-.1-.1-.2-.1-.3-.1H7c0 .1-.1.2-.1.3l.2.2h2.4z"/>
</symbol><symbol id="icon-sound-bold" viewBox="0 0 31.5 32.6">
    <g>
        <path d="M1.6 17.3c-.5.1-1 .1-1.5.2 0-.2-.1-.5-.1-.7-.2-2.4 0-4.7.8-7C2 7 3.8 4.9 6.4 3.4c.1-.1.2-.1.3-.2 0-.1-.1-.3-.1-.4-.1-.4.1-.8.5-1 1.2-.6 2.4-1 3.7-1.3 4.2-.9 8.3-.7 12.4.7.4.1.8.3 1.1.5.7.3.8.7.5 1.4.2.1.5.3.7.4 3.2 2.1 5.1 5 5.8 8.7.3 1.7.3 3.4.1 5.1-.5-.1-1-.1-1.5-.2 0-.5.1-1.1.1-1.6.1-2.8-.4-5.4-2-7.8-1.4-2-3.3-3.4-5.6-4.2-2.4-.9-5-1.2-7.6-1.1-2.5.1-4.9.6-7.1 1.8-3.4 1.9-5.4 4.7-6 8.6-.2 1.4-.2 2.7 0 4.1-.1.2-.1.3-.1.4z"/>
        <path d="M6.5 30.7c-.7.2-1.4.3-2.1.5-.2-.9-.4-1.7-.6-2.6-.2.1-.4.1-.6.2-.5.1-1-.2-1.2-.7-.2-.5-.3-.9-.5-1.4-.1-.3-.1-.7.2-1 .1-.1.1-.2 0-.3C1 23.3.4 21.2 0 19.1v-.3c.7-.1 1.3-.2 2-.3.2.8.3 1.6.5 2.4.8-.1 1.5-.2 2.3-.3.3 2.3.6 4.6 1.2 6.9-.1-.6-.2-1.1-.2-1.7-.2-1.8-.4-3.5-.6-5.3-.1-.7.4-1.3 1.1-1.4.7-.1 1.3.3 1.5.9.1.3.1.7.1 1 .3 3.3.8 6.6 1.5 9.9.1.7-.3 1.4-1 1.6-.7.2-1.4-.2-1.6-1-.1-.2-.2-.5-.3-.8z"/>
        <path d="M27.7 28.6c-.2.9-.4 1.7-.6 2.6-.7-.2-1.4-.3-2.1-.5-.1.3-.1.6-.2.8-.2.7-.8 1.2-1.5 1-.7-.1-1.1-.8-1-1.5.2-1.3.5-2.5.7-3.8.4-2.3.7-4.6.8-6.9.1-.8.7-1.3 1.4-1.3.8.1 1.3.7 1.2 1.5-.2 1.9-.4 3.7-.6 5.6 0 .4-.1.8-.2 1.2.5-2.3.9-4.5 1.1-6.9.8.1 1.5.2 2.3.3.2-.8.3-1.6.5-2.4.7.1 1.3.2 2 .3-.1.6-.2 1.1-.3 1.7-.4 1.7-.8 3.3-1.4 5v.3c.2.3.3.6.2.9-.1.4-.3.9-.4 1.3-.4 1-1.1 1.2-1.9.8.1 0 .1 0 0 0z"/>
    </g>
</symbol></svg>