<?xml version="1.0" encoding="utf-8"?>
<!-- Generator: Adobe Illustrator 21.0.0, SVG Export Plug-In . SVG Version: 6.00 Build 0)  -->
<svg version="1.1" id="Слой_1" xmlns="http://www.w3.org/2000/svg" xmlns:xlink="http://www.w3.org/1999/xlink" x="0px" y="0px"
	 viewBox="0 0 283.5 48.2" enable-background="new 0 0 283.5 48.2" xml:space="preserve">
<g>
	<path fill="#6C6C6C" d="M129.6,7.2c-0.7,2.3-1.4,4.6-2,6.9c-1.6,5.4-3.1,10.9-4.6,16.3c-1.5,5.2-3,10.4-4.5,15.6
		c-0.3,0.9-0.8,0.9-1.5,1c-0.8,0.1-1-0.3-1.1-1c-3.4-11.9-6.8-23.9-10.2-35.8c-0.3-1.1-0.6-2.2-1.1-3.3c0,1.1,0,2.3,0,3.4
		c0,8.7,0,17.3,0,26c0,1.5,0,2.9,0.3,4.4c0.4,2.4,2,3.8,4.4,3.9c0.4,0,0.9-0.2,1,0.2c0.2,0.6,0.1,1.3,0,1.9c0,0.2-0.3,0.2-0.5,0.2
		c-4.1,0-8.3,0-12.4,0c-0.4,0-0.6-0.1-0.5-0.5c0-0.1,0-0.1,0-0.2c0-1.5,0-1.5,1.5-1.6c1.9-0.1,3.4-1.7,3.6-3.9
		c0.1-0.8,0.2-1.6,0.2-2.4c0-10.1,0-20.1,0-30.2c0-0.4-0.1-0.9-0.2-1.3c-0.3-1.4-1-2-2.5-2.1c-0.7-0.1-1.4-0.1-2.1-0.1
		c-0.5,0-0.6-0.2-0.6-0.6c0-1.8-0.2-1.5,1.5-1.5c3.4,0,6.8,0,10.3,0c0.7,0,1,0.2,1.2,0.9c2.9,10.4,5.9,20.7,8.9,31
		c0,0.1,0.1,0.3,0.3,0.6c0.6-2.1,1.2-4,1.7-5.9c1.9-6.6,3.9-13.3,5.8-19.9c0.6-2,1.2-4.1,1.8-6.1c0.1-0.5,0.4-0.7,0.9-0.7
		c3.7,0,7.4,0,11.2,0c0.7,0,0.9,0.2,0.8,0.8c0,0.3,0,0.6,0,0.8c0,0.3-0.1,0.5-0.5,0.5c-0.8,0.1-1.7,0.1-2.5,0.3
		c-1.3,0.4-1.9,1.1-2.1,2.5c-0.1,0.9-0.2,1.9-0.2,2.8c0,9.9,0,19.8,0,29.7c0,0.6,0,1.2,0.1,1.7c0.3,2.1,1.2,2.9,3.3,3
		c0.3,0,0.6,0.1,0.9,0c0.8-0.1,0.9,0.2,0.9,0.9c-0.1,1.6,0.2,1.3-1.4,1.3c-4.7,0-9.4,0-14.1,0c-0.8,0-1.1-0.2-0.9-1
		c0-0.2,0-0.3,0-0.5c-0.1-0.6,0.1-0.9,0.8-0.9c3.2,0,4.2-1,4.2-4.2c0-11,0-22,0-32.9c0-0.1,0-0.2,0-0.3
		C129.7,7.2,129.7,7.2,129.6,7.2z"/>
	<path fill="#EC008B" d="M23.6,23.7c0.1,4.9-0.1,10.9,0.1,16.9c0.1,2.9,1.1,3.8,4,4c0.7,0,1.4,0,2.1,0c0.3,0,0.5,0.1,0.5,0.5
		c0.2,1.9,0.2,1.9-1.7,1.9c-5.8,0-11.5,0-17.3,0c-0.7,0-1-0.1-0.9-0.9c0.1-1.4,0-1.4,1.5-1.4c0.9,0,1.8-0.1,2.6-0.3
		c1.4-0.3,2.1-1.2,2.3-2.6c0.2-1,0.2-1.9,0.2-2.9c0-11.6,0-23.2,0-34.7c0-0.6-0.2-0.7-0.8-0.8c-3.8-0.1-7,1.1-9.2,4.2
		c-1.5,2.1-2.1,4.6-2.5,7.1c-0.1,0.4-0.1,0.8-0.2,1.1c-0.1,0.4,0.1,1-0.3,1.2c-0.5,0.2-1.1,0.1-1.6,0c-0.4,0-0.3-0.4-0.2-0.7
		c0.1-4,0.2-7.9,0.3-11.9c0-0.9,0.1-1.7,0-2.6c0-0.7,0.2-0.8,0.9-0.8c3,0,5.9,0,8.9,0c8.4,0,16.8,0,25.2,0c0.7,0,0.9,0.2,0.9,0.9
		c0.1,4.8,0.1,9.5,0.3,14.3c0,0.7-0.2,0.9-0.8,0.8c-0.2,0-0.4,0-0.7,0c-0.6,0.1-0.7-0.2-0.8-0.7c-0.3-2.3-0.8-4.6-1.7-6.8
		c-2.2-5.1-5.8-6.4-10.5-6.3c-0.5,0-0.5,0.3-0.5,0.7c0,2.7,0,5.3,0,8C23.6,15.5,23.6,19,23.6,23.7z"/>
	<path fill="#6C6C6C" d="M227.4,21.6c0,6,0,12.1,0,18.1c0,0.9,0.1,1.8,0.2,2.7c0.3,1.7,1.1,2.3,2.8,2.3c1.5,0,1.4,0,1.4,1.4
		c0,0.6-0.2,0.7-0.8,0.7c-3.2,0-6.3,0-9.5,0c-1.1,0-2.2,0-3.2,0c-0.6,0-0.8-0.1-0.8-0.7c0-1.4,0-1.4,1.4-1.4c1.8,0,2.6-0.8,2.8-2.6
		c0.1-1,0.1-1.9,0.1-2.9c0-9.8,0-19.6,0-29.4c0-1,0-2-0.2-3c-0.3-1.7-1-2.4-2.8-2.5c-0.4,0-0.9,0.2-1-0.2c-0.2-0.5-0.1-1.1,0-1.7
		c0.1-0.2,0.3-0.2,0.5-0.2c2.7-0.1,5.4-0.2,8.1-0.4c0.7,0,0.9,0.2,0.9,0.9C227.4,9.2,227.4,15.4,227.4,21.6z"/>
	<path fill="#6C6C6C" d="M210.9,28.7c0,3.8,0,7.7,0,11.5c0,0.7,0.1,1.5,0.2,2.2c0.2,1.6,1.1,2.4,2.7,2.4c0.1,0,0.3,0,0.4,0
		c1.2,0,1-0.2,1.1,1.1c0,0.8-0.2,1.1-1,1.1c-4.1,0-8.2,0-12.3,0c-0.8,0-1-0.2-1-1c0.1-1.4-0.1-1.2,1.2-1.2c2.1,0,3-0.8,3.1-2.9
		c0.3-4.3,0.1-8.5,0.1-12.8c0-2.6,0.2-5.2-0.1-7.8c-0.2-2.1-0.9-2.7-3.1-2.8c-0.3,0-0.8,0.2-0.8-0.3c-0.1-0.6-0.1-1.1,0.1-1.7
		c0-0.1,0.2-0.1,0.4-0.1c2.8-0.2,5.6-0.3,8.4-0.5c0.6,0,0.7,0.2,0.7,0.8C210.9,20.6,210.9,24.6,210.9,28.7
		C210.9,28.7,210.9,28.7,210.9,28.7z"/>
	<path fill="#6C6C6C" d="M10.8,26.8c0,1.3,0,2.6,0,4c0,0.5-0.1,0.7-0.6,0.7c-2.6,0-5.3,0-7.9,0c-0.5,0-0.7-0.1-0.7-0.6
		c0-2.7,0-5.3,0-8c0-0.5,0.1-0.7,0.6-0.7c2.6,0,5.3,0,7.9,0c0.6,0,0.7,0.2,0.7,0.7C10.7,24.1,10.8,25.5,10.8,26.8z"/>
	<path fill="#6C6C6C" d="M275.4,26.8c0,1.3,0,2.6,0,4c0,0.5-0.1,0.7-0.6,0.7c-2.7,0-5.3,0-8,0c-0.4,0-0.6-0.1-0.6-0.6
		c0-2.7,0-5.5,0-8.2c0-0.4,0.2-0.6,0.6-0.6c2.7,0,5.3,0,8,0c0.5,0,0.6,0.2,0.6,0.6C275.4,24.1,275.4,25.4,275.4,26.8z"/>
	<path fill="#6C6C6C" d="M38.8,26.8c0,1.3,0,2.6,0,3.9c0,0.5-0.1,0.8-0.7,0.8c-2.6,0-5.1,0-7.7,0c-0.6,0-0.7-0.2-0.7-0.7
		c0-2.6,0-5.2,0-7.9c0-0.5,0.1-0.7,0.7-0.7c2.6,0,5.2,0,7.8,0c0.5,0,0.7,0.2,0.7,0.7C38.8,24.1,38.8,25.4,38.8,26.8z"/>
	<path fill="#6C6C6C" d="M65.9,26.8c0,1.3,0,2.6,0,4c0,0.5-0.1,0.7-0.6,0.7c-2.6,0-5.2,0-7.9,0c-0.5,0-0.7-0.2-0.7-0.7
		c0-2.7,0-5.4,0-8c0-0.4,0.1-0.6,0.6-0.6c2.6,0,5.3,0,7.9,0c0.5,0,0.6,0.2,0.6,0.6C65.9,24.1,65.9,25.4,65.9,26.8z"/>
	<path fill="#6C6C6C" d="M93.4,26.8c0,1.3,0,2.5,0,3.8c0,0.5-0.1,0.8-0.7,0.8c-2.6,0-5.2,0-7.8,0c-0.5,0-0.7-0.2-0.7-0.7
		c0-2.7,0-5.3,0-8c0-0.5,0.2-0.7,0.7-0.6c2.6,0,5.2,0,7.8,0c0.5,0,0.7,0.2,0.7,0.7C93.4,24.1,93.4,25.5,93.4,26.8z"/>
	<path fill="#6C6C6C" d="M211.2,5.9c0,2.1-1.5,3.7-3.5,3.7c-2,0-3.6-1.7-3.6-3.7c0-2,1.7-3.7,3.6-3.7C209.7,2.1,211.2,3.7,211.2,5.9
		z"/>
	<path fill="#6C6C6C" d="M197.3,23c-1.5-3.9-4.2-6.5-8.4-7.3c-3.1-0.5-5.9,0-8.2,2.5c-0.5,0.6-0.9,1.3-1.5,2.2c0-0.5,0-0.8,0-1
		c0-5.5,0-11,0-16.5c0-0.6-0.1-0.9-0.8-0.8c-2.6,0.2-5.3,0.3-7.9,0.4c-0.2,0-0.4,0-0.5,0.1c-0.2,0.6-0.2,1.2-0.1,1.8
		c0.1,0.4,0.5,0.2,0.8,0.2c1.7,0.1,2.6,0.8,2.8,2.4c0.1,0.8,0.2,1.5,0.2,2.3c0,10.3,0,20.7,0,31c0,2.1,0,4.1-0.5,6.1
		c0,0.2-0.1,0.3,0.1,0.4c0.5,0.3,2-0.1,2.3-0.5c0.4-0.7,0.8-1.4,1.3-2c0.6-0.8,1.2-0.8,2-0.2c0.8,0.6,1.5,1.2,2.3,1.7
		c2.1,1.6,4.5,1.8,7,1.4c3.7-0.6,6.3-2.7,8-5.9C199.4,35.5,199.6,29.3,197.3,23z M191.5,39.6c-0.2,0.9-0.6,1.8-1,2.7
		c-2,3.7-6.7,4.1-9.2,0.6c-1.2-1.7-1.8-3.6-2.1-5.7c-0.6-4.2-0.7-8.3,0.3-12.5c0.5-2.2,1.5-4.2,3.3-5.6c2.9-2.3,6.5-1.4,8,2
		c1.1,2.3,1.4,4.7,1.6,7.2c0.1,1,0,1.9,0,2.9C192.4,34.1,192.2,36.9,191.5,39.6z"/>
	<path fill="#6C6C6C" d="M168.2,28.7c-0.4-3.6-1.6-6.8-4-9.5c-5.4-5.7-14.8-5-19.3,1.5c-1.8,2.6-2.6,5.5-2.9,8.6
		c-0.4,4.3,0.1,8.5,2.2,12.3c4.4,8,16,8.5,21.1,1c2.3-3.3,3-7,3.1-11C168.4,30.6,168.3,29.7,168.2,28.7z M161.2,39.5
		c-0.3,1.4-0.8,2.7-1.6,3.9c-2.5,3.5-7.4,3.2-9.4-0.6c-1-1.8-1.4-3.8-1.7-5.8c-0.2-1.8-0.3-3.6-0.3-5.8c0.1-2.7,0.2-5.8,1.2-8.7
		c0.6-1.6,1.4-3.1,2.9-4c2.2-1.5,5.2-1.1,7,1.1c1.3,1.5,2,3.3,2.3,5.3C162.2,29.6,162.3,34.6,161.2,39.5z"/>
	<path fill="#6C6C6C" d="M240.7,31.4c2.7,0,5.5,0,8.2,0c2.7,0,5.3,0,8,0c0.8,0,1-0.3,1-1c-0.2-2-0.4-3.9-1-5.8
		c-0.9-2.9-2.3-5.5-4.9-7.3c-5-3.6-11.5-2.2-15.1,3.1c-1.8,2.8-2.7,5.8-2.9,9.1c-0.3,4.3,0.2,8.4,2.2,12.2c2.9,5.6,9.7,7.9,15.1,5.1
		c2.6-1.3,4.2-3.5,5.6-5.9c0.8-1.3,0.7-1.3-0.6-2c-0.5-0.3-0.7-0.2-1,0.3c-0.7,1.4-1.5,2.7-2.6,3.9c-2.8,3.3-9.7,3.6-11.6-2.6
		c-0.8-2.7-1-5.6-1.1-8.4C239.9,31.4,240.3,31.4,240.7,31.4z M242,20.3c2-3.5,6-3.6,8-0.2c1.1,1.8,1.5,3.9,1.7,6
		c0.1,0.7,0.1,1.5,0.1,2.2c0.1,0.6-0.1,0.8-0.7,0.8c-1.7,0-3.5,0-5.2,0c-1.7,0-3.5,0-5.2,0c-0.3,0-0.6,0.1-0.6-0.4
		C240.2,25.8,240.5,22.9,242,20.3z"/>
	<path fill="#6C6C6C" d="M278.8,14.5c-1.8,0-3.3,1.5-3.3,3.3c0,1.9,1.4,3.3,3.3,3.3c1.8,0,3.3-1.6,3.3-3.3
		C282.1,16.1,280.5,14.5,278.8,14.5z M278.8,20.6c-1.5,0-2.8-1.3-2.8-2.7c0-1.6,1.2-2.7,2.8-2.7c1.5,0,2.7,1.2,2.7,2.7
		C281.5,19.4,280.4,20.6,278.8,20.6z"/>
	<path fill="#6C6C6C" d="M279.8,18.8c-0.3-0.4-0.5-0.7,0.1-1.1c0.6-0.5,0.2-1.4-0.5-1.5c-1.6-0.4-1.9-0.1-1.9,1.5c0,0.1,0,0.2,0,0.2
		c0,0,0,0,0,0c0,0.4,0,0.9,0,1.3c0,0.2,0,0.4,0.3,0.4c0.2,0,0.2-0.2,0.2-0.4c0-0.1,0-0.3,0-0.4c0-0.2-0.1-0.5,0.2-0.7
		c0.3-0.1,0.6,0.1,0.8,0.3c0.1,0.2,0.2,0.4,0.4,0.5c0.2,0.3,0.3,0.8,0.7,0.5C280.4,19.4,279.9,19,279.8,18.8z M278.6,17.7
		c-0.4,0-0.7,0-0.7-0.6c0-0.6,0.4-0.4,0.8-0.5c0.3,0,0.8,0,0.8,0.5C279.5,17.7,279,17.7,278.6,17.7z"/>
</g>
</svg>
